<?xml version="1.0" encoding="UTF-8" standalone="no"?>
<svg
   xmlns:dc="http://purl.org/dc/elements/1.1/"
   xmlns:cc="http://creativecommons.org/ns#"
   xmlns:rdf="http://www.w3.org/1999/02/22-rdf-syntax-ns#"
   xmlns:svg="http://www.w3.org/2000/svg"
   xmlns="http://www.w3.org/2000/svg"
   xmlns:sodipodi="http://sodipodi.sourceforge.net/DTD/sodipodi-0.dtd"
   xmlns:inkscape="http://www.inkscape.org/namespaces/inkscape"
   version="1.1"
   id="svg2"
   xml:space="preserve"
   width="2730.6667"
   height="2048"
   viewBox="0 0 2730.6667 2048"
   sodipodi:docname="Beach-Level-Background.svg"
   inkscape:version="1.0.2 (e86c870879, 2021-01-15, custom)"><metadata
     id="metadata8"><rdf:RDF><cc:Work
         rdf:about=""><dc:format>image/svg+xml</dc:format><dc:type
           rdf:resource="http://purl.org/dc/dcmitype/StillImage" /><dc:title></dc:title></cc:Work></rdf:RDF></metadata><defs
     id="defs6"><clipPath
       clipPathUnits="userSpaceOnUse"
       id="clipPath22"><path
         d="M 0,1536 H 2048 V 0 H 0 Z"
         id="path20" /></clipPath></defs><sodipodi:namedview
     pagecolor="#ffffff"
     bordercolor="#666666"
     borderopacity="1"
     objecttolerance="10"
     gridtolerance="10"
     guidetolerance="10"
     inkscape:pageopacity="0"
     inkscape:pageshadow="2"
     inkscape:window-width="1920"
     inkscape:window-height="1057"
     id="namedview4"
     showgrid="false"
     inkscape:zoom="0.41503906"
     inkscape:cx="1365.3334"
     inkscape:cy="1024"
     inkscape:window-x="1912"
     inkscape:window-y="846"
     inkscape:window-maximized="1"
     inkscape:current-layer="g10" /><g
     id="g10"
     inkscape:groupmode="layer"
     inkscape:label="Level Backgrounds"
     transform="matrix(1.3333333,0,0,-1.3333333,0,2048)"><g
       id="g12"
       transform="translate(2.9997,1535.0004)"><path
         d="m 0,0 v -841.482 l 2.992,-229.809 H 2045 V 0 Z"
         style="fill:#c2e1dc;fill-opacity:1;fill-rule:nonzero;stroke:none"
         id="path14" /></g><g
       id="g16"><g
         id="g18"
         clip-path="url(#clipPath22)"><g
           id="g24"
           transform="translate(1198,720.327)"><path
             d="m 0,0 c 0,-172.789 -159.387,-312.863 -356,-312.863 -196.613,0 -356,140.074 -356,312.863 0,172.789 159.387,312.863 356,312.863 C -159.387,312.863 0,172.789 0,0"
             style="fill:#ffffff;fill-opacity:1;fill-rule:nonzero;stroke:none"
             id="path26" /></g><g
           id="g28"
           transform="translate(1,697.4775)"><path
             d="M 0,0 H 2054 V -506.205 H 1 Z"
             style="fill:#00aeac;fill-opacity:1;fill-rule:nonzero;stroke:none"
             id="path30" /></g><g
           id="g32"
           transform="translate(552,696.5987)"><path
             d="m 0,0 c 0,0 -97,-180.16 419,-218.828 0,0 328,-7.031 472,-291.771 H -192 c 0,0 265,79.095 -48,274.194 0,0 -179,136.219 42,237.284 z"
             style="fill:#00848e;fill-opacity:1;fill-rule:nonzero;stroke:none"
             id="path34" /></g><g
           id="g36"
           transform="translate(2053,1106.1322)"><path
             d="m 0,0 c 0,0 -84.551,2.03 -177.865,-78.958 -38.392,-33.32 -88.966,-53.272 -142.505,-56.62 -29.409,-1.839 -64.166,-1.98 -102.846,1.566 -45.989,4.216 -92.471,-3.756 -132.763,-23.897 -25.123,-12.557 -51.901,-29.81 -74.403,-53.093 -38.385,-39.72 -94.976,-61.95 -153.897,-61.215 -13.427,0.167 -28.089,0.938 -44.063,2.48 -56.314,5.44 -113.363,-4.048 -162.815,-28.593 -18.041,-8.954 -35.67,-20.123 -50.823,-34.013 -17.014,-15.597 -38.647,-26.601 -62.247,-32.268 L -1284,-407.776 H 3 Z"
             style="fill:#fff69a;fill-opacity:1;fill-rule:nonzero;stroke:none"
             id="path38" /></g><g
           id="g40"
           transform="translate(2056,1016.4333)"><path
             d="m 0,0 v -318.077 h -567 c 0,0 105.5,172.805 291.5,131.561 0,0 78.5,-27.859 129,63.241 0,0 61.5,147.941 146.5,123.275"
             style="fill:#f37521;fill-opacity:1;fill-rule:nonzero;stroke:none"
             id="path42" /></g><g
           id="g44"
           transform="translate(-2,-9)"><path
             d="M 0,0 V 318 H 2048 V 6.602 Z"
             style="fill:#fff69a;fill-opacity:1;fill-rule:nonzero;stroke:none"
             id="path46" /></g><g
           id="g48"
           transform="translate(-8.8462,531.6708)"><path
             d="m 0,0 190.154,55.704 -103,-114.89 39.615,-20.889 L -7.923,-222.817 0,-243.706 c 0,0 186.192,163.631 431.808,139.261 l -154.5,-76.593 47.538,-45.26 -190.154,-94.001 35.654,-27.852 L 0,-442.152 3.962,-463.041 c 0,0 289.192,194.965 606.115,41.778 L 427.846,-452.596 V -483.93 L 206,-532.671 H 15.846 l -11.884,69.63"
             style="fill:#8ac03f;fill-opacity:1;fill-rule:nonzero;stroke:none"
             id="path50" /></g><g
           id="g52"
           transform="translate(-13.0049,367.6663)"><path
             d="M 0,0 49.736,49.736"
             style="fill:#c6db5b;fill-opacity:1;fill-rule:nonzero;stroke:none"
             id="path54" /></g><g
           id="g56"
           transform="translate(-11.9443,366.6056)"><path
             d="m 0,0 49.736,49.736 c 1.367,1.367 -0.754,3.489 -2.121,2.122 C 31.036,35.279 14.457,18.7 -2.121,2.121 -3.488,0.754 -1.368,-1.367 0,0"
             style="fill:#c6db5b;fill-opacity:1;fill-rule:nonzero;stroke:none"
             id="path58" /></g><g
           id="g60"
           transform="translate(90.9228,269.2069)"><path
             d="m 0,0 c 10.856,10.899 22.624,20.98 34.5,30.736 26.848,22.057 55.549,42.138 86.236,58.502 19.415,10.353 39.682,19.128 60.833,25.266 1.85,0.537 1.063,3.433 -0.798,2.893 C 143.82,106.673 109.467,88.129 77.679,66.707 53.836,50.638 31.14,32.761 9.861,13.424 5.8,9.733 1.752,6.01 -2.121,2.121 -3.485,0.752 -1.365,-1.37 0,0"
             style="fill:#c6db5b;fill-opacity:1;fill-rule:nonzero;stroke:none"
             id="path62" /></g><g
           id="g64"
           transform="translate(130.2346,84.4524)"><path
             d="m 0,0 c 21.166,9.284 44.599,16.199 67.151,22.214 55.183,14.718 112.251,22.816 169.372,23.454 41.195,0.46 82.382,-3.097 122.821,-11.004 1.886,-0.369 2.694,2.522 0.798,2.893 C 292.305,50.822 222.529,51.805 154.099,42.607 108.955,36.54 64.132,26.323 21.119,11.25 13.507,8.583 5.877,5.833 -1.514,2.59 -3.278,1.817 -1.753,-0.769 0,0"
             style="fill:#c6db5b;fill-opacity:1;fill-rule:nonzero;stroke:none"
             id="path66" /></g></g></g></g></svg>
