<?xml version="1.0" encoding="UTF-8" standalone="no"?>
<svg
   xmlns:dc="http://purl.org/dc/elements/1.1/"
   xmlns:cc="http://creativecommons.org/ns#"
   xmlns:rdf="http://www.w3.org/1999/02/22-rdf-syntax-ns#"
   xmlns:svg="http://www.w3.org/2000/svg"
   xmlns="http://www.w3.org/2000/svg"
   xmlns:sodipodi="http://sodipodi.sourceforge.net/DTD/sodipodi-0.dtd"
   xmlns:inkscape="http://www.inkscape.org/namespaces/inkscape"
   version="1.1"
   id="svg2"
   xml:space="preserve"
   width="2730.6667"
   height="2048"
   viewBox="0 0 2730.6667 2048"
   sodipodi:docname="Farm-Level-Background.svg"
   inkscape:version="1.0.2 (e86c870879, 2021-01-15, custom)"><metadata
     id="metadata8"><rdf:RDF><cc:Work
         rdf:about=""><dc:format>image/svg+xml</dc:format><dc:type
           rdf:resource="http://purl.org/dc/dcmitype/StillImage" /><dc:title></dc:title></cc:Work></rdf:RDF></metadata><defs
     id="defs6"><clipPath
       clipPathUnits="userSpaceOnUse"
       id="clipPath18"><path
         d="M 0,1536 H 2048 V 0 H 0 Z"
         id="path16" /></clipPath><clipPath
       clipPathUnits="userSpaceOnUse"
       id="clipPath182"><path
         d="M 515.305,609.484 H 620.317 V 767.295 H 515.305 Z"
         id="path180" /></clipPath><radialGradient
       fx="0"
       fy="0"
       cx="0"
       cy="0"
       r="1"
       gradientUnits="userSpaceOnUse"
       gradientTransform="matrix(292.43997,0,0,-292.43997,565.08063,707.50446)"
       spreadMethod="pad"
       id="radialGradient198"><stop
         style="stop-opacity:1;stop-color:#2f3133"
         offset="0"
         id="stop188" /><stop
         style="stop-opacity:1;stop-color:#414244"
         offset="0.19479654"
         id="stop190" /><stop
         style="stop-opacity:1;stop-color:#414244"
         offset="0.488764"
         id="stop192" /><stop
         style="stop-opacity:1;stop-color:#414244"
         offset="0.79587873"
         id="stop194" /><stop
         style="stop-opacity:1;stop-color:#434345"
         offset="1"
         id="stop196" /></radialGradient><clipPath
       clipPathUnits="userSpaceOnUse"
       id="clipPath208"><path
         d="M 0,1536 H 2048 V 0 H 0 Z"
         id="path206" /></clipPath></defs><sodipodi:namedview
     pagecolor="#ffffff"
     bordercolor="#666666"
     borderopacity="1"
     objecttolerance="10"
     gridtolerance="10"
     guidetolerance="10"
     inkscape:pageopacity="0"
     inkscape:pageshadow="2"
     inkscape:window-width="1920"
     inkscape:window-height="1057"
     id="namedview4"
     showgrid="false"
     inkscape:zoom="0.41503906"
     inkscape:cx="1365.3334"
     inkscape:cy="1024"
     inkscape:window-x="1912"
     inkscape:window-y="846"
     inkscape:window-maximized="1"
     inkscape:current-layer="g10" /><g
     id="g10"
     inkscape:groupmode="layer"
     inkscape:label="Level Backgrounds"
     transform="matrix(1.3333333,0,0,-1.3333333,0,2048)"><g
       id="g12"><g
         id="g14"
         clip-path="url(#clipPath18)"><g
           id="g20"
           transform="translate(579.2129,1400.4882)"><path
             d="M 0,0 C 0.047,0.428 0.089,0.858 0.125,1.284 0.608,0.836 1.111,0.41 1.631,0 Z m -288.312,0 c 0.532,0.573 1.054,1.15 1.566,1.738 0.008,-0.586 0.02,-1.165 0.034,-1.738 z m -276.265,-870.895 c 5.854,7.34 9.364,16.647 9.364,26.786 0,18.019 -11.069,33.433 -26.741,39.763 0.072,1.023 0.121,2.05 0.121,3.088 0,14.776 -7.442,27.807 -18.762,35.506 1.775,4.718 2.754,9.83 2.754,15.169 0,23.662 -19.081,42.85 -42.627,42.85 -0.692,0 -1.378,-0.02 -2.064,-0.052 -0.686,0.032 -1.372,0.052 -2.065,0.052 -1.196,0 -2.379,-0.062 -3.55,-0.16 0,0.055 0.007,0.105 0.007,0.16 0,23.663 -19.087,42.85 -42.63,42.85 -23.546,0 -42.627,-19.187 -42.627,-42.85 0,-9.239 2.916,-17.79 7.865,-24.787 -1.419,0.14 -2.864,0.216 -4.323,0.216 -16.471,0 -30.749,-9.398 -37.85,-23.141 -2.048,-0.101 -4.089,-0.231 -6.118,-0.402 -7.213,5.623 -16.261,8.982 -26.099,8.982 -2.61,0 -5.158,-0.251 -7.636,-0.701 -7.704,11.106 -20.498,18.379 -34.989,18.379 -22.059,0 -40.202,-16.835 -42.405,-38.423 -3.723,1.066 -7.645,1.648 -11.71,1.648 -23.544,0 -42.628,-19.182 -42.628,-42.851 0,-10.504 3.769,-20.124 10.015,-27.576 -6.246,-7.454 -10.015,-17.077 -10.015,-27.583 0,-1.694 0.108,-3.359 0.296,-4.997 -1.121,0.084 -2.254,0.145 -3.4,0.145 -9.2,0 -17.714,-2.937 -24.683,-7.924 -0.627,0.921 -1.281,1.83 -1.979,2.697 5.856,7.337 9.364,16.649 9.364,26.789 0,18.021 -11.071,33.433 -26.741,39.763 0.071,1.023 0.124,2.05 0.124,3.088 0,14.776 -7.445,27.803 -18.763,35.508 1.775,4.715 2.752,9.823 2.752,15.161 0,23.668 -19.083,42.855 -42.625,42.855 -0.693,0 -1.38,-0.019 -2.066,-0.055 -0.685,0.036 -1.372,0.055 -2.063,0.055 -1.2,0 -2.378,-0.065 -3.55,-0.16 0,0.05 0.01,0.105 0.01,0.16 0,23.665 -19.087,42.849 -42.63,42.849 -23.544,0 -42.627,-19.184 -42.627,-42.849 0,-9.242 2.916,-17.793 7.87,-24.791 -1.424,0.146 -2.869,0.221 -4.328,0.221 -16.471,0 -30.749,-9.398 -37.848,-23.147 -2.05,-0.099 -4.089,-0.23 -6.119,-0.4 -7.214,5.624 -16.262,8.981 -26.098,8.981 -2.612,0 -5.158,-0.246 -7.639,-0.702 -7.703,11.109 -20.499,18.386 -34.989,18.386 -22.056,0 -40.199,-16.842 -42.403,-38.429 -3.722,1.067 -7.646,1.653 -11.713,1.653 -23.537,0 -42.628,-19.186 -42.628,-42.849 0,-10.507 3.771,-20.13 10.015,-27.584 -6.244,-7.453 -10.015,-17.072 -10.015,-27.576 0,-1.695 0.114,-3.359 0.3,-5.003 -1.125,0.09 -2.254,0.146 -3.399,0.146 -18.567,0 -34.355,-11.935 -40.203,-28.582 -3.812,5.631 -8.926,10.3 -14.908,13.569 3.102,5.944 4.861,12.691 4.861,19.87 0,23.663 -19.083,42.844 -42.629,42.844 -9.65,0 -18.549,-3.222 -25.695,-8.656 -2.63,17.383 -15.658,31.322 -32.504,35.237 0.174,1.584 0.274,3.192 0.274,4.827 0,3.979 -0.552,7.828 -1.561,11.483 0.519,-0.015 1.039,-0.035 1.561,-0.035 23.545,0 42.627,19.181 42.627,42.849 0,14.777 -7.439,27.803 -18.759,35.506 8.262,7.814 13.425,18.899 13.425,31.199 0,23.668 -19.083,42.851 -42.628,42.851 -3.097,0 -6.114,-0.342 -9.026,-0.973 -3.355,20.3 -20.892,35.778 -42.038,35.778 -3.294,0 -6.498,-0.386 -9.58,-1.098 -6.028,16.3 -21.643,27.914 -39.962,27.914 -23.54,0 -42.624,-19.185 -42.624,-42.851 0,-4.749 0.776,-9.313 2.198,-13.583 -4.512,1.634 -9.376,2.532 -14.449,2.532 -23.543,0 -42.63,-19.188 -42.63,-42.85 0,-10.793 3.977,-20.641 10.522,-28.172 -1.34,-3.391 -2.513,-6.865 -3.515,-10.413 -4.423,-6.759 -7.007,-14.838 -7.007,-23.53 0,-5.999 1.232,-11.713 3.452,-16.9 0.114,-1.199 0.256,-2.397 0.408,-3.584 -2.329,0.395 -4.716,0.611 -7.16,0.611 -23.546,0 -42.627,-19.181 -42.627,-42.849 0,-1.977 0.144,-3.921 0.4,-5.826 -2.52,0.792 -5.147,1.344 -7.845,1.655 4.633,6.856 7.34,15.131 7.34,24.043 0,23.663 -19.085,42.85 -42.627,42.85 -2.913,0 -5.761,-0.296 -8.508,-0.856 -3.859,19.674 -21.107,34.513 -41.815,34.513 -23.54,0 -42.626,-19.186 -42.626,-42.849 0,-1.083 0.053,-2.155 0.13,-3.218 -22.282,-1.399 -39.929,-20 -39.929,-42.749 0,-1.44 0.072,-2.863 0.212,-4.265 -3.803,1.848 -7.919,3.146 -12.247,3.789 -1.477,5.112 -3.277,10.084 -5.376,14.895 1.356,4.181 2.095,8.631 2.095,13.263 0,21.283 -15.437,38.931 -35.666,42.274 6.484,7.519 10.416,17.323 10.416,28.055 0,23.663 -19.083,42.85 -42.628,42.85 -7.065,0 -13.728,-1.739 -19.597,-4.802 -6.925,14.248 -21.48,24.065 -38.316,24.065 -23.542,0 -42.625,-19.188 -42.625,-42.85 0,-1.362 0.07,-2.702 0.189,-4.031 -1.101,0.086 -2.209,0.143 -3.333,0.143 -23.544,0 -42.63,-19.184 -42.63,-42.849 0,-8.861 2.677,-17.096 7.263,-23.929 -12.175,-13.874 -21.295,-30.514 -26.311,-48.869 -16.846,-5.72 -28.979,-21.729 -28.979,-40.595 0,-4.025 0.562,-7.925 1.599,-11.623 -21.76,-1.936 -38.827,-20.294 -38.827,-42.672 0,-17.622 10.586,-32.748 25.709,-39.33 -5.386,-7.178 -8.582,-16.105 -8.582,-25.779 0,-0.464 0.024,-0.922 0.036,-1.383 -13.427,-7.218 -22.563,-21.442 -22.563,-37.813 0,-23.667 19.084,-42.849 42.628,-42.849 8.271,0 15.991,2.374 22.528,6.475 v -100.924 h 1167.539 c 5.672,94.449 11.069,95.582 16.018,97.6 h 388.461 c 23.545,0 42.625,19.19 42.625,42.856 0,5.49 -1.035,10.737 -2.909,15.564 4.085,6.572 6.451,14.339 6.451,22.667 0,6.599 -1.487,12.856 -4.143,18.443 5.204,7.104 8.277,15.876 8.277,25.365 0,10.144 -3.51,19.451 -9.364,26.788"
             style="fill:#ffffff;fill-opacity:1;fill-rule:nonzero;stroke:none"
             id="path22" /></g><g
           id="g24"
           transform="translate(1.6165,411)"><path
             d="m 0,0 -0.616,-410 h 900.19 647.81 512 V 0 Z"
             style="fill:#8ac03f;fill-opacity:1;fill-rule:nonzero;stroke:none"
             id="path26" /></g><path
           d="M 2053,426 H 4 v 1122 h 2049 z"
           style="fill:#c2e1dc;fill-opacity:1;fill-rule:nonzero;stroke:none"
           id="path28" /><g
           id="g30"
           transform="translate(2068,929)"><path
             d="m 0,0 c -685,-57.937 -1170,-334.674 -1170,-334.674 -336,270.997 -896,272.649 -896,272.649 L -2066.384,-533 H -7 Z"
             style="fill:#c6db5b;fill-opacity:1;fill-rule:nonzero;stroke:none"
             id="path32" /></g><g
           id="g34"
           transform="translate(162.0003,396.2759)"><path
             d="M 0,0 111,-0.276 V 286.222 L 0,285.724 Z"
             style="fill:#8c6239;fill-opacity:1;fill-rule:nonzero;stroke:none"
             id="path36" /></g><g
           id="g38"
           transform="translate(162.0003,683)"><path
             d="M 0,0 V -1 L 1,0 Z"
             style="fill:#8c6239;fill-opacity:1;fill-rule:nonzero;stroke:none"
             id="path40" /></g><g
           id="g42"
           transform="translate(162,682)"><path
             d="M 0,0 V 0 Z"
             style="fill:#8c6239;fill-opacity:1;fill-rule:nonzero;stroke:none"
             id="path44" /></g><g
           id="g46"
           transform="translate(273,683)"><path
             d="M 0,0 V -0.502 L 0.5,-0.5 Z"
             style="fill:#8c6239;fill-opacity:1;fill-rule:nonzero;stroke:none"
             id="path48" /></g><g
           id="g50"
           transform="translate(163,683)"><path
             d="m 0,0 -1,-1 v 0 l 111,0.498 V 0 Z"
             style="fill:#8c6239;fill-opacity:1;fill-rule:nonzero;stroke:none"
             id="path52" /></g><g
           id="g54"
           transform="translate(486.8003,683)"><path
             d="M 0,0 V -1 L 1,0 Z"
             style="fill:#8c6239;fill-opacity:1;fill-rule:nonzero;stroke:none"
             id="path56" /></g><g
           id="g58"
           transform="translate(486.8,682)"><path
             d="M 0,0 V 0 Z"
             style="fill:#8c6239;fill-opacity:1;fill-rule:nonzero;stroke:none"
             id="path60" /></g><g
           id="g62"
           transform="translate(597.8,683)"><path
             d="M 0,0 V -0.502 L 0.5,-0.5 Z"
             style="fill:#8c6239;fill-opacity:1;fill-rule:nonzero;stroke:none"
             id="path64" /></g><g
           id="g66"
           transform="translate(487.8,683)"><path
             d="m 0,0 -1,-1 v 0 l 111,0.498 V 0 Z"
             style="fill:#8c6239;fill-opacity:1;fill-rule:nonzero;stroke:none"
             id="path68" /></g><g
           id="g70"
           transform="translate(811.6003,396.2759)"><path
             d="M 0,0 111,-0.276 V 286.222 L 0,285.724 Z"
             style="fill:#8c6239;fill-opacity:1;fill-rule:nonzero;stroke:none"
             id="path72" /></g><g
           id="g74"
           transform="translate(811.6003,683)"><path
             d="M 0,0 V -1 L 1,0 Z"
             style="fill:#8c6239;fill-opacity:1;fill-rule:nonzero;stroke:none"
             id="path76" /></g><g
           id="g78"
           transform="translate(811.6,682)"><path
             d="M 0,0 V 0 Z"
             style="fill:#8c6239;fill-opacity:1;fill-rule:nonzero;stroke:none"
             id="path80" /></g><g
           id="g82"
           transform="translate(922.6,683)"><path
             d="M 0,0 V -0.502 L 0.5,-0.5 Z"
             style="fill:#8c6239;fill-opacity:1;fill-rule:nonzero;stroke:none"
             id="path84" /></g><g
           id="g86"
           transform="translate(812.6,683)"><path
             d="m 0,0 -1,-1 v 0 l 111,0.498 V 0 Z"
             style="fill:#8c6239;fill-opacity:1;fill-rule:nonzero;stroke:none"
             id="path88" /></g><g
           id="g90"
           transform="translate(1136.4003,396.2759)"><path
             d="M 0,0 111,-0.276 V 286.222 L 0,285.724 Z"
             style="fill:#8c6239;fill-opacity:1;fill-rule:nonzero;stroke:none"
             id="path92" /></g><g
           id="g94"
           transform="translate(1136.4003,683)"><path
             d="M 0,0 V -1 L 1,0 Z"
             style="fill:#8c6239;fill-opacity:1;fill-rule:nonzero;stroke:none"
             id="path96" /></g><g
           id="g98"
           transform="translate(1136.4,682)"><path
             d="M 0,0 V 0 Z"
             style="fill:#8c6239;fill-opacity:1;fill-rule:nonzero;stroke:none"
             id="path100" /></g><g
           id="g102"
           transform="translate(1247.4,683)"><path
             d="M 0,0 V -0.502 L 0.5,-0.5 Z"
             style="fill:#8c6239;fill-opacity:1;fill-rule:nonzero;stroke:none"
             id="path104" /></g><g
           id="g106"
           transform="translate(1137.4,683)"><path
             d="m 0,0 -1,-1 v 0 l 111,0.498 V 0 Z"
             style="fill:#8c6239;fill-opacity:1;fill-rule:nonzero;stroke:none"
             id="path108" /></g><g
           id="g110"
           transform="translate(1461.2003,396.2759)"><path
             d="M 0,0 111,-0.276 V 286.222 L 0,285.724 Z"
             style="fill:#8c6239;fill-opacity:1;fill-rule:nonzero;stroke:none"
             id="path112" /></g><g
           id="g114"
           transform="translate(1461.2003,683)"><path
             d="M 0,0 V -1 L 1,0 Z"
             style="fill:#8c6239;fill-opacity:1;fill-rule:nonzero;stroke:none"
             id="path116" /></g><g
           id="g118"
           transform="translate(1461.2,682)"><path
             d="M 0,0 V 0 Z"
             style="fill:#8c6239;fill-opacity:1;fill-rule:nonzero;stroke:none"
             id="path120" /></g><g
           id="g122"
           transform="translate(1572.2,683)"><path
             d="M 0,0 V -0.502 L 0.5,-0.5 Z"
             style="fill:#8c6239;fill-opacity:1;fill-rule:nonzero;stroke:none"
             id="path124" /></g><g
           id="g126"
           transform="translate(1462.2,683)"><path
             d="m 0,0 -1,-1 v 0 l 111,0.498 V 0 Z"
             style="fill:#8c6239;fill-opacity:1;fill-rule:nonzero;stroke:none"
             id="path128" /></g><g
           id="g130"
           transform="translate(1786.0002,396.2759)"><path
             d="M 0,0 111,-0.276 V 286.222 L 0,285.724 Z"
             style="fill:#8c6239;fill-opacity:1;fill-rule:nonzero;stroke:none"
             id="path132" /></g><g
           id="g134"
           transform="translate(1786.0002,683)"><path
             d="M 0,0 V -1 L 1,0 Z"
             style="fill:#8c6239;fill-opacity:1;fill-rule:nonzero;stroke:none"
             id="path136" /></g><g
           id="g138"
           transform="translate(1786,682)"><path
             d="M 0,0 V 0 Z"
             style="fill:#8c6239;fill-opacity:1;fill-rule:nonzero;stroke:none"
             id="path140" /></g><g
           id="g142"
           transform="translate(1897,683)"><path
             d="M 0,0 V -0.502 L 0.5,-0.5 Z"
             style="fill:#8c6239;fill-opacity:1;fill-rule:nonzero;stroke:none"
             id="path144" /></g><g
           id="g146"
           transform="translate(1787,683)"><path
             d="m 0,0 -1,-1 v 0 l 111,0.498 V 0 Z"
             style="fill:#8c6239;fill-opacity:1;fill-rule:nonzero;stroke:none"
             id="path148" /></g><g
           id="g150"
           transform="translate(513.909,1357.0449)"><path
             d="m 0,0 c -20.339,68.771 -83.973,118.955 -159.339,118.955 -75.082,0 -138.521,-49.806 -159.108,-118.179 -8.951,2.473 -18.376,3.8 -28.113,3.8 -58.182,0 -105.349,-47.166 -105.349,-105.349 0,-58.183 47.167,-105.35 105.349,-105.35 30.702,0 58.332,13.137 77.587,34.092 29.257,-25.715 67.621,-41.315 109.634,-41.315 30.756,0 59.554,8.367 84.26,22.934 17.181,-12.169 38.165,-19.322 60.821,-19.322 58.182,0 105.349,47.166 105.349,105.349 C 91.091,-51.039 51.438,-6.961 0,0"
             style="fill:#ffffff;fill-opacity:1;fill-rule:evenodd;stroke:none"
             id="path152" /></g><g
           id="g154"
           transform="translate(1122.5946,1445.6387)"><path
             d="m 0,0 c -10.833,36.631 -44.728,63.361 -84.872,63.361 -39.992,0 -73.783,-26.529 -84.749,-62.947 -4.767,1.317 -9.787,2.023 -14.974,2.023 -30.991,0 -56.114,-25.123 -56.114,-56.114 0,-30.991 25.123,-56.114 56.114,-56.114 16.353,0 31.071,6.997 41.327,18.159 15.584,-13.697 36.018,-22.007 58.396,-22.007 16.383,0 31.722,4.457 44.882,12.216 9.151,-6.482 20.328,-10.292 32.395,-10.292 30.991,0 56.115,25.123 56.115,56.114 C 48.52,-27.186 27.398,-3.708 0,0"
             style="fill:#ffffff;fill-opacity:1;fill-rule:evenodd;stroke:none"
             id="path156" /></g><g
           id="g158"
           transform="translate(1301.2802,1104.7823)"><path
             d="m 0,0 c -5.509,18.626 -22.743,32.218 -43.155,32.218 -20.335,0 -37.517,-13.49 -43.093,-32.008 -2.424,0.67 -4.977,1.029 -7.614,1.029 -15.758,0 -28.532,-12.774 -28.532,-28.532 0,-15.758 12.774,-28.533 28.532,-28.533 8.315,0 15.799,3.558 21.014,9.233 7.924,-6.964 18.314,-11.189 29.693,-11.189 8.33,0 16.129,2.266 22.821,6.211 4.653,-3.296 10.336,-5.233 16.472,-5.233 15.758,0 28.533,12.774 28.533,28.533 C 24.671,-13.823 13.931,-1.885 0,0"
             style="fill:#ffffff;fill-opacity:1;fill-rule:evenodd;stroke:none"
             id="path160" /></g><g
           id="g162"
           transform="translate(1830.4886,1395.6428)"><path
             d="m 0,0 c -15.791,53.394 -65.197,92.357 -123.711,92.357 -58.294,0 -107.549,-38.67 -123.533,-91.754 -6.949,1.919 -14.267,2.95 -21.826,2.95 -45.173,0 -81.794,-36.62 -81.794,-81.794 0,-45.173 36.621,-81.793 81.794,-81.793 23.836,0 45.289,10.199 60.239,26.468 22.715,-19.965 52.501,-32.077 85.12,-32.077 23.879,0 46.238,6.496 65.42,17.806 13.339,-9.448 29.631,-15.002 47.221,-15.002 45.173,0 81.793,36.621 81.793,81.794 C 70.723,-39.627 39.937,-5.404 0,0"
             style="fill:#ffffff;fill-opacity:1;fill-rule:evenodd;stroke:none"
             id="path164" /></g><g
           id="g166"
           transform="translate(568.4841,1053.8055)"><path
             d="M 0,0 C -61.344,-42.554 -191.823,-134.395 -215.41,-151.002 V -444.321 H 0 215.41 v 293.319 C 191.823,-134.395 61.345,-42.554 0,0"
             style="fill:#c1272d;fill-opacity:1;fill-rule:evenodd;stroke:none"
             id="path168" /></g><g
           id="g170"
           transform="translate(285.2723,849.4586)"><path
             d="M 0,0 C 5.298,5.294 245.618,172.338 283.212,198.459 320.805,172.338 561.127,5.294 566.423,0 L 567.467,27.498 283.212,226.541 -1.044,27.498 Z"
             style="fill:#c1272d;fill-opacity:1;fill-rule:evenodd;stroke:none"
             id="path172" /></g><path
           d="M 505.209,777.39 H 630.414 V 609.484 H 505.209 Z"
           style="fill:#b28b8d;fill-opacity:1;fill-rule:evenodd;stroke:none"
           id="path174" /></g></g><g
       id="g176"><g
         id="g178"
         clip-path="url(#clipPath182)"><g
           id="g184"><g
             id="g186"><path
               d="M 515.305,609.484 H 620.317 V 767.295 H 515.305 Z"
               style="fill:url(#radialGradient198);stroke:none"
               id="path200" /></g></g></g></g><g
       id="g202"><g
         id="g204"
         clip-path="url(#clipPath208)"><path
           d="m 535.163,862.8 h 66.64 v 92.809 h -66.64 z"
           style="fill:#b28b8d;fill-opacity:1;fill-rule:evenodd;stroke:none"
           id="path210" /><path
           d="m 542.454,870.088 h 52.059 v 78.233 h -52.059 z"
           style="fill:#404041;fill-opacity:1;fill-rule:evenodd;stroke:none"
           id="path212" /><g
           id="g214"
           transform="translate(199.8416,1293.9724)"><path
             d="m 0,0 26.776,-6.165 -130.562,-566.608 h -28.196 z"
             style="fill:#8c6239;fill-opacity:1;fill-rule:evenodd;stroke:none"
             id="path216" /></g><g
           id="g218"
           transform="translate(226.6178,1287.8073)"><path
             d="m 0,0 -26.776,-6.166 129.142,-560.442 h 28.196 z"
             style="fill:#8c6239;fill-opacity:1;fill-rule:evenodd;stroke:none"
             id="path220" /></g><path
           d="m 199.842,1293.972 h 26.776 V 721.199 h -26.776 z"
           style="fill:#8c6239;fill-opacity:1;fill-rule:evenodd;stroke:none"
           id="path222" /><path
           d="m 79.134,953.825 h 255.879 v 18.884 H 79.134 Z"
           style="fill:#8c6239;fill-opacity:1;fill-rule:evenodd;stroke:none"
           id="path224" /><path
           d="m 81.71,907.472 h 255.879 v 18.884 H 81.71 Z"
           style="fill:#8c6239;fill-opacity:1;fill-rule:evenodd;stroke:none"
           id="path226" /><g
           id="g228"
           transform="translate(216.0656,1284.5524)"><path
             d="M 0,0 C -11.754,37.24 -44.806,137.074 -44.806,137.074 L 0,137.905 Z"
             style="fill:#b3b3b3;fill-opacity:1;fill-rule:evenodd;stroke:none"
             id="path230" /></g><g
           id="g232"
           transform="translate(216.0656,1284.5524)"><path
             d="m 0,0 c -28.804,26.376 -107.361,96.314 -107.361,96.314 l 38.389,23.115 z"
             style="fill:#b3b3b3;fill-opacity:1;fill-rule:evenodd;stroke:none"
             id="path234" /></g><g
           id="g236"
           transform="translate(216.0656,1284.5524)"><path
             d="m 0,0 c -38.136,8.446 -141.149,29.745 -141.149,29.745 l 21.686,39.207 z"
             style="fill:#b3b3b3;fill-opacity:1;fill-rule:evenodd;stroke:none"
             id="path238" /></g><g
           id="g240"
           transform="translate(216.0656,1284.5524)"><path
             d="M 0,0 C -37.25,-11.749 -137.115,-44.792 -137.115,-44.792 L -137.944,0 Z"
             style="fill:#b3b3b3;fill-opacity:1;fill-rule:evenodd;stroke:none"
             id="path242" /></g><g
           id="g244"
           transform="translate(216.0656,1284.5524)"><path
             d="m 0,0 c -26.384,-28.793 -96.341,-107.327 -96.341,-107.327 l -23.122,38.376 z"
             style="fill:#b3b3b3;fill-opacity:1;fill-rule:evenodd;stroke:none"
             id="path246" /></g><g
           id="g248"
           transform="translate(216.0656,1284.5524)"><path
             d="m 0,0 c -8.448,-38.123 -29.754,-141.105 -29.754,-141.105 l -39.218,21.678 z"
             style="fill:#b3b3b3;fill-opacity:1;fill-rule:evenodd;stroke:none"
             id="path250" /></g><g
           id="g252"
           transform="translate(216.0656,1284.5524)"><path
             d="M 0,0 C 11.752,-37.238 44.806,-137.072 44.806,-137.072 L 0,-137.903 Z"
             style="fill:#b3b3b3;fill-opacity:1;fill-rule:evenodd;stroke:none"
             id="path254" /></g><g
           id="g256"
           transform="translate(216.0656,1284.5524)"><path
             d="M 0,0 C 28.804,-26.374 107.361,-96.312 107.361,-96.312 L 68.973,-119.427 Z"
             style="fill:#b3b3b3;fill-opacity:1;fill-rule:evenodd;stroke:none"
             id="path258" /></g><g
           id="g260"
           transform="translate(216.0656,1284.5524)"><path
             d="M 0,0 C 38.136,-8.444 141.147,-29.744 141.147,-29.744 L 119.463,-68.951 Z"
             style="fill:#b3b3b3;fill-opacity:1;fill-rule:evenodd;stroke:none"
             id="path262" /></g><g
           id="g264"
           transform="translate(216.0656,1284.5524)"><path
             d="M 0,0 C 37.25,11.751 137.114,44.794 137.114,44.794 L 137.944,0 Z"
             style="fill:#b3b3b3;fill-opacity:1;fill-rule:evenodd;stroke:none"
             id="path266" /></g><g
           id="g268"
           transform="translate(216.0656,1284.5524)"><path
             d="M 0,0 C 26.383,28.795 96.341,107.329 96.341,107.329 L 119.463,68.952 Z"
             style="fill:#b3b3b3;fill-opacity:1;fill-rule:evenodd;stroke:none"
             id="path270" /></g><g
           id="g272"
           transform="translate(216.0656,1284.5524)"><path
             d="M 0,0 C 8.446,38.125 29.754,141.107 29.754,141.107 L 68.973,119.429 Z"
             style="fill:#b3b3b3;fill-opacity:1;fill-rule:evenodd;stroke:none"
             id="path274" /></g><g
           id="g276"
           transform="translate(233.6763,1284.3326)"><path
             d="m 0,0 c 0,-10.942 -8.87,-19.812 -19.812,-19.812 -10.942,0 -19.812,8.87 -19.812,19.812 0,10.942 8.87,19.812 19.812,19.812 C -8.87,19.812 0,10.942 0,0"
             style="fill:#b3b3b3;fill-opacity:1;fill-rule:nonzero;stroke:none"
             id="path278" /></g><path
           d="M 2059,560 H 0 v 80 h 2059 z"
           style="fill:#8c6239;fill-opacity:1;fill-rule:nonzero;stroke:none"
           id="path280" /><g
           id="g282"
           transform="translate(486.8003,396.2759)"><path
             d="M 0,0 111,-0.276 V 286.222 L 0,285.724 Z"
             style="fill:#8c6239;fill-opacity:1;fill-rule:nonzero;stroke:none"
             id="path284" /></g></g></g></g></svg>
