<?xml version="1.0" encoding="UTF-8" standalone="no"?>
<svg
   xmlns:dc="http://purl.org/dc/elements/1.1/"
   xmlns:cc="http://creativecommons.org/ns#"
   xmlns:rdf="http://www.w3.org/1999/02/22-rdf-syntax-ns#"
   xmlns:svg="http://www.w3.org/2000/svg"
   xmlns="http://www.w3.org/2000/svg"
   xmlns:sodipodi="http://sodipodi.sourceforge.net/DTD/sodipodi-0.dtd"
   xmlns:inkscape="http://www.inkscape.org/namespaces/inkscape"
   version="1.1"
   id="svg2"
   xml:space="preserve"
   width="2730.6667"
   height="2048"
   viewBox="0 0 2730.6667 2048"
   sodipodi:docname="Level Backgrounds.ai"><metadata
     id="metadata8"><rdf:RDF><cc:Work
         rdf:about=""><dc:format>image/svg+xml</dc:format><dc:type
           rdf:resource="http://purl.org/dc/dcmitype/StillImage" /></cc:Work></rdf:RDF></metadata><defs
     id="defs6"><clipPath
       clipPathUnits="userSpaceOnUse"
       id="clipPath20"><path
         d="M 0,2 H 2048 V 1536 H 0 Z"
         id="path18" /></clipPath></defs><sodipodi:namedview
     pagecolor="#ffffff"
     bordercolor="#666666"
     borderopacity="1"
     objecttolerance="10"
     gridtolerance="10"
     guidetolerance="10"
     inkscape:pageopacity="0"
     inkscape:pageshadow="2"
     inkscape:window-width="640"
     inkscape:window-height="480"
     id="namedview4" /><g
     id="g10"
     inkscape:groupmode="layer"
     inkscape:label="Level Backgrounds"
     transform="matrix(1.3333333,0,0,-1.3333333,0,2048)"><path
       d="M 2.497,2.5 H 2048 v 1532 H 2.497 Z"
       style="fill:#1b1464;fill-opacity:1;fill-rule:nonzero;stroke:none"
       id="path12" /><g
       id="g14"><g
         id="g16"
         clip-path="url(#clipPath20)"><g
           id="g22"
           transform="translate(1115.4113,496)"><path
             d="m 0,0 c -401.947,0 -727.79,-326.161 -727.79,-728.5 0,-402.339 325.843,-728.5 727.79,-728.5 1.167,0 2.331,0.017 3.497,0.022 V -461 -0.022 C 2.26,-0.009 1.093,0 0,0"
             style="fill:#f37521;fill-opacity:1;fill-rule:nonzero;stroke:none"
             id="path24" /></g><g
           id="g26"
           transform="translate(1152.8748,227)"><path
             d="m 0,0 c 0,-20.987 -16.997,-38 -37.963,-38 -20.966,0 -37.963,17.013 -37.963,38 0,20.987 16.997,38 37.963,38 C -16.997,38 0,20.987 0,0"
             style="fill:#ed063d;fill-opacity:1;fill-rule:nonzero;stroke:none"
             id="path28" /></g><g
           id="g30"
           transform="translate(1008.0161,435.5)"><path
             d="m 0,0 c 0,-16.292 -13.195,-29.5 -29.471,-29.5 -16.277,0 -29.472,13.208 -29.472,29.5 0,16.292 13.195,29.5 29.472,29.5 C -13.195,29.5 0,16.292 0,0"
             style="fill:#ed063d;fill-opacity:1;fill-rule:nonzero;stroke:none"
             id="path32" /></g><g
           id="g34"
           transform="translate(1002.0219,96.5)"><path
             d="m 0,0 c 0,-16.292 -13.195,-29.5 -29.471,-29.5 -16.277,0 -29.471,13.208 -29.471,29.5 0,16.292 13.194,29.5 29.471,29.5 C -13.195,29.5 0,16.292 0,0"
             style="fill:#ed063d;fill-opacity:1;fill-rule:nonzero;stroke:none"
             id="path36" /></g><g
           id="g38"
           transform="translate(1047.9771,180.5)"><path
             d="m 0,0 c 0,-16.292 -13.195,-29.5 -29.471,-29.5 -16.277,0 -29.471,13.208 -29.471,29.5 0,16.292 13.194,29.5 29.471,29.5 C -13.195,29.5 0,16.292 0,0"
             style="fill:#ed063d;fill-opacity:1;fill-rule:nonzero;stroke:none"
             id="path40" /></g><g
           id="g42"
           transform="translate(1023.0015,334)"><path
             d="m 0,0 c 0,-11.598 -9.393,-21 -20.98,-21 -11.586,0 -20.979,9.402 -20.979,21 0,11.598 9.393,21 20.979,21 C -9.393,21 0,11.598 0,0"
             style="fill:#ed063d;fill-opacity:1;fill-rule:nonzero;stroke:none"
             id="path44" /></g><g
           id="g46"
           transform="translate(973.0502,268)"><path
             d="m 0,0 c 0,-11.598 -9.393,-21 -20.98,-21 -11.586,0 -20.979,9.402 -20.979,21 0,11.598 9.393,21 20.979,21 C -9.393,21 0,11.598 0,0"
             style="fill:#ed063d;fill-opacity:1;fill-rule:nonzero;stroke:none"
             id="path48" /></g><g
           id="g50"
           transform="translate(1113.9127,427.5)"><path
             d="m 0,0 c 0,-16.845 -13.642,-30.5 -30.47,-30.5 -16.828,0 -30.471,13.655 -30.471,30.5 0,16.845 13.643,30.5 30.471,30.5 C -13.642,30.5 0,16.845 0,0"
             style="fill:#ed063d;fill-opacity:1;fill-rule:nonzero;stroke:none"
             id="path52" /></g><g
           id="g54"
           transform="translate(1071.9537,283)"><path
             d="m 0,0 c 0,-13.807 -11.182,-25 -24.976,-25 -13.793,0 -24.975,11.193 -24.975,25 0,13.807 11.182,25 24.975,25 C -11.182,25 0,13.807 0,0"
             style="fill:#ed063d;fill-opacity:1;fill-rule:nonzero;stroke:none"
             id="path56" /></g><g
           id="g58"
           transform="translate(1147.8795,113)"><path
             d="m 0,0 c 0,-13.807 -11.182,-25 -24.976,-25 -13.793,0 -24.975,11.193 -24.975,25 0,13.807 11.182,25 24.975,25 C -11.182,25 0,13.807 0,0"
             style="fill:#ed063d;fill-opacity:1;fill-rule:nonzero;stroke:none"
             id="path60" /></g><g
           id="g62"
           transform="translate(1113.9127,351)"><path
             d="m 0,0 c 0,-13.807 -11.182,-25 -24.976,-25 -13.793,0 -24.975,11.193 -24.975,25 0,13.807 11.182,25 24.975,25 C -11.182,25 0,13.807 0,0"
             style="fill:#ed063d;fill-opacity:1;fill-rule:nonzero;stroke:none"
             id="path64" /></g><g
           id="g66"
           transform="translate(1094.9313,124.5)"><path
             d="m 0,0 c 0,-14.636 -11.853,-26.5 -26.474,-26.5 -14.621,0 -26.474,11.864 -26.474,26.5 0,14.636 11.853,26.5 26.474,26.5 C -11.853,26.5 0,14.636 0,0"
             style="fill:#ed063d;fill-opacity:1;fill-rule:nonzero;stroke:none"
             id="path68" /></g><g
           id="g70"
           transform="translate(1843.2009,-232.5)"><path
             d="m 0,0 c 0,401.171 -323.956,726.591 -724.293,728.478 -30.698,-48.866 -66.413,-121.925 -71.93,-212.978 -7.066,-116.633 40.778,-174.309 63.938,-284 32.757,-155.145 -21.892,-234.25 -47.954,-400 -20.37,-129.55 -24,-316.635 55.946,-559.978 C -304.327,-646.424 0,-331.497 0,0"
             style="fill:#e31b4c;fill-opacity:1;fill-rule:nonzero;stroke:none"
             id="path72" /></g><g
           id="g74"
           transform="translate(1188.8396,11.5)"><path
             d="m 0,0 c 0,-42.25 -34.217,-76.5 -76.425,-76.5 -42.209,0 -76.426,34.25 -76.426,76.5 0,42.25 34.217,76.5 76.426,76.5 C -34.217,76.5 0,42.25 0,0"
             style="fill:#f37521;fill-opacity:1;fill-rule:nonzero;stroke:none"
             id="path76" /></g><g
           id="g78"
           transform="translate(1150.8766,243.5)"><path
             d="m 0,0 c 0,-22.368 -18.115,-40.5 -40.46,-40.5 -22.346,0 -40.461,18.132 -40.461,40.5 0,22.368 18.115,40.5 40.461,40.5 C -18.115,40.5 0,22.368 0,0"
             style="fill:#f37521;fill-opacity:1;fill-rule:nonzero;stroke:none"
             id="path80" /></g><g
           id="g82"
           transform="translate(1202.8259,383.5)"><path
             d="m 0,0 c 0,-18.502 -14.984,-33.5 -33.467,-33.5 -18.484,0 -33.468,14.998 -33.468,33.5 0,18.502 14.984,33.5 33.468,33.5 C -14.984,33.5 0,18.502 0,0"
             style="fill:#f37521;fill-opacity:1;fill-rule:nonzero;stroke:none"
             id="path84" /></g><g
           id="g86"
           transform="translate(1241.788,176)"><path
             d="m 0,0 c 0,-17.673 -14.313,-32 -31.969,-32 -17.656,0 -31.969,14.327 -31.969,32 0,17.673 14.313,32 31.969,32 C -14.313,32 0,17.673 0,0"
             style="fill:#f37521;fill-opacity:1;fill-rule:nonzero;stroke:none"
             id="path88" /></g><g
           id="g90"
           transform="translate(1135.8912,145.75)"><path
             d="m 0,0 c 0,-13.117 -10.623,-23.75 -23.727,-23.75 -13.104,0 -23.727,10.633 -23.727,23.75 0,13.117 10.623,23.75 23.727,23.75 C -10.623,23.75 0,13.117 0,0"
             style="fill:#f37521;fill-opacity:1;fill-rule:nonzero;stroke:none"
             id="path92" /></g><g
           id="g94"
           transform="translate(1215.8132,253.75)"><path
             d="m 0,0 c 0,-6.489 -5.255,-11.75 -11.739,-11.75 -6.483,0 -11.738,5.261 -11.738,11.75 0,6.489 5.255,11.75 11.738,11.75 C -5.255,11.75 0,6.489 0,0"
             style="fill:#f37521;fill-opacity:1;fill-rule:nonzero;stroke:none"
             id="path96" /></g><g
           id="g98"
           transform="translate(1159.8679,323.75)"><path
             d="m 0,0 c 0,-6.489 -5.256,-11.75 -11.739,-11.75 -6.483,0 -11.738,5.261 -11.738,11.75 0,6.489 5.255,11.75 11.738,11.75 C -5.256,11.75 0,6.489 0,0"
             style="fill:#f37521;fill-opacity:1;fill-rule:nonzero;stroke:none"
             id="path100" /></g><g
           id="g102"
           transform="translate(1132.8942,442.75)"><path
             d="m 0,0 c 0,-6.489 -5.255,-11.75 -11.739,-11.75 -6.483,0 -11.738,5.261 -11.738,11.75 0,6.489 5.255,11.75 11.738,11.75 C -5.255,11.75 0,6.489 0,0"
             style="fill:#f37521;fill-opacity:1;fill-rule:nonzero;stroke:none"
             id="path104" /></g><g
           id="g106"
           transform="translate(1036.9878,388.75)"><path
             d="m 0,0 c 0,-6.489 -5.255,-11.75 -11.739,-11.75 -6.483,0 -11.738,5.261 -11.738,11.75 0,6.489 5.255,11.75 11.738,11.75 C -5.255,11.75 0,6.489 0,0"
             style="fill:#ed063d;fill-opacity:1;fill-rule:nonzero;stroke:none"
             id="path108" /></g><g
           id="g110"
           transform="translate(944.0785,337.75)"><path
             d="m 0,0 c 0,-6.489 -5.255,-11.75 -11.739,-11.75 -6.483,0 -11.738,5.261 -11.738,11.75 0,6.489 5.255,11.75 11.738,11.75 C -5.255,11.75 0,6.489 0,0"
             style="fill:#ed063d;fill-opacity:1;fill-rule:nonzero;stroke:none"
             id="path112" /></g><g
           id="g114"
           transform="translate(979.0444,202.75)"><path
             d="m 0,0 c 0,-6.489 -5.256,-11.75 -11.739,-11.75 -6.483,0 -11.738,5.261 -11.738,11.75 0,6.489 5.255,11.75 11.738,11.75 C -5.256,11.75 0,6.489 0,0"
             style="fill:#ed063d;fill-opacity:1;fill-rule:nonzero;stroke:none"
             id="path116" /></g><g
           id="g118"
           transform="translate(1058.9663,48.75)"><path
             d="m 0,0 c 0,-6.489 -5.255,-11.75 -11.739,-11.75 -6.483,0 -11.738,5.261 -11.738,11.75 0,6.489 5.255,11.75 11.738,11.75 C -5.255,11.75 0,6.489 0,0"
             style="fill:#ed063d;fill-opacity:1;fill-rule:nonzero;stroke:none"
             id="path120" /></g><g
           id="g122"
           transform="translate(1188.5898,103.25)"><path
             d="m 0,0 c 0,-6.765 -5.479,-12.25 -12.238,-12.25 -6.759,0 -12.238,5.485 -12.238,12.25 0,6.765 5.479,12.25 12.238,12.25 C -5.479,12.25 0,6.765 0,0"
             style="fill:#f37521;fill-opacity:1;fill-rule:nonzero;stroke:none"
             id="path124" /></g><g
           id="g126"
           transform="translate(389.3657,1246.9609)"><path
             d="m 0,0 c -8.675,-35.492 -32.89,-63.092 -63.628,-77.324 -22.87,-10.599 -49.357,-13.797 -75.742,-7.335 -61.842,15.146 -99.707,77.604 -84.576,139.506 8.29,33.917 30.775,60.629 59.584,75.359 23.76,12.152 51.827,16.147 79.786,9.3 C -22.734,124.36 15.131,61.902 0,0"
             style="fill:#00aeac;fill-opacity:1;fill-rule:nonzero;stroke:none"
             id="path128" /></g><g
           id="g130"
           transform="translate(250.5207,1373.5092)"><path
             d="m 0,0 c -8.526,2.088 -17.067,3.292 -25.517,3.658 -28.809,-14.731 -51.294,-41.442 -59.584,-75.359 -15.131,-61.903 22.734,-124.36 84.576,-139.506 26.385,-6.462 52.872,-3.264 75.742,7.335 9.543,13.264 16.742,28.549 20.86,45.397 C 113.265,-88.159 70.248,-17.205 0,0"
             style="fill:#00848e;fill-opacity:1;fill-rule:nonzero;stroke:none"
             id="path132" /></g><g
           id="g134"
           transform="translate(749.5099,1010.0714)"><path
             d="m 0,0 c -5.249,-21.474 -19.9,-38.174 -38.498,-46.785 -13.838,-6.413 -29.864,-8.348 -45.828,-4.438 -37.418,9.164 -60.328,46.954 -51.173,84.408 5.016,20.522 18.621,36.684 36.051,45.597 14.377,7.352 31.359,9.769 48.275,5.626 C -13.755,75.244 9.155,37.454 0,0"
             style="fill:#c6db5b;fill-opacity:1;fill-rule:nonzero;stroke:none"
             id="path136" /></g><g
           id="g138"
           transform="translate(665.5015,1086.6396)"><path
             d="m 0,0 c -5.159,1.264 -10.327,1.992 -15.439,2.214 -17.431,-8.913 -31.036,-25.075 -36.052,-45.597 -9.155,-37.454 13.756,-75.244 51.173,-84.408 15.965,-3.91 31.991,-1.975 45.828,4.438 5.774,8.025 10.13,17.274 12.621,27.467 C 68.531,-53.341 42.504,-10.41 0,0"
             style="fill:#8ac03f;fill-opacity:1;fill-rule:nonzero;stroke:none"
             id="path140" /></g><g
           id="g142"
           transform="translate(1980.6674,941.1456)"><path
             d="m 0,0 c -11.888,-48.635 -45.07,-86.456 -87.19,-105.957 -31.339,-14.524 -67.634,-18.907 -103.79,-10.052 -84.742,20.755 -136.629,106.341 -115.895,191.166 11.36,46.477 42.172,83.08 81.648,103.266 32.559,16.651 71.02,22.126 109.331,12.743 C -31.153,170.411 20.734,84.826 0,0"
             style="fill:#a0215a;fill-opacity:1;fill-rule:nonzero;stroke:none"
             id="path144" /></g><g
           id="g146"
           transform="translate(1790.4069,1114.5557)"><path
             d="m 0,0 c -11.684,2.862 -23.388,4.51 -34.966,5.013 -39.477,-20.186 -70.288,-56.789 -81.649,-103.266 -20.734,-84.825 31.153,-170.411 115.896,-191.166 36.156,-8.855 72.451,-4.472 103.79,10.052 13.076,18.176 22.941,39.121 28.584,62.207 C 155.207,-120.805 96.261,-23.576 0,0"
             style="fill:#701d46;fill-opacity:1;fill-rule:nonzero;stroke:none"
             id="path148" /></g><g
           id="g150"
           transform="translate(580.2646,666.3106)"><path
             d="m 0,0 c 7.347,-13.658 -91.45,-81.194 -220.67,-150.846 -129.22,-69.652 -239.93,-115.045 -247.277,-101.387 -7.348,13.657 91.45,81.193 220.67,150.846 C -118.057,-31.735 -7.347,13.658 0,0"
             style="fill:#fcee21;fill-opacity:1;fill-rule:nonzero;stroke:none"
             id="path152" /></g><g
           id="g154"
           transform="translate(467.6823,580.4304)"><path
             d="m 0,0 c 10.383,-40.034 1.048,-80.552 -21.957,-111.249 -17.111,-22.85 -41.795,-40.267 -71.557,-48.002 -69.757,-18.127 -140.985,23.78 -159.095,93.605 -9.923,38.258 -1.835,76.961 18.979,107.119 17.166,24.876 42.998,43.937 74.535,52.132 C -89.338,111.733 -18.11,69.825 0,0"
             style="fill:#e2146a;fill-opacity:1;fill-rule:nonzero;stroke:none"
             id="path156" /></g><g
           id="g158"
           transform="translate(261.4464,631.9662)"><path
             d="m 0,0 c -9.618,-2.499 -18.776,-5.888 -27.394,-10.062 -20.814,-30.159 -28.902,-68.862 -18.979,-107.119 18.11,-69.826 89.338,-111.733 159.095,-93.605 29.762,7.734 54.446,25.151 71.557,48.001 2.399,18.346 1.379,37.448 -3.55,56.452 C 160.157,-27.017 79.239,20.592 0,0"
             style="fill:#b51c45;fill-opacity:1;fill-rule:nonzero;stroke:none"
             id="path160" /></g><g
           id="g162"
           transform="translate(518.5017,620.8219)"><path
             d="m 0,0 c 5.402,-10.042 -64.229,-58.077 -155.525,-107.288 -91.297,-49.21 -169.687,-80.963 -175.09,-70.92 -5.402,10.042 67.722,52.453 159.019,101.664 C -80.299,-27.333 -5.403,10.042 0,0"
             style="fill:#fcee21;fill-opacity:1;fill-rule:nonzero;stroke:none"
             id="path164" /></g><g
           id="g166"
           transform="translate(470.0132,600.3151)"><path
             d="m 0,0 -233.974,-126.117 c -6.22,-3.353 -13.978,-1.023 -17.327,5.203 v 0 c -3.35,6.226 -1.677,12.701 1.536,16.31 C -102.119,-54.106 -12.13,22.547 -12.13,22.547 -5.91,25.9 1.848,23.571 5.198,17.345 8.547,11.118 6.22,3.353 0,0"
             style="fill:#fcee21;fill-opacity:1;fill-rule:nonzero;stroke:none"
             id="path168" /></g><g
           id="g170"
           transform="translate(1570.7751,1250.5361)"><path
             d="m 0,0 c -4.874,-14.725 -121.763,10.798 -261.079,57.006 -139.315,46.208 -248.301,95.604 -243.427,110.329 4.875,14.725 121.764,-10.798 261.079,-57.006 C -104.112,64.121 4.874,14.725 0,0"
             style="fill:#c1272d;fill-opacity:1;fill-rule:nonzero;stroke:none"
             id="path172" /></g><g
           id="g174"
           transform="translate(1431.0978,1273.4943)"><path
             d="m 0,0 c -21.947,-35.045 -57.785,-56.073 -95.875,-60.41 -28.345,-3.238 -57.944,2.765 -83.997,19.113 -61.064,38.315 -79.535,118.924 -41.257,180.047 20.973,33.491 54.635,54.18 90.831,59.741 29.854,4.589 61.434,-1.121 89.041,-18.443 C 19.807,141.732 38.278,61.124 0,0"
             style="fill:#fff69a;fill-opacity:1;fill-rule:nonzero;stroke:none"
             id="path176" /></g><g
           id="g178"
           transform="translate(1326.9178,1458.9601)"><path
             d="m 0,0 c -8.419,5.283 -17.169,9.62 -26.118,13.025 -36.196,-5.561 -69.858,-26.25 -90.831,-59.74 -38.278,-61.124 -19.807,-141.733 41.257,-180.048 26.053,-16.348 55.652,-22.351 83.997,-19.113 14.972,10.852 28.144,24.71 38.562,41.346 C 90.348,-135.098 69.364,-43.524 0,0"
             style="fill:#ffd782;fill-opacity:1;fill-rule:nonzero;stroke:none"
             id="path180" /></g><g
           id="g182"
           transform="translate(1495.3284,1264.2471)"><path
             d="m 0,0 c -3.584,-10.827 -86.282,6.862 -184.712,39.509 -98.429,32.647 -175.316,67.89 -171.732,78.717 3.584,10.827 84.597,-13.265 183.027,-45.912 C -74.988,39.667 3.584,10.827 0,0"
             style="fill:#c1272d;fill-opacity:1;fill-rule:nonzero;stroke:none"
             id="path184" /></g><g
           id="g186"
           transform="translate(1447.1404,1285.4517)"><path
             d="m 0,0 -252.253,83.667 c -6.706,2.225 -10.341,9.47 -8.119,16.182 2.222,6.713 8.073,9.942 12.901,10.081 C -109.416,37.161 8.047,24.309 8.047,24.309 14.753,22.085 18.388,14.84 16.166,8.127 13.944,1.414 6.706,-2.224 0,0"
             style="fill:#c1272d;fill-opacity:1;fill-rule:nonzero;stroke:none"
             id="path188" /></g><g
           id="g190"
           transform="translate(201.803,1464)"><path
             d="m 0,0 c 0,-11.598 -9.393,-21 -20.98,-21 -11.586,0 -20.979,9.402 -20.979,21 0,11.598 9.393,21 20.979,21 C -9.393,21 0,11.598 0,0"
             style="fill:#ffffff;fill-opacity:1;fill-rule:nonzero;stroke:none"
             id="path192" /></g><g
           id="g194"
           transform="translate(148.8547,956)"><path
             d="m 0,0 c 0,-11.598 -9.393,-21 -20.98,-21 -11.586,0 -20.979,9.402 -20.979,21 0,11.598 9.393,21 20.979,21 C -9.393,21 0,11.598 0,0"
             style="fill:#ffffff;fill-opacity:1;fill-rule:nonzero;stroke:none"
             id="path196" /></g><g
           id="g198"
           transform="translate(40.96,289)"><path
             d="m 0,0 c 0,-11.598 -9.393,-21 -20.98,-21 -11.586,0 -20.979,9.402 -20.979,21 0,11.598 9.393,21 20.979,21 C -9.393,21 0,11.598 0,0"
             style="fill:#ffffff;fill-opacity:1;fill-rule:nonzero;stroke:none"
             id="path200" /></g><g
           id="g202"
           transform="translate(331.6763,140)"><path
             d="m 0,0 c 0,-11.598 -9.393,-21 -20.98,-21 -11.586,0 -20.979,9.402 -20.979,21 0,11.598 9.393,21 20.979,21 C -9.393,21 0,11.598 0,0"
             style="fill:#ffffff;fill-opacity:1;fill-rule:nonzero;stroke:none"
             id="path204" /></g><g
           id="g206"
           transform="translate(686.3301,459)"><path
             d="m 0,0 c 0,-11.598 -9.393,-21 -20.979,-21 -11.587,0 -20.98,9.402 -20.98,21 0,11.598 9.393,21 20.98,21 C -9.393,21 0,11.598 0,0"
             style="fill:#ffffff;fill-opacity:1;fill-rule:nonzero;stroke:none"
             id="path208" /></g><g
           id="g210"
           transform="translate(1020.0044,708)"><path
             d="m 0,0 c 0,-11.598 -9.393,-21 -20.98,-21 -11.586,0 -20.979,9.402 -20.979,21 0,11.598 9.393,21 20.979,21 C -9.393,21 0,11.598 0,0"
             style="fill:#ffffff;fill-opacity:1;fill-rule:nonzero;stroke:none"
             id="path212" /></g><g
           id="g214"
           transform="translate(1083.942,1215)"><path
             d="m 0,0 c 0,-11.598 -9.393,-21 -20.98,-21 -11.586,0 -20.979,9.402 -20.979,21 0,11.598 9.393,21 20.979,21 C -9.393,21 0,11.598 0,0"
             style="fill:#ffffff;fill-opacity:1;fill-rule:nonzero;stroke:none"
             id="path216" /></g><g
           id="g218"
           transform="translate(1398.6348,870)"><path
             d="m 0,0 c 0,-11.598 -9.393,-21 -20.979,-21 -11.587,0 -20.98,9.402 -20.98,21 0,11.598 9.393,21 20.98,21 C -9.393,21 0,11.598 0,0"
             style="fill:#ffffff;fill-opacity:1;fill-rule:nonzero;stroke:none"
             id="path220" /></g><g
           id="g222"
           transform="translate(635.3798,1318)"><path
             d="m 0,0 c 0,-11.598 -9.393,-21 -20.98,-21 -11.586,0 -20.979,9.402 -20.979,21 0,11.598 9.393,21 20.979,21 C -9.393,21 0,11.598 0,0"
             style="fill:#ffffff;fill-opacity:1;fill-rule:nonzero;stroke:none"
             id="path224" /></g><g
           id="g226"
           transform="translate(1871.1736,329)"><path
             d="m 0,0 c 0,-11.598 -9.393,-21 -20.979,-21 -11.587,0 -20.98,9.402 -20.98,21 0,11.598 9.393,21 20.98,21 C -9.393,21 0,11.598 0,0"
             style="fill:#ffffff;fill-opacity:1;fill-rule:nonzero;stroke:none"
             id="path228" /></g><g
           id="g230"
           transform="translate(1748.2935,586)"><path
             d="m 0,0 c 0,-11.598 -9.393,-21 -20.979,-21 -11.587,0 -20.98,9.402 -20.98,21 0,11.598 9.393,21 20.98,21 C -9.393,21 0,11.598 0,0"
             style="fill:#ffffff;fill-opacity:1;fill-rule:nonzero;stroke:none"
             id="path232" /></g><g
           id="g234"
           transform="translate(1893.1521,1363)"><path
             d="m 0,0 c 0,-11.598 -9.393,-21 -20.979,-21 -11.587,0 -20.98,9.402 -20.98,21 0,11.598 9.393,21 20.98,21 C -9.393,21 0,11.598 0,0"
             style="fill:#ffffff;fill-opacity:1;fill-rule:nonzero;stroke:none"
             id="path236" /></g></g></g></g></svg>
