<svg xmlns="http://www.w3.org/2000/svg" xmlns:xlink="http://www.w3.org/1999/xlink" viewBox="0 0 1042.95 696.83"><defs><style>.a,.c,.f,.i{fill:none;}.b{fill:#5978b9;}.c,.f{stroke:#5978b9;}.c,.f,.i{stroke-linecap:round;stroke-miterlimit:10;}.c{stroke-width:26.47px;}.d{fill:#0f2436;}.e{fill:#f7f9ec;}.f{stroke-width:25.14px;}.g{fill:#fff;}.h{fill:#143241;}.i{stroke:#fff;stroke-width:0.75px;}.j{fill:#334e5d;}.k{clip-path:url(#a);}.l{fill:#01667f;}.m{fill:#00848e;}</style><clipPath id="a"><path class="a" d="M559.67,574.65a21.05,21.05,0,0,1,21.06,21.05H538.61A21.05,21.05,0,0,1,559.67,574.65Z"/></clipPath></defs><title>hotspot</title><path class="b" d="M525.68,515.25h0c-36.62,0-76.58-10.76-76.58-56.59,0-35.17,20.71-65.25,20-83.71s-10.29-42-10-76.23,30-66.59,66.58-66.59h0c36.62,0,66.47,34.81,66.59,66.59s-11.12,62.69-10,76.23,20,46.88,20,83.71C602.27,505.49,562.3,515.25,525.68,515.25Z"/><path class="b" d="M525.68,515.25h0c-36.62,0-76.58-10.76-76.58-56.59,0-35.17,20.71-65.25,20-83.71s-10.29-42-10-76.23,30-66.59,66.58-66.59h0c36.62,0,66.47,34.81,66.59,66.59s-11.12,62.69-10,76.23,20,46.88,20,83.71C602.27,505.49,562.3,515.25,525.68,515.25Z"/><path class="b" d="M525.68,515.25h0c-36.62,0-76.58-10.76-76.58-56.59,0-35.17,20.71-65.25,20-83.71s-10.29-42-10-76.23,30-66.59,66.58-66.59h0c36.62,0,66.47,34.81,66.59,66.59s-11.12,62.69-10,76.23,20,46.88,20,83.71C602.27,505.49,562.3,515.25,525.68,515.25Z"/><path class="b" d="M525.68,515.25h0c-36.62,0-76.58-10.76-76.58-56.59,0-35.17,20.71-65.25,20-83.71s-10.29-42-10-76.23,30-66.59,66.58-66.59h0c36.62,0,66.47,34.81,66.59,66.59s-11.12,62.69-10,76.23,20,46.88,20,83.71C602.27,505.49,562.3,515.25,525.68,515.25Z"/><path class="b" d="M525.68,525.25h0c-36.62,0-76.58-20.76-76.58-66.59,0-35.17,20.71-65.25,20-83.71s-10.29-42-10-76.23,30-66.59,66.58-66.59h0c36.62,0,66.47,34.81,66.59,66.59s-11.12,62.69-10,76.23,20,46.88,20,83.71C602.27,505.49,562.3,525.25,525.68,525.25Z"/><path class="b" d="M508.5,442.89a11.13,11.13,0,0,0-11.11-11.1h0a11.13,11.13,0,0,0-11.1,11.1v98.64H508.5Z"/><path class="b" d="M569.73,442.89a11.1,11.1,0,0,0-22.2,0v98.64h22.2Z"/><path class="c" d="M495.87,248.26a48.54,48.54,0,0,0-2.87-4.59,46.38,46.38,0,0,0-60.09-13.75"/><rect class="b" x="550.01" y="196.71" width="23.27" height="68.26" rx="3.6"/><rect class="d" x="378.05" y="243.31" width="5.07" height="18.88" rx="0.78" transform="translate(345.73 708.28) rotate(-119.21)"/><rect class="d" x="392.86" y="254.57" width="5.07" height="18.88" rx="0.78" transform="translate(86.75 -97.62) rotate(15.79)"/><rect class="d" x="377.48" y="222.93" width="5.07" height="18.88" rx="0.78" transform="translate(53.01 534.83) rotate(-74.21)"/><circle class="e" cx="408.43" cy="237.18" r="24.47"/><path class="b" d="M429.79,225.24a24.48,24.48,0,0,0-23.9-12.41,24.47,24.47,0,0,1,9.48,45.71,24.19,24.19,0,0,1-9.41,3,24.46,24.46,0,0,0,23.83-36.28Z"/><path class="b" d="M392.07,249.12a24.49,24.49,0,0,1,18.82-36.29,24.47,24.47,0,1,0,.07,48.69A24.44,24.44,0,0,1,392.07,249.12Z"/><circle class="d" cx="408.43" cy="237.18" r="10.65"/><rect class="d" x="556.97" y="147.75" width="5.07" height="18.88" rx="0.78" transform="translate(-12.44 54.08) rotate(-5.47)"/><rect class="d" x="540.7" y="156.77" width="5.07" height="18.88" rx="0.78" transform="translate(1017.18 -147.01) rotate(129.53)"/><rect class="d" x="575.85" y="155.43" width="5.07" height="18.88" rx="0.78" transform="translate(237.2 -330.41) rotate(39.53)"/><circle class="e" cx="563.55" cy="188.95" r="24.47"/><path class="b" d="M539.2,191.42a24.48,24.48,0,0,1,48.7.05,24.48,24.48,0,1,0-48.71-.19C539.19,191.33,539.2,191.37,539.2,191.42Z"/><path class="b" d="M587.9,186.47a24.48,24.48,0,0,1-48.7-.05,24.48,24.48,0,1,0,48.71.19S587.9,186.52,587.9,186.47Z"/><circle class="d" cx="562.55" cy="188.95" r="10.65"/><path class="b" d="M448,428c.55-2.53-.53-4.92-2.39-5.33l-9.77-2.12c-1.86-.4-3.84,1.33-4.38,3.86h0c-.55,2.52.53,4.92,2.39,5.32l9.76,2.12C445.43,432.27,447.4,430.54,448,428Z"/><path class="f" d="M428.74,441a78.1,78.1,0,0,1,31.15-106.11"/><path class="b" d="M647.18,268.3c-2,1.59-2.75,4.12-1.57,5.63l6.14,7.87c1.18,1.51,3.8,1.44,5.84-.15h0c2-1.59,2.74-4.12,1.57-5.62L653,268.15C651.85,266.64,649.23,266.71,647.18,268.3Z"/><path class="f" d="M670.24,270.63a79.65,79.65,0,0,1-2.28,8.85,78.21,78.21,0,0,1-89.57,52.76"/><path class="d" d="M549.21,315.48a6.85,6.85,0,0,1-6.83,6.83h0a6.85,6.85,0,0,1-6.84-6.83v-5.41h-2v5.41a6.84,6.84,0,0,1-13.68,0v-5.41h-2.24v5.41a6.84,6.84,0,0,1-13.68,0v-5.41h-8.85a30.63,30.63,0,1,0,61.26,0h-7.1Z"/><path class="g" d="M503.9,315.48a6.84,6.84,0,0,0,13.68,0v-5.41H503.9Z"/><path class="g" d="M519.82,315.48a6.84,6.84,0,0,0,13.68,0v-5.41H519.82Z"/><path class="g" d="M535.54,315.48a6.85,6.85,0,0,0,6.84,6.83h0a6.85,6.85,0,0,0,6.83-6.83v-5.41H535.54Z"/><path class="e" d="M547.48,575.1a11.15,11.15,0,0,0,22.29,0V556.75H547.48Z"/><rect class="e" x="547.48" y="546.11" width="22.29" height="2.29"/><rect class="e" x="547.48" y="543.82" width="22.29" height="2.29"/><rect class="e" x="547.48" y="554.46" width="22.29" height="2.29"/><rect class="e" x="547.48" y="552.17" width="22.29" height="2.29"/><rect class="e" x="547.48" y="541.53" width="22.29" height="2.29"/><rect class="d" x="547.48" y="548.4" width="22.29" height="3.78"/><rect class="h" x="545.81" y="558.97" width="25.63" height="26.36" rx="2.58" transform="translate(1117.25 1144.29) rotate(180)"/><path class="h" d="M558.47,573.74a12.5,12.5,0,0,1,12.5,12.5H546A12.5,12.5,0,0,1,558.47,573.74Z"/><path class="i" d="M557,566.26c.69,1.14,2.6,8,2.19,8.26s-5.63-4.62-6.32-5.76a2.41,2.41,0,0,1,4.13-2.5Z"/><path class="i" d="M562.07,566.26c-.69,1.14-2.61,8-2.19,8.26s5.62-4.62,6.32-5.76a2.41,2.41,0,0,0-4.13-2.5Z"/><path class="j" d="M559.67,574.65a21.05,21.05,0,0,1,21.06,21.05H538.61A21.05,21.05,0,0,1,559.67,574.65Z"/><g class="k"><path class="i" d="M551.61,582.5c3.56-3.56,12-3.83,15.88,0"/><path class="i" d="M551.48,582.64c0-3.61,10.17-6.53,16.37-6.53"/><path class="i" d="M551.52,576.11c6.21,0,16.09,2.92,16.09,6.53"/></g><path class="i" d="M551.52,576.11c2.86-2.86,13.07-3.27,16.33,0"/><path class="e" d="M486.25,575.1a11.17,11.17,0,0,0,11.14,11.14h0a11.18,11.18,0,0,0,11.15-11.14V556.75H486.25Z"/><rect class="e" x="486.25" y="546.11" width="22.29" height="2.29"/><rect class="e" x="486.25" y="543.82" width="22.29" height="2.29"/><rect class="e" x="486.25" y="554.46" width="22.29" height="2.29"/><rect class="e" x="486.25" y="552.17" width="22.29" height="2.29"/><rect class="e" x="486.25" y="541.53" width="22.29" height="2.29"/><rect class="d" x="486.25" y="548.4" width="22.29" height="3.78"/><rect class="h" x="484.58" y="558.87" width="25.57" height="29.91" rx="2.58"/><path class="i" d="M493.36,564.76c.23,1.31-.47,8.41-.95,8.49s-3.57-6.34-3.8-7.66a2.41,2.41,0,1,1,4.75-.83Z"/><path class="i" d="M498.14,566.62c-1.06.81-5.34,6.52-5,6.9s6.92-2.26,8-3.07a2.41,2.41,0,1,0-2.93-3.83Z"/><path class="i" d="M476.68,571.69c1.63-4.08,10.61-.81,10.47,7.45"/><path class="h" d="M499.18,579.12a12.5,12.5,0,0,0-12.5,12.5h25A12.5,12.5,0,0,0,499.18,579.12Z"/><path class="j" d="M483.29,570.56a21.06,21.06,0,0,0-21.06,21.06h42.12A21.06,21.06,0,0,0,483.29,570.56Z"/><path class="i" d="M484,570.06c3.26,0,6.53,2.45,8,8.26"/><path class="i" d="M487.29,570.88c.82.81,2.45,5.71,0,8.56"/><path class="i" d="M490.56,571.21c1.63,0,4.08,4.56,1.57,7.37"/><path class="i" d="M487.15,579.14a9.12,9.12,0,0,0-4.65-8.4,7,7,0,0,0-1.75-.66,5.14,5.14,0,0,0-1.38-.14"/><path class="l" d="M596.21,419.49q-1-3.45-2-6.73H458.58q-1.17,3.3-2.29,6.73Z"/><path class="m" d="M594.2,412.76c-1.24-3.95-2.52-7.71-3.76-11.26H462.64c-1.3,3.59-2.69,7.35-4.06,11.26Z"/><path class="l" d="M590.43,401.49c-.82-2.34-1.62-4.59-2.38-6.73H465c-.73,2.17-1.53,4.42-2.37,6.73Z"/><path class="l" d="M584.2,383.49a52.83,52.83,0,0,1-1.69-6.73H469.1a40.14,40.14,0,0,1-.88,6.73Z"/><path class="m" d="M588.05,394.76c-1.49-4.18-2.83-8-3.85-11.26h-116A101.23,101.23,0,0,1,465,394.76Z"/></svg>