<svg xmlns="http://www.w3.org/2000/svg" xmlns:xlink="http://www.w3.org/1999/xlink" viewBox="0 0 1042.95 696.83"><defs><style>.a{fill:#49b56d;}.b{fill:#010101;fill-opacity:0.43;}.c{clip-path:url(#a);}.d{font-size:46.01px;fill:#c7db5e;font-family:Chewy-Regular, Chewy;}.e{fill:#c6db5b;stroke:#c6db5b;stroke-miterlimit:10;stroke-width:10px;}</style><clipPath id="a"><rect class="a" x="471.65" y="-89.25" width="97.36" height="345.38" rx="5.13" transform="translate(603.77 -436.89) rotate(90)"/></clipPath></defs><title>hotspot</title><rect class="b" x="342.42" y="29.65" width="355.82" height="107.57" rx="9.66" transform="translate(1040.66 166.88) rotate(180)"/><rect class="a" x="471.65" y="-89.25" width="97.36" height="345.38" rx="5.13" transform="translate(603.77 -436.89) rotate(90)"/><g class="c"><rect class="a" x="469.55" y="-94.01" width="99.46" height="353.73" transform="translate(602.14 -436.43) rotate(90)"/></g><text class="d" transform="translate(469.44 97.81)">SLIDE</text><path class="e" d="M436.2,85.44H372.45a2,2,0,0,1,0-4H436.2a2,2,0,0,1,0,4Z"/><path class="e" d="M399.78,102.64a2,2,0,0,0-.61-2.77L373.36,83.44,399.17,67a2,2,0,0,0,.61-2.76,2,2,0,0,0-2.76-.62L368.56,81.75a2,2,0,0,0,0,3.37L397,103.25a2,2,0,0,0,2.76-.61Z"/><path class="e" d="M670.25,85.44H606.49a2,2,0,0,1,0-4h63.76a2,2,0,0,1,0,4Z"/><path class="e" d="M633.83,102.64a2,2,0,0,0-.61-2.77L607.41,83.44,633.22,67a2,2,0,0,0-2.15-3.38L602.61,81.75a2,2,0,0,0,0,3.37l28.46,18.13a2,2,0,0,0,1.07.31A2,2,0,0,0,633.83,102.64Z"/></svg>