<svg xmlns="http://www.w3.org/2000/svg" xmlns:xlink="http://www.w3.org/1999/xlink" viewBox="0 0 1042.95 696.83"><defs><style>.a{fill:#49b56d;}.b{fill:#010101;fill-opacity:0.43;}.c{clip-path:url(#a);}.d{font-size:46.01px;fill:#c7db5e;font-family:Chewy-Regular, Chewy;}.e{fill:#c6db5b;stroke:#c6db5b;stroke-miterlimit:10;stroke-width:10px;}</style><clipPath id="a"><rect class="a" x="471.65" y="-89.25" width="97.36" height="345.38" rx="5.13" transform="translate(603.77 -436.89) rotate(90)"/></clipPath></defs><title>hotspot</title><rect class="b" x="342.42" y="29.65" width="355.82" height="107.57" rx="9.66" transform="translate(1040.66 166.88) rotate(180)"/><rect class="a" x="471.65" y="-89.25" width="97.36" height="345.38" rx="5.13" transform="translate(603.77 -436.89) rotate(90)"/><g class="c"><rect class="a" x="469.55" y="-94.01" width="99.46" height="353.73" transform="translate(602.14 -436.43) rotate(90)"/></g><text class="d" transform="translate(469.44 97.81)">SLIDE</text><path class="e" d="M603.68,81.44h63.76a2,2,0,0,1,0,4H603.68a2,2,0,0,1,0-4Z"/><path class="e" d="M640.1,64.24a2,2,0,0,0,.62,2.76l25.81,16.44L640.72,99.88a2,2,0,1,0,2.14,3.37l28.46-18.12a2,2,0,0,0,0-3.38L642.86,63.63a2,2,0,0,0-1.07-.31A2,2,0,0,0,640.1,64.24Z"/><path class="e" d="M369.64,81.44h63.75a2,2,0,0,1,0,4H369.64a2,2,0,0,1,0-4Z"/><path class="e" d="M406.06,64.24a2,2,0,0,0,.61,2.76l25.81,16.44L406.67,99.88a2,2,0,0,0,2.15,3.37l28.46-18.12a2,2,0,0,0,0-3.38L408.82,63.63a2,2,0,0,0-2.76.61Z"/></svg>