<svg xmlns="http://www.w3.org/2000/svg" xmlns:xlink="http://www.w3.org/1999/xlink" viewBox="0 0 1042.95 696.83"><defs><style>.a,.c,.h{fill:none;}.b{fill:#694b7f;}.c{stroke:#694b7f;stroke-width:20.38px;}.c,.d,.h{stroke-linecap:round;stroke-miterlimit:10;}.d{fill:#ef7431;stroke:#0f2436;stroke-width:7.26px;}.e{fill:#f7f9ec;}.f{fill:#f5b333;}.g{fill:#143241;}.h{stroke:#fff;stroke-width:0.75px;}.i{fill:#334e5d;}.j{clip-path:url(#a);}.k{fill:#0f2436;}.l{fill:#4d286e;}</style><clipPath id="a"><path class="a" d="M190.06,572.85a21.06,21.06,0,0,1,21.06,21.06H169A21.06,21.06,0,0,1,190.06,572.85Z"/></clipPath></defs><title>hotspot</title><rect class="b" x="101.31" y="389.73" width="143.45" height="143.45" rx="42.62"/><path class="b" d="M146,549.81a11.15,11.15,0,0,0,11.12,11.12h0a11.15,11.15,0,0,0,11.12-11.12V531.5H146Z"/><path class="b" d="M177.88,549.81a11.12,11.12,0,0,0,22.24,0V531.5H177.88Z"/><path class="b" d="M247.24,522c-.44-2,.42-3.93,1.91-4.25l7.79-1.69c1.49-.32,3.06,1.06,3.5,3.07h0c.43,2-.43,3.93-1.91,4.25l-7.79,1.69C249.26,525.38,247.68,524,247.24,522Z"/><path class="c" d="M262.56,532.32a62.33,62.33,0,0,0-24.84-84.64"/><path class="b" d="M98.4,522c.44-2-.42-3.93-1.91-4.25L88.71,516c-1.49-.32-3.07,1.06-3.5,3.07h0c-.44,2,.42,3.93,1.91,4.25l7.78,1.69C96.39,525.38,98,524,98.4,522Z"/><path class="c" d="M83.08,532.32a62.32,62.32,0,0,1,24.85-84.64"/><rect class="b" x="128.33" y="371.66" width="25.19" height="35.08" rx="9.79"/><rect class="b" x="194.34" y="372.19" width="25.19" height="40.99" rx="9.14"/><line class="d" x1="158.16" y1="506.09" x2="187.91" y2="506.09"/><path class="e" d="M167.07,516.78a4,4,0,0,0,4-4v-2.94h-8v2.94A4,4,0,0,0,167.07,516.78Z"/><path class="e" d="M146,573.3a11.18,11.18,0,0,0,11.14,11.15h0a11.19,11.19,0,0,0,11.15-11.15V555H146Z"/><rect class="e" x="146.03" y="548.89" width="22.29" height="2.29"/><rect class="f" x="146.03" y="551.18" width="22.29" height="3.78"/><rect class="g" x="144.36" y="557.07" width="25.57" height="29.91" rx="2.58"/><path class="h" d="M153.14,563c.23,1.32-.48,8.42-.95,8.5s-3.57-6.35-3.8-7.66a2.41,2.41,0,0,1,4.75-.84Z"/><path class="h" d="M157.92,564.82c-1.06.81-5.34,6.52-5,6.91s6.92-2.27,8-3.08a2.41,2.41,0,0,0-2.93-3.83Z"/><path class="h" d="M136.46,569.9c1.63-4.08,10.61-.82,10.47,7.44"/><path class="g" d="M159,577.33a12.5,12.5,0,0,0-12.5,12.5h25A12.5,12.5,0,0,0,159,577.33Z"/><path class="i" d="M143.07,568.77A21.06,21.06,0,0,0,122,589.83h42.11A21.05,21.05,0,0,0,143.07,568.77Z"/><path class="h" d="M143.81,568.27c3.26,0,6.53,2.45,8,8.26"/><path class="h" d="M147.07,569.08c.82.82,2.45,5.72,0,8.57"/><path class="h" d="M150.34,569.42c1.63,0,4.08,4.56,1.57,7.37"/><path class="h" d="M146.93,577.34a9.14,9.14,0,0,0-4.65-8.39,7.4,7.4,0,0,0-1.75-.67,5.55,5.55,0,0,0-1.38-.13"/><path class="e" d="M177.87,573.3a11.15,11.15,0,1,0,22.29,0V555H177.87Z"/><rect class="e" x="177.87" y="548.89" width="22.29" height="2.29"/><rect class="f" x="177.87" y="551.18" width="22.29" height="3.78"/><rect class="g" x="176.2" y="557.17" width="25.63" height="26.36" rx="2.58" transform="translate(378.03 1140.7) rotate(180)"/><path class="g" d="M188.86,572a12.5,12.5,0,0,1,12.5,12.5h-25A12.5,12.5,0,0,1,188.86,572Z"/><path class="h" d="M187.34,564.47c.69,1.14,2.6,8,2.19,8.26s-5.63-4.62-6.32-5.76a2.41,2.41,0,0,1,4.13-2.5Z"/><path class="h" d="M192.46,564.47c-.69,1.14-2.6,8-2.19,8.26s5.62-4.62,6.32-5.76a2.41,2.41,0,0,0-4.13-2.5Z"/><path class="i" d="M190.06,572.85a21.06,21.06,0,0,1,21.06,21.06H169A21.06,21.06,0,0,1,190.06,572.85Z"/><g class="j"><path class="h" d="M182,580.71c3.56-3.56,12.05-3.83,15.88,0"/><path class="h" d="M181.87,580.85c0-3.61,10.17-6.53,16.37-6.53"/><path class="h" d="M181.92,574.32c6.2,0,16.08,2.92,16.08,6.53"/></g><path class="h" d="M181.92,574.32c2.85-2.86,13.06-3.27,16.32,0"/><path class="e" d="M140.93,433.58h64.21a33.9,33.9,0,1,1-64.21,0Z"/><circle class="k" cx="182.04" cy="459.44" r="14.72"/><path class="l" d="M173,410.54a33.88,33.88,0,0,1,32.1,23H140.93A33.89,33.89,0,0,1,173,410.54Z"/></svg>