<svg xmlns="http://www.w3.org/2000/svg" xmlns:xlink="http://www.w3.org/1999/xlink" viewBox="0 0 1042.95 696.83"><defs><style>.a,.c,.h,.o,.s,.t{fill:none;}.b{fill:#694b7f;}.c{stroke:#694b7f;stroke-width:20.38px;}.c,.d,.h,.o,.s,.t{stroke-linecap:round;stroke-miterlimit:10;}.d{fill:#ef7431;stroke:#0f2436;stroke-width:7.26px;}.e{fill:#f7f9ec;}.f{fill:#f5b333;}.g{fill:#143241;}.h{stroke:#fff;stroke-width:0.75px;}.i{fill:#334e5d;}.j{clip-path:url(#a);}.k{fill:#0f2436;}.l{fill:#4d286e;}.m{fill:#742649;}.n{fill:#4bb0ac;}.o{stroke:#742649;stroke-width:19.74px;}.p{fill:#49b56d;}.q{clip-path:url(#b);}.r{fill:#5978b9;}.s,.t{stroke:#5978b9;}.s{stroke-width:26.47px;}.t{stroke-width:25.14px;}.u{fill:#fff;}.v{clip-path:url(#c);}.w{fill:#01667f;}.x{fill:#00848e;}.y{clip-path:url(#d);}.z{clip-path:url(#e);}.aa{fill:#8ac040;}.ab{fill:#c7db5e;}</style><clipPath id="a"><path class="a" d="M190.06,572.85a21.06,21.06,0,0,1,21.06,21.06H169A21.06,21.06,0,0,1,190.06,572.85Z"/></clipPath><clipPath id="b"><path class="a" d="M888.74,574.65A21.05,21.05,0,0,1,909.8,595.7H867.68A21.05,21.05,0,0,1,888.74,574.65Z"/></clipPath><clipPath id="c"><path class="a" d="M559.67,574.65a21.05,21.05,0,0,1,21.06,21.05H538.61A21.05,21.05,0,0,1,559.67,574.65Z"/></clipPath><clipPath id="d"><rect class="a" x="-1085.41" width="1042.95" height="696.83" rx="42.08" transform="translate(-1127.88 696.83) rotate(180)"/></clipPath><clipPath id="e"><rect class="a" x="-1085.41" width="1042.95" height="696.83"/></clipPath></defs><title>hotspot</title><rect class="b" x="101.31" y="389.73" width="143.45" height="143.45" rx="42.62"/><path class="b" d="M146,549.81a11.15,11.15,0,0,0,11.12,11.12h0a11.15,11.15,0,0,0,11.12-11.12V531.5H146Z"/><path class="b" d="M177.88,549.81a11.12,11.12,0,0,0,22.24,0V531.5H177.88Z"/><path class="b" d="M247.24,522c-.44-2,.42-3.93,1.91-4.25l7.79-1.69c1.49-.32,3.06,1.06,3.5,3.07h0c.43,2-.43,3.93-1.91,4.25l-7.79,1.69C249.26,525.38,247.68,524,247.24,522Z"/><path class="c" d="M262.56,532.32a62.33,62.33,0,0,0-24.84-84.64"/><path class="b" d="M98.4,522c.44-2-.42-3.93-1.91-4.25L88.71,516c-1.49-.32-3.07,1.06-3.5,3.07h0c-.44,2,.42,3.93,1.91,4.25l7.78,1.69C96.39,525.38,98,524,98.4,522Z"/><path class="c" d="M83.08,532.32a62.32,62.32,0,0,1,24.85-84.64"/><rect class="b" x="128.33" y="371.66" width="25.19" height="35.08" rx="9.79"/><rect class="b" x="194.34" y="372.19" width="25.19" height="40.99" rx="9.14"/><line class="d" x1="158.16" y1="506.09" x2="187.91" y2="506.09"/><path class="e" d="M167.07,516.78a4,4,0,0,0,4-4v-2.94h-8v2.94A4,4,0,0,0,167.07,516.78Z"/><path class="e" d="M146,573.3a11.18,11.18,0,0,0,11.14,11.15h0a11.19,11.19,0,0,0,11.15-11.15V555H146Z"/><rect class="e" x="146.03" y="548.89" width="22.29" height="2.29"/><rect class="f" x="146.03" y="551.18" width="22.29" height="3.78"/><rect class="g" x="144.36" y="557.07" width="25.57" height="29.91" rx="2.58"/><path class="h" d="M153.14,563c.23,1.32-.48,8.42-.95,8.5s-3.57-6.35-3.8-7.66a2.41,2.41,0,0,1,4.75-.84Z"/><path class="h" d="M157.92,564.82c-1.06.81-5.34,6.52-5,6.91s6.92-2.27,8-3.08a2.41,2.41,0,0,0-2.93-3.83Z"/><path class="h" d="M136.46,569.9c1.63-4.08,10.61-.82,10.47,7.44"/><path class="g" d="M159,577.33a12.5,12.5,0,0,0-12.5,12.5h25A12.5,12.5,0,0,0,159,577.33Z"/><path class="i" d="M143.07,568.77A21.06,21.06,0,0,0,122,589.83h42.11A21.05,21.05,0,0,0,143.07,568.77Z"/><path class="h" d="M143.81,568.27c3.26,0,6.53,2.45,8,8.26"/><path class="h" d="M147.07,569.08c.82.82,2.45,5.72,0,8.57"/><path class="h" d="M150.34,569.42c1.63,0,4.08,4.56,1.57,7.37"/><path class="h" d="M146.93,577.34a9.14,9.14,0,0,0-4.65-8.39,7.4,7.4,0,0,0-1.75-.67,5.55,5.55,0,0,0-1.38-.13"/><path class="e" d="M177.87,573.3a11.15,11.15,0,1,0,22.29,0V555H177.87Z"/><rect class="e" x="177.87" y="548.89" width="22.29" height="2.29"/><rect class="f" x="177.87" y="551.18" width="22.29" height="3.78"/><rect class="g" x="176.2" y="557.17" width="25.63" height="26.36" rx="2.58" transform="translate(378.03 1140.7) rotate(180)"/><path class="g" d="M188.86,572a12.5,12.5,0,0,1,12.5,12.5h-25A12.5,12.5,0,0,1,188.86,572Z"/><path class="h" d="M187.34,564.47c.69,1.14,2.6,8,2.19,8.26s-5.63-4.62-6.32-5.76a2.41,2.41,0,0,1,4.13-2.5Z"/><path class="h" d="M192.46,564.47c-.69,1.14-2.6,8-2.19,8.26s5.62-4.62,6.32-5.76a2.41,2.41,0,0,0-4.13-2.5Z"/><path class="i" d="M190.06,572.85a21.06,21.06,0,0,1,21.06,21.06H169A21.06,21.06,0,0,1,190.06,572.85Z"/><g class="j"><path class="h" d="M182,580.71c3.56-3.56,12.05-3.83,15.88,0"/><path class="h" d="M181.87,580.85c0-3.61,10.17-6.53,16.37-6.53"/><path class="h" d="M181.92,574.32c6.2,0,16.08,2.92,16.08,6.53"/></g><path class="h" d="M181.92,574.32c2.85-2.86,13.06-3.27,16.32,0"/><path class="e" d="M140.93,433.58h64.21a33.9,33.9,0,1,1-64.21,0Z"/><circle class="k" cx="172.04" cy="449.44" r="14.72"/><path class="l" d="M173,410.54a33.88,33.88,0,0,1,32.1,23H140.93A33.89,33.89,0,0,1,173,410.54Z"/><path class="m" d="M844.78,479.49v71.35a11.13,11.13,0,0,0,11.09,11.09h0A11.13,11.13,0,0,0,867,550.84V479.49Z"/><path class="m" d="M876.53,479.49v71.35a11.13,11.13,0,0,0,11.09,11.09h0a11.13,11.13,0,0,0,11.09-11.09V479.49Z"/><rect class="m" x="777.93" y="333.6" width="179.87" height="179.87" rx="89.93"/><circle class="e" cx="828.39" cy="367.01" r="31"/><circle class="k" cx="828.39" cy="367.01" r="13.48"/><circle class="e" cx="907.57" cy="365.62" r="31"/><circle class="k" cx="907.57" cy="365.62" r="13.48"/><path class="n" d="M955.1,485.76a1.75,1.75,0,0,1,1.28-2.1l4.86-1.18a1.75,1.75,0,0,1,2.1,1.28h0a1.75,1.75,0,0,1-1.28,2.1L957.2,487A1.74,1.74,0,0,1,955.1,485.76Z"/><path class="o" d="M958.68,488.7a50.29,50.29,0,0,0,2.93-4.61,46.78,46.78,0,0,0-13.52-60.68"/><path class="o" d="M779.28,488.7a50.29,50.29,0,0,1-2.93-4.61,46.78,46.78,0,0,1,13.52-60.68"/><path class="m" d="M946.47,479.81a2.9,2.9,0,0,1,2.6-3.17l8.33-.83a2.93,2.93,0,0,1,3.18,2.61h0a2.91,2.91,0,0,1-2.61,3.17l-8.33.83A2.91,2.91,0,0,1,946.47,479.81Z"/><path class="m" d="M791.49,479.81a2.9,2.9,0,0,0-2.6-3.17l-8.33-.83a2.93,2.93,0,0,0-3.18,2.61h0a2.91,2.91,0,0,0,2.61,3.17l8.32.83A2.91,2.91,0,0,0,791.49,479.81Z"/><path class="k" d="M899,421.24a7.45,7.45,0,0,1-5.38,8.18l-1.23.34a7.45,7.45,0,0,1-9.13-5.19l-1.47-5.35A31,31,0,0,0,878,420c-.85.23-1.67.5-2.48.8l5,18.16a7.46,7.46,0,0,1-5.19,9.13l-1.23.33a7.44,7.44,0,0,1-9.13-5.19l-3.47-12.63A33,33,0,1,0,899,421.24Z"/><path class="e" d="M874.06,448.45l1.23-.33a7.46,7.46,0,0,0,5.19-9.13l-5-18.16a32.69,32.69,0,0,0-14,9.8l3.47,12.63A7.44,7.44,0,0,0,874.06,448.45Z"/><path class="e" d="M892.42,429.76l1.23-.34a7.45,7.45,0,0,0,5.38-8.18,32.82,32.82,0,0,0-17.21-2l1.47,5.35A7.45,7.45,0,0,0,892.42,429.76Z"/><ellipse class="m" cx="855.87" cy="528.56" rx="14.09" ry="13.89"/><ellipse class="m" cx="887.62" cy="528.56" rx="14.09" ry="13.89"/><path class="e" d="M844.71,575.1a11.17,11.17,0,0,0,11.14,11.14h0A11.18,11.18,0,0,0,867,575.1V556.75H844.71Z"/><rect class="e" x="844.71" y="550.69" width="22.29" height="2.29"/><rect class="p" x="844.71" y="552.97" width="22.29" height="3.78"/><rect class="g" x="843.04" y="558.87" width="25.57" height="29.91" rx="2.58"/><path class="h" d="M851.82,564.76c.23,1.31-.48,8.41-1,8.49s-3.57-6.34-3.8-7.66a2.41,2.41,0,1,1,4.75-.83Z"/><path class="h" d="M856.6,566.62c-1.06.81-5.34,6.52-5.05,6.9s6.92-2.26,8-3.07a2.41,2.41,0,1,0-2.93-3.83Z"/><path class="h" d="M835.14,571.69c1.63-4.08,10.61-.81,10.47,7.45"/><path class="g" d="M857.64,579.12a12.5,12.5,0,0,0-12.5,12.5h25A12.5,12.5,0,0,0,857.64,579.12Z"/><path class="i" d="M841.75,570.56a21.06,21.06,0,0,0-21.06,21.06H862.8A21.05,21.05,0,0,0,841.75,570.56Z"/><path class="h" d="M842.49,570.06c3.26,0,6.53,2.45,8,8.26"/><path class="h" d="M845.75,570.88c.82.81,2.45,5.71,0,8.56"/><path class="h" d="M849,571.21c1.63,0,4.08,4.56,1.57,7.37"/><path class="h" d="M845.61,579.14a9.14,9.14,0,0,0-4.65-8.4,7,7,0,0,0-1.75-.66,5.14,5.14,0,0,0-1.38-.14"/><path class="e" d="M876.55,575.1a11.15,11.15,0,0,0,22.29,0V556.75H876.55Z"/><rect class="e" x="876.55" y="550.69" width="22.29" height="2.29"/><rect class="p" x="876.55" y="552.97" width="22.29" height="3.78"/><rect class="g" x="874.88" y="558.97" width="25.63" height="26.36" rx="2.58" transform="translate(1775.39 1144.29) rotate(180)"/><path class="g" d="M887.54,573.74a12.5,12.5,0,0,1,12.5,12.5H875A12.5,12.5,0,0,1,887.54,573.74Z"/><path class="h" d="M886,566.26c.69,1.14,2.6,8,2.19,8.26s-5.63-4.62-6.32-5.76a2.41,2.41,0,0,1,4.13-2.5Z"/><path class="h" d="M891.14,566.26c-.69,1.14-2.61,8-2.19,8.26s5.62-4.62,6.31-5.76a2.41,2.41,0,1,0-4.12-2.5Z"/><path class="i" d="M888.74,574.65A21.05,21.05,0,0,1,909.8,595.7H867.68A21.05,21.05,0,0,1,888.74,574.65Z"/><g class="q"><path class="h" d="M880.68,582.5c3.56-3.56,12.05-3.83,15.88,0"/><path class="h" d="M880.55,582.64c0-3.61,10.17-6.53,16.37-6.53"/><path class="h" d="M880.59,576.11c6.21,0,16.09,2.92,16.09,6.53"/></g><path class="h" d="M880.59,576.11c2.86-2.86,13.07-3.27,16.33,0"/><path class="r" d="M525.68,515.25h0c-36.62,0-76.58-10.76-76.58-56.59,0-35.17,20.71-65.25,20-83.71s-10.29-42-10-76.23,30-66.59,66.58-66.59h0c36.62,0,66.47,34.81,66.59,66.59s-11.12,62.69-10,76.23,20,46.88,20,83.71C602.27,505.49,562.3,515.25,525.68,515.25Z"/><path class="r" d="M525.68,515.25h0c-36.62,0-76.58-10.76-76.58-56.59,0-35.17,20.71-65.25,20-83.71s-10.29-42-10-76.23,30-66.59,66.58-66.59h0c36.62,0,66.47,34.81,66.59,66.59s-11.12,62.69-10,76.23,20,46.88,20,83.71C602.27,505.49,562.3,515.25,525.68,515.25Z"/><path class="r" d="M525.68,515.25h0c-36.62,0-76.58-10.76-76.58-56.59,0-35.17,20.71-65.25,20-83.71s-10.29-42-10-76.23,30-66.59,66.58-66.59h0c36.62,0,66.47,34.81,66.59,66.59s-11.12,62.69-10,76.23,20,46.88,20,83.71C602.27,505.49,562.3,515.25,525.68,515.25Z"/><path class="r" d="M525.68,515.25h0c-36.62,0-76.58-10.76-76.58-56.59,0-35.17,20.71-65.25,20-83.71s-10.29-42-10-76.23,30-66.59,66.58-66.59h0c36.62,0,66.47,34.81,66.59,66.59s-11.12,62.69-10,76.23,20,46.88,20,83.71C602.27,505.49,562.3,515.25,525.68,515.25Z"/><path class="r" d="M525.68,525.25h0c-36.62,0-76.58-20.76-76.58-66.59,0-35.17,20.71-65.25,20-83.71s-10.29-42-10-76.23,30-66.59,66.58-66.59h0c36.62,0,66.47,34.81,66.59,66.59s-11.12,62.69-10,76.23,20,46.88,20,83.71C602.27,505.49,562.3,525.25,525.68,525.25Z"/><path class="r" d="M508.5,442.89a11.13,11.13,0,0,0-11.11-11.1h0a11.13,11.13,0,0,0-11.1,11.1v98.64H508.5Z"/><path class="r" d="M569.73,442.89a11.1,11.1,0,0,0-22.2,0v98.64h22.2Z"/><path class="s" d="M495.87,248.26a48.54,48.54,0,0,0-2.87-4.59,46.38,46.38,0,0,0-60.09-13.75"/><rect class="r" x="550.01" y="196.71" width="23.27" height="68.26" rx="3.6"/><rect class="k" x="378.05" y="243.31" width="5.07" height="18.88" rx="0.78" transform="translate(345.73 708.28) rotate(-119.21)"/><rect class="k" x="392.86" y="254.57" width="5.07" height="18.88" rx="0.78" transform="translate(86.75 -97.62) rotate(15.79)"/><rect class="k" x="377.48" y="222.93" width="5.07" height="18.88" rx="0.78" transform="translate(53.01 534.83) rotate(-74.21)"/><circle class="e" cx="408.43" cy="237.18" r="24.47"/><path class="r" d="M429.79,225.24a24.48,24.48,0,0,0-23.9-12.41,24.47,24.47,0,0,1,9.48,45.71,24.19,24.19,0,0,1-9.41,3,24.46,24.46,0,0,0,23.83-36.28Z"/><path class="r" d="M392.07,249.12a24.49,24.49,0,0,1,18.82-36.29,24.47,24.47,0,1,0,.07,48.69A24.44,24.44,0,0,1,392.07,249.12Z"/><circle class="k" cx="408.43" cy="237.18" r="10.65"/><rect class="k" x="556.97" y="147.75" width="5.07" height="18.88" rx="0.78" transform="translate(-12.44 54.08) rotate(-5.47)"/><rect class="k" x="540.7" y="156.77" width="5.07" height="18.88" rx="0.78" transform="translate(1017.18 -147.01) rotate(129.53)"/><rect class="k" x="575.85" y="155.43" width="5.07" height="18.88" rx="0.78" transform="translate(237.2 -330.41) rotate(39.53)"/><circle class="e" cx="563.55" cy="188.95" r="24.47"/><path class="r" d="M539.2,191.42a24.48,24.48,0,0,1,48.7.05,24.48,24.48,0,1,0-48.71-.19C539.19,191.33,539.2,191.37,539.2,191.42Z"/><path class="r" d="M587.9,186.47a24.48,24.48,0,0,1-48.7-.05,24.48,24.48,0,1,0,48.71.19S587.9,186.52,587.9,186.47Z"/><circle class="k" cx="562.55" cy="188.95" r="10.65"/><path class="r" d="M448,428c.55-2.53-.53-4.92-2.39-5.33l-9.77-2.12c-1.86-.4-3.84,1.33-4.38,3.86h0c-.55,2.52.53,4.92,2.39,5.32l9.76,2.12C445.43,432.27,447.4,430.54,448,428Z"/><path class="t" d="M428.74,441a78.1,78.1,0,0,1,31.15-106.11"/><path class="r" d="M647.18,268.3c-2,1.59-2.75,4.12-1.57,5.63l6.14,7.87c1.18,1.51,3.8,1.44,5.84-.15h0c2-1.59,2.74-4.12,1.57-5.62L653,268.15C651.85,266.64,649.23,266.71,647.18,268.3Z"/><path class="t" d="M670.24,270.63a79.65,79.65,0,0,1-2.28,8.85,78.21,78.21,0,0,1-89.57,52.76"/><path class="k" d="M549.21,315.48a6.85,6.85,0,0,1-6.83,6.83h0a6.85,6.85,0,0,1-6.84-6.83v-5.41h-2v5.41a6.84,6.84,0,0,1-13.68,0v-5.41h-2.24v5.41a6.84,6.84,0,0,1-13.68,0v-5.41h-8.85a30.63,30.63,0,1,0,61.26,0h-7.1Z"/><path class="u" d="M503.9,315.48a6.84,6.84,0,0,0,13.68,0v-5.41H503.9Z"/><path class="u" d="M519.82,315.48a6.84,6.84,0,0,0,13.68,0v-5.41H519.82Z"/><path class="u" d="M535.54,315.48a6.85,6.85,0,0,0,6.84,6.83h0a6.85,6.85,0,0,0,6.83-6.83v-5.41H535.54Z"/><path class="e" d="M547.48,575.1a11.15,11.15,0,0,0,22.29,0V556.75H547.48Z"/><rect class="e" x="547.48" y="546.11" width="22.29" height="2.29"/><rect class="e" x="547.48" y="543.82" width="22.29" height="2.29"/><rect class="e" x="547.48" y="554.46" width="22.29" height="2.29"/><rect class="e" x="547.48" y="552.17" width="22.29" height="2.29"/><rect class="e" x="547.48" y="541.53" width="22.29" height="2.29"/><rect class="k" x="547.48" y="548.4" width="22.29" height="3.78"/><rect class="g" x="545.81" y="558.97" width="25.63" height="26.36" rx="2.58" transform="translate(1117.25 1144.29) rotate(180)"/><path class="g" d="M558.47,573.74a12.5,12.5,0,0,1,12.5,12.5H546A12.5,12.5,0,0,1,558.47,573.74Z"/><path class="h" d="M557,566.26c.69,1.14,2.6,8,2.19,8.26s-5.63-4.62-6.32-5.76a2.41,2.41,0,0,1,4.13-2.5Z"/><path class="h" d="M562.07,566.26c-.69,1.14-2.61,8-2.19,8.26s5.62-4.62,6.32-5.76a2.41,2.41,0,0,0-4.13-2.5Z"/><path class="i" d="M559.67,574.65a21.05,21.05,0,0,1,21.06,21.05H538.61A21.05,21.05,0,0,1,559.67,574.65Z"/><g class="v"><path class="h" d="M551.61,582.5c3.56-3.56,12-3.83,15.88,0"/><path class="h" d="M551.48,582.64c0-3.61,10.17-6.53,16.37-6.53"/><path class="h" d="M551.52,576.11c6.21,0,16.09,2.92,16.09,6.53"/></g><path class="h" d="M551.52,576.11c2.86-2.86,13.07-3.27,16.33,0"/><path class="e" d="M486.25,575.1a11.17,11.17,0,0,0,11.14,11.14h0a11.18,11.18,0,0,0,11.15-11.14V556.75H486.25Z"/><rect class="e" x="486.25" y="546.11" width="22.29" height="2.29"/><rect class="e" x="486.25" y="543.82" width="22.29" height="2.29"/><rect class="e" x="486.25" y="554.46" width="22.29" height="2.29"/><rect class="e" x="486.25" y="552.17" width="22.29" height="2.29"/><rect class="e" x="486.25" y="541.53" width="22.29" height="2.29"/><rect class="k" x="486.25" y="548.4" width="22.29" height="3.78"/><rect class="g" x="484.58" y="558.87" width="25.57" height="29.91" rx="2.58"/><path class="h" d="M493.36,564.76c.23,1.31-.47,8.41-.95,8.49s-3.57-6.34-3.8-7.66a2.41,2.41,0,1,1,4.75-.83Z"/><path class="h" d="M498.14,566.62c-1.06.81-5.34,6.52-5,6.9s6.92-2.26,8-3.07a2.41,2.41,0,1,0-2.93-3.83Z"/><path class="h" d="M476.68,571.69c1.63-4.08,10.61-.81,10.47,7.45"/><path class="g" d="M499.18,579.12a12.5,12.5,0,0,0-12.5,12.5h25A12.5,12.5,0,0,0,499.18,579.12Z"/><path class="i" d="M483.29,570.56a21.06,21.06,0,0,0-21.06,21.06h42.12A21.06,21.06,0,0,0,483.29,570.56Z"/><path class="h" d="M484,570.06c3.26,0,6.53,2.45,8,8.26"/><path class="h" d="M487.29,570.88c.82.81,2.45,5.71,0,8.56"/><path class="h" d="M490.56,571.21c1.63,0,4.08,4.56,1.57,7.37"/><path class="h" d="M487.15,579.14a9.12,9.12,0,0,0-4.65-8.4,7,7,0,0,0-1.75-.66,5.14,5.14,0,0,0-1.38-.14"/><path class="w" d="M596.21,419.49q-1-3.45-2-6.73H458.58q-1.17,3.3-2.29,6.73Z"/><path class="x" d="M594.2,412.76c-1.24-3.95-2.52-7.71-3.76-11.26H462.64c-1.3,3.59-2.69,7.35-4.06,11.26Z"/><path class="w" d="M590.43,401.49c-.82-2.34-1.62-4.59-2.38-6.73H465c-.73,2.17-1.53,4.42-2.37,6.73Z"/><path class="w" d="M584.2,383.49a52.83,52.83,0,0,1-1.69-6.73H469.1a40.14,40.14,0,0,1-.88,6.73Z"/><path class="x" d="M588.05,394.76c-1.49-4.18-2.83-8-3.85-11.26h-116A101.23,101.23,0,0,1,465,394.76Z"/><g class="y"><g class="z"><path class="aa" d="M5.79,273.1c5.81-9.91.86-23.66.86-23.66s-14.37,2.29-20.19,12.19-.86,23.67-.86,23.67S0,283,5.79,273.1Z"/><path class="aa" d="M18.3,299.51c4.77-10.45-1.55-23.62-1.55-23.62S2.68,279.65-2.09,290.1s1.55,23.62,1.55,23.62S13.52,310,18.3,299.51Z"/><path class="aa" d="M25.37,348.49c4.77-10.45-1.55-23.63-1.55-23.63S9.76,328.62,5,339.07,6.53,362.7,6.53,362.7,20.6,358.93,25.37,348.49Z"/><path class="aa" d="M24.83,369.41c9.29-6.71,10.26-21.3,10.26-21.3s-14.07-3.72-23.36,3S1.46,372.41,1.46,372.41,15.54,376.13,24.83,369.41Z"/><path class="aa" d="M12.51,296c7.63-11.32,2.77-28,2.77-28s-17.23,1.65-24.86,13-2.77,28-2.77,28S4.88,307.32,12.51,296Z"/><path class="aa" d="M27.85,320.84c7.63-11.86,2.25-29,2.25-29s-17.76,2.09-25.39,14-2.26,29-2.26,29S20.21,332.7,27.85,320.84Z"/><path class="aa" d="M-122.12,245.71-188.89,262l-23.53,19.91L-227,346.78-212.46,404H28.29s-8.4-40.94-10-43.7S3.2,286.76,3.2,286.76l-16.74-25.13-51.51-4Z"/><path class="ab" d="M214.66,378c-189.19,0-324.36,3.86-556.34-5.64-211.61-8.68-762.59.11-762.59.11v12.28c30.42,2.37,60.42,3.93,91.23,7.08,30.83,1.38,60.27-4.15,89.7-5.53,36.44-4.15,74.28,1.38,110.71,1.38,42,1.38,85.49,1.38,127.54,0,206-11.06,412,11.06,618.05,4.15,57.47-1.38,114.93-2.77,173.79,0,107.91,8.3,213-15.21,322.34-2.77,50.06,7.06,98.1-.89,148.42-10.23v-6.47S403.85,378,214.66,378Z"/><path class="ab" d="M564.21,377.26s3.21-24.54,10.28-27.78c-16.39-10.65-35.34,13.89-35.34,13.89s-14.78-9.69-11.57-31.33c-24.74,0-35.35,35.53-35.35,35.53s-13.17-14.53,0-55.55c-45.94-2.26-49.47,51.68-49.47,51.68s-14.14-27.14-39.85-12.28c20.57,10.34,13.5,25.84,13.5,25.84Z"/></g></g></svg>