<svg xmlns="http://www.w3.org/2000/svg" xmlns:xlink="http://www.w3.org/1999/xlink" viewBox="0 0 1042.95 696.83"><defs><style>.a,.f,.i{fill:none;}.b{fill:#742649;}.c{fill:#f7f9ec;}.d{fill:#0f2436;}.e{fill:#4bb0ac;}.f{stroke:#742649;stroke-width:19.74px;}.f,.i{stroke-linecap:round;stroke-miterlimit:10;}.g{fill:#49b56d;}.h{fill:#143241;}.i{stroke:#fff;stroke-width:0.75px;}.j{fill:#334e5d;}.k{clip-path:url(#a);}</style><clipPath id="a"><path class="a" d="M888.74,574.65A21.05,21.05,0,0,1,909.8,595.7H867.68A21.05,21.05,0,0,1,888.74,574.65Z"/></clipPath></defs><title>hotspot</title><path class="b" d="M844.78,479.49v71.35a11.13,11.13,0,0,0,11.09,11.09h0A11.13,11.13,0,0,0,867,550.84V479.49Z"/><path class="b" d="M876.53,479.49v71.35a11.13,11.13,0,0,0,11.09,11.09h0a11.13,11.13,0,0,0,11.09-11.09V479.49Z"/><rect class="b" x="777.93" y="333.6" width="179.87" height="179.87" rx="89.93"/><circle class="c" cx="828.39" cy="367.01" r="31"/><circle class="d" cx="828.39" cy="367.01" r="13.48"/><circle class="c" cx="907.57" cy="365.62" r="31"/><circle class="d" cx="907.57" cy="365.62" r="13.48"/><path class="e" d="M955.1,485.76a1.75,1.75,0,0,1,1.28-2.1l4.86-1.18a1.75,1.75,0,0,1,2.1,1.28h0a1.75,1.75,0,0,1-1.28,2.1L957.2,487A1.74,1.74,0,0,1,955.1,485.76Z"/><path class="f" d="M958.68,488.7a50.29,50.29,0,0,0,2.93-4.61,46.78,46.78,0,0,0-13.52-60.68"/><path class="f" d="M779.28,488.7a50.29,50.29,0,0,1-2.93-4.61,46.78,46.78,0,0,1,13.52-60.68"/><path class="b" d="M946.47,479.81a2.9,2.9,0,0,1,2.6-3.17l8.33-.83a2.93,2.93,0,0,1,3.18,2.61h0a2.91,2.91,0,0,1-2.61,3.17l-8.33.83A2.91,2.91,0,0,1,946.47,479.81Z"/><path class="b" d="M791.49,479.81a2.9,2.9,0,0,0-2.6-3.17l-8.33-.83a2.93,2.93,0,0,0-3.18,2.61h0a2.91,2.91,0,0,0,2.61,3.17l8.32.83A2.91,2.91,0,0,0,791.49,479.81Z"/><path class="d" d="M899,421.24a7.45,7.45,0,0,1-5.38,8.18l-1.23.34a7.45,7.45,0,0,1-9.13-5.19l-1.47-5.35A31,31,0,0,0,878,420c-.85.23-1.67.5-2.48.8l5,18.16a7.46,7.46,0,0,1-5.19,9.13l-1.23.33a7.44,7.44,0,0,1-9.13-5.19l-3.47-12.63A33,33,0,1,0,899,421.24Z"/><path class="c" d="M874.06,448.45l1.23-.33a7.46,7.46,0,0,0,5.19-9.13l-5-18.16a32.69,32.69,0,0,0-14,9.8l3.47,12.63A7.44,7.44,0,0,0,874.06,448.45Z"/><path class="c" d="M892.42,429.76l1.23-.34a7.45,7.45,0,0,0,5.38-8.18,32.82,32.82,0,0,0-17.21-2l1.47,5.35A7.45,7.45,0,0,0,892.42,429.76Z"/><ellipse class="b" cx="855.87" cy="528.56" rx="14.09" ry="13.89"/><ellipse class="b" cx="887.62" cy="528.56" rx="14.09" ry="13.89"/><path class="c" d="M844.71,575.1a11.17,11.17,0,0,0,11.14,11.14h0A11.18,11.18,0,0,0,867,575.1V556.75H844.71Z"/><rect class="c" x="844.71" y="550.69" width="22.29" height="2.29"/><rect class="g" x="844.71" y="552.97" width="22.29" height="3.78"/><rect class="h" x="843.04" y="558.87" width="25.57" height="29.91" rx="2.58"/><path class="i" d="M851.82,564.76c.23,1.31-.48,8.41-1,8.49s-3.57-6.34-3.8-7.66a2.41,2.41,0,1,1,4.75-.83Z"/><path class="i" d="M856.6,566.62c-1.06.81-5.34,6.52-5.05,6.9s6.92-2.26,8-3.07a2.41,2.41,0,1,0-2.93-3.83Z"/><path class="i" d="M835.14,571.69c1.63-4.08,10.61-.81,10.47,7.45"/><path class="h" d="M857.64,579.12a12.5,12.5,0,0,0-12.5,12.5h25A12.5,12.5,0,0,0,857.64,579.12Z"/><path class="j" d="M841.75,570.56a21.06,21.06,0,0,0-21.06,21.06H862.8A21.05,21.05,0,0,0,841.75,570.56Z"/><path class="i" d="M842.49,570.06c3.26,0,6.53,2.45,8,8.26"/><path class="i" d="M845.75,570.88c.82.81,2.45,5.71,0,8.56"/><path class="i" d="M849,571.21c1.63,0,4.08,4.56,1.57,7.37"/><path class="i" d="M845.61,579.14a9.14,9.14,0,0,0-4.65-8.4,7,7,0,0,0-1.75-.66,5.14,5.14,0,0,0-1.38-.14"/><path class="c" d="M876.55,575.1a11.15,11.15,0,0,0,22.29,0V556.75H876.55Z"/><rect class="c" x="876.55" y="550.69" width="22.29" height="2.29"/><rect class="g" x="876.55" y="552.97" width="22.29" height="3.78"/><rect class="h" x="874.88" y="558.97" width="25.63" height="26.36" rx="2.58" transform="translate(1775.39 1144.29) rotate(180)"/><path class="h" d="M887.54,573.74a12.5,12.5,0,0,1,12.5,12.5H875A12.5,12.5,0,0,1,887.54,573.74Z"/><path class="i" d="M886,566.26c.69,1.14,2.6,8,2.19,8.26s-5.63-4.62-6.32-5.76a2.41,2.41,0,0,1,4.13-2.5Z"/><path class="i" d="M891.14,566.26c-.69,1.14-2.61,8-2.19,8.26s5.62-4.62,6.31-5.76a2.41,2.41,0,1,0-4.12-2.5Z"/><path class="j" d="M888.74,574.65A21.05,21.05,0,0,1,909.8,595.7H867.68A21.05,21.05,0,0,1,888.74,574.65Z"/><g class="k"><path class="i" d="M880.68,582.5c3.56-3.56,12.05-3.83,15.88,0"/><path class="i" d="M880.55,582.64c0-3.61,10.17-6.53,16.37-6.53"/><path class="i" d="M880.59,576.11c6.21,0,16.09,2.92,16.09,6.53"/></g><path class="i" d="M880.59,576.11c2.86-2.86,13.07-3.27,16.33,0"/></svg>