<svg xmlns="http://www.w3.org/2000/svg" viewBox="0 0 1042.95 696.83"><defs><style>.a{fill:#f7f9ec;}.b{fill:#49b56d;}.c{fill:#143241;}.d{fill:none;stroke:#fff;stroke-linecap:round;stroke-miterlimit:10;stroke-width:0.75px;}.e{fill:#334e5d;}.f{fill:#742649;}</style></defs><title>hotspot_leap_legs</title><path class="a" d="M636.43,475.16a11.18,11.18,0,0,0,10.29-11.94h0a11.18,11.18,0,0,0-12-10.28l-18.29,1.36,1.66,22.23Z"/><rect class="a" x="611.26" y="454.64" width="2.29" height="22.29" transform="translate(-32.95 46.84) rotate(-4.27)"/><rect class="b" x="613.54" y="454.41" width="3.78" height="22.29" transform="translate(-32.93 47.07) rotate(-4.27)"/><rect class="c" x="621.55" y="449.22" width="25.57" height="29.91" rx="2.58" transform="translate(218.63 1131.27) rotate(-94.27)"/><path class="d" d="M625.59,468.84c1.29-.33,8.42-.15,8.54.32s-6.06,4-7.35,4.35a2.41,2.41,0,1,1-1.19-4.67Z"/><path class="d" d="M627.09,463.94c.89,1,6.9,4.83,7.26,4.51s-2.77-6.73-3.66-7.72a2.41,2.41,0,1,0-3.6,3.21Z"/><path class="d" d="M633.75,485c-4.19-1.33-1.61-10.52,6.64-11"/><path class="c" d="M639.48,462a12.5,12.5,0,0,0,13.4,11.53L651,448.57A12.51,12.51,0,0,0,639.48,462Z"/><path class="e" d="M632.13,478.45a21.07,21.07,0,0,0,22.57,19.44l-3.14-42A21.06,21.06,0,0,0,632.13,478.45Z"/><path class="d" d="M631.57,477.75c-.24-3.25,2-6.69,7.64-8.61"/><path class="d" d="M632.14,474.44c.76-.88,5.52-2.87,8.55-.62"/><path class="d" d="M632.24,471.15c-.13-1.62,4.24-4.41,7.23-2.11"/><path class="d" d="M640.39,474a9.11,9.11,0,0,0-8,5.25,7,7,0,0,0-.54,1.8,5.43,5.43,0,0,0,0,1.39"/><rect class="f" x="603.79" y="455.11" width="7.51" height="22.18" transform="translate(-32.99 46.48) rotate(-4.27)"/><path class="f" d="M591.07,456.25c-.74.05-1,5.07-.52,11.15h0c.45,6.08,1.43,11,2.17,11l11.9-.89L603,455.36Z"/><path class="f" d="M577.61,413.5c-1.41-3.06-7.1-3.45-12.63-.88h0c-5.53,2.57-8.89,7.16-7.48,10.21l22.88,49.28,20.11-9.34Z"/><ellipse class="f" cx="592.39" cy="465.78" rx="14.09" ry="13.89" transform="translate(-62.97 837.77) rotate(-67.76)"/></svg>