<svg xmlns="http://www.w3.org/2000/svg" xmlns:xlink="http://www.w3.org/1999/xlink" viewBox="0 0 1042.95 696.83"><defs><style>.a,.e{fill:none;}.b{fill:#f7f9ec;}.c{fill:#f5b333;}.d{fill:#143241;}.e{stroke:#fff;stroke-linecap:round;stroke-miterlimit:10;stroke-width:0.75px;}.f{fill:#334e5d;}.g{fill:#694b7f;}.h{clip-path:url(#a);}.i{clip-path:url(#b);}.j{fill:#c7db5e;}</style><clipPath id="a"><rect class="a" y="-765.94" width="1042.95" height="696.83" rx="42.08" transform="translate(1042.95 -835.04) rotate(180)"/></clipPath><clipPath id="b"><rect class="a" y="-765.94" width="1042.95" height="696.83"/></clipPath></defs><title>hotspot_leap_legs</title><path class="b" d="M419.58,487.28a11.18,11.18,0,0,0,2.59,15.55h0a11.18,11.18,0,0,0,15.55-2.59l10.66-14.93-18.13-12.95Z"/><rect class="b" x="441.03" y="463.69" width="2.29" height="22.29" transform="translate(-201.23 558.6) rotate(-54.46)"/><rect class="c" x="438.52" y="466.15" width="3.78" height="22.29" transform="translate(-203.97 558.2) rotate(-54.46)"/><rect class="d" x="416.59" y="477.76" width="25.57" height="29.91" rx="2.58" transform="translate(366.41 -157.8) rotate(35.54)"/><path class="e" d="M431.38,483c-.57,1.2-5.28,6.56-5.71,6.35s.78-7.23,1.36-8.43a2.41,2.41,0,1,1,4.35,2.08Z"/><path class="e" d="M434.19,487.3c-1.34,0-8.14,2.2-8.12,2.68s6.95,2.18,8.28,2.14a2.41,2.41,0,1,0-.16-4.82Z"/><path class="e" d="M413.77,479c3.71-2.37,9.12,5.51,4.2,12.14"/><path class="d" d="M427.76,498.08a12.49,12.49,0,0,0-17.43,2.9l20.34,14.53A12.49,12.49,0,0,0,427.76,498.08Z"/><path class="f" d="M419.81,481.87a21.07,21.07,0,0,0-29.38,4.9l34.27,24.48A21.07,21.07,0,0,0,419.81,481.87Z"/><path class="e" d="M420.7,481.89c2.66,1.9,3.89,5.79,1.73,11.39"/><path class="e" d="M422.89,484.46c.18,1.14-1.33,6.07-5,7"/><path class="e" d="M425.35,486.63c1.33.95.67,6.08-3,6.91"/><path class="e" d="M418,491.09a9.11,9.11,0,0,0,1.09-9.52,7.11,7.11,0,0,0-1-1.57,5.52,5.52,0,0,0-1-.91"/><rect class="g" x="441.2" y="459.75" width="7.51" height="22.18" transform="translate(-196.81 559.19) rotate(-54.46)"/><path class="g" d="M463.16,464.55c.43-.6-3.28-4-8.24-7.54h0c-5-3.55-9.38-5.95-9.81-5.35l-6.94,9.71,18.05,12.89Z"/><path class="g" d="M487.08,456.8c1.86-.67,1.68-5.91-.4-11.65h0c-2.08-5.73-5.3-9.87-7.16-9.19l-30,10.88,7.56,20.85Z"/><ellipse class="g" cx="454.99" cy="459.46" rx="13.89" ry="14.09" transform="translate(-162.27 266.83) rotate(-27.95)"/><g class="h"><g class="i"><rect class="j" x="-8" y="-386.02" width="1053.51" height="400.92"/></g></g></svg>