<svg xmlns="http://www.w3.org/2000/svg" xmlns:xlink="http://www.w3.org/1999/xlink" viewBox="0 0 1042.95 696.83"><defs><style>.a,.j,.p{fill:none;}.b{clip-path:url(#a);}.c{clip-path:url(#b);}.d{fill:#c7db5e;}.e{clip-path:url(#c);}.f{clip-path:url(#d);}.g{fill:#c3e1dc;}.h{fill:#4ab36d;}.i{fill:#8ac040;}.j{stroke:#742649;stroke-width:22.21px;}.j,.p{stroke-linecap:round;stroke-miterlimit:10;}.k{fill:#742649;}.l{fill:#f7f9ec;}.m{fill:#0f2436;}.n{fill:#49b56d;}.o{fill:#143241;}.p{stroke:#fff;stroke-width:0.75px;}.q{fill:#334e5d;}</style><clipPath id="a"><rect class="a" x="-1173.2" width="1042.95" height="696.83" rx="42.08" transform="translate(-1303.46 696.83) rotate(180)"/></clipPath><clipPath id="b"><rect class="a" x="-1173.2" width="1042.95" height="696.83"/></clipPath><clipPath id="c"><rect class="a" width="1042.95" height="696.83" rx="42.08" transform="translate(1042.95 696.83) rotate(180)"/></clipPath><clipPath id="d"><rect class="a" width="1042.95" height="696.83"/></clipPath></defs><title>hotspot_leap_legs</title><g class="b"><g class="c"><path class="d" d="M126.87,378c-189.19,0-324.36,3.86-556.34-5.64-211.61-8.68-762.59.11-762.59.11v12.28c30.41,2.37,60.42,3.93,91.23,7.08,30.83,1.38,60.26-4.15,89.7-5.53,36.43-4.15,74.27,1.38,110.71,1.38,42,1.38,85.49,1.38,127.54,0,206-11.06,412,11.06,618.05,4.15,57.46-1.38,114.93-2.77,173.79,0,107.91,8.3,213-15.21,322.34-2.77,50.06,7.06,98.1-.89,148.42-10.23v-6.47S316.06,378,126.87,378Z"/><path class="d" d="M476.42,377.26s3.21-24.54,10.28-27.78c-16.39-10.65-35.35,13.89-35.35,13.89s-14.78-9.69-11.56-31.33c-24.74,0-35.35,35.53-35.35,35.53s-13.17-14.53,0-55.55C358.5,309.76,355,363.7,355,363.7s-14.13-27.14-39.84-12.28c20.57,10.34,13.5,25.84,13.5,25.84Z"/></g></g><g class="e"><g class="f"><rect class="g" x="-3" y="-8.7" width="1049" height="477.61"/><path class="h" d="M854.53,254.63c-2.83-11,5.66-22.8,5.66-22.8s13.07,6.17,15.91,17.22-5.66,22.8-5.66,22.8S857.36,265.69,854.53,254.63Z"/><path class="h" d="M816.2,252.52c-1.81-11.26,7.71-22.18,7.71-22.18s12.46,7.34,14.28,18.6-7.71,22.19-7.71,22.19S818,263.79,816.2,252.52Z"/><path class="h" d="M890.34,244.61c-1.82-11.26,7.7-22.18,7.7-22.18s12.46,7.34,14.28,18.6-7.7,22.19-7.7,22.19S892.15,255.88,890.34,244.61Z"/><path class="h" d="M920.25,253.63c-1.82-11.26,7.7-22.18,7.7-22.18s12.46,7.34,14.28,18.6-7.71,22.19-7.71,22.19S922.06,264.9,920.25,253.63Z"/><path class="h" d="M799.17,252.21c-4.58-10.44,1.89-23.42,1.89-23.42s13.9,3.94,18.49,14.39-1.89,23.42-1.89,23.42S803.76,262.66,799.17,252.21Z"/><path class="h" d="M760.75,250.8c-1.6-11.3,8.13-22,8.13-22s12.32,7.58,13.92,18.88-8.13,22-8.13,22S762.35,262.1,760.75,250.8Z"/><path class="h" d="M778.06,256.54c-1.59-11.3,8.13-22,8.13-22s12.32,7.58,13.92,18.88-8.13,22-8.13,22S779.66,267.84,778.06,256.54Z"/><path class="h" d="M725.21,278.45c-5.77-9.83-.85-23.48-.85-23.48s14.26,2.27,20,12.1.86,23.49.86,23.49S731,288.28,725.21,278.45Z"/><path class="h" d="M712.8,304.67c-4.74-10.38,1.53-23.45,1.53-23.45s14,3.73,18.7,14.1-1.53,23.45-1.53,23.45S717.54,315,712.8,304.67Z"/><path class="h" d="M705.78,353.28c-4.74-10.37,1.53-23.45,1.53-23.45s14,3.73,18.7,14.1-1.53,23.45-1.53,23.45S710.51,363.65,705.78,353.28Z"/><path class="h" d="M750.37,262.81c-4.61-10.42,1.83-23.42,1.83-23.42s13.91,3.91,18.52,14.34-1.83,23.43-1.83,23.43S755,273.25,750.37,262.81Z"/><path class="h" d="M706.31,374.05c-9.21-6.67-10.18-21.15-10.18-21.15s14-3.69,23.19,3S729.5,377,729.5,377,715.53,380.71,706.31,374.05Z"/><path class="h" d="M738.56,269.72c-4.61-10.43,1.83-23.43,1.83-23.43s13.91,3.91,18.52,14.34-1.83,23.43-1.83,23.43S743.17,280.15,738.56,269.72Z"/><path class="h" d="M827.44,259.6c2.25-16.11,19.8-27,19.8-27s13.9,15.29,11.65,31.4-19.8,27-19.8,27S825.19,275.72,827.44,259.6Z"/><path class="h" d="M906.15,261.05c-2.65-14.21,9.08-28.34,9.08-28.34s16,8.91,18.66,23.13-9.09,28.34-9.09,28.34S908.79,275.27,906.15,261.05Z"/><path class="h" d="M869.17,266.59c-2.18-17.8,13.42-34.37,13.42-34.37s19.12,12.28,21.3,30.07-13.41,34.36-13.41,34.36S871.35,284.38,869.17,266.59Z"/><path class="h" d="M718.54,301.19c-7.57-11.24-2.75-27.81-2.75-27.81s17.1,1.64,24.68,12.88,2.75,27.8,2.75,27.8S726.12,312.42,718.54,301.19Z"/><path class="h" d="M703.32,325.84c-7.58-11.77-2.24-28.79-2.24-28.79s17.63,2.07,25.21,13.85,2.23,28.78,2.23,28.78S710.9,337.61,703.32,325.84Z"/><path class="h" d="M947,275.47c5.77-9.83.86-23.48.86-23.48s-14.27,2.28-20,12.1-.86,23.49-.86,23.49S941.2,285.3,947,275.47Z"/><path class="h" d="M959.39,301.69c4.74-10.37-1.54-23.45-1.54-23.45s-14,3.74-18.7,14.11,1.54,23.45,1.54,23.45S954.65,312.06,959.39,301.69Z"/><path class="h" d="M966.41,350.3c4.74-10.37-1.54-23.45-1.54-23.45s-14,3.74-18.7,14.11,1.54,23.45,1.54,23.45S961.67,360.67,966.41,350.3Z"/><path class="h" d="M918.27,271.71c4.61-10.43-1.83-23.42-1.83-23.42s-13.91,3.91-18.52,14.34,1.83,23.42,1.83,23.42S913.66,282.14,918.27,271.71Z"/><path class="h" d="M965.87,371.07c9.22-6.66,10.19-21.15,10.19-21.15s-14-3.68-23.19,3-10.19,21.15-10.19,21.15S956.65,377.74,965.87,371.07Z"/><path class="h" d="M933.63,272.88c4.6-10.43-1.84-23.43-1.84-23.43s-13.91,3.91-18.52,14.34,1.84,23.43,1.84,23.43S929,283.31,933.63,272.88Z"/><path class="h" d="M953.64,298.21c7.58-11.23,2.75-27.81,2.75-27.81s-17.1,1.65-24.67,12.88S929,311.09,929,311.09,946.07,309.45,953.64,298.21Z"/><path class="h" d="M968.87,322.86c7.58-11.77,2.23-28.78,2.23-28.78s-17.62,2.07-25.2,13.84-2.24,28.78-2.24,28.78S961.29,334.63,968.87,322.86Z"/><path class="h" d="M820,248.29l-66.27,16.12-23.36,19.77L715.89,348.6l14.46,56.76h239S961,364.73,959.37,362s-15-73-15-73l-16.61-24.94-51.13-4Z"/><path class="i" d="M1003.49,260.4c-2.85-11.14,5.7-23,5.7-23s13.17,6.22,16,17.35-5.71,23-5.71,23S1006.34,271.53,1003.49,260.4Z"/><path class="i" d="M956.61,246c-4.62-10.52,1.9-23.6,1.9-23.6s14,4,18.63,14.5-1.91,23.59-1.91,23.59S961.23,256.56,956.61,246Z"/><path class="i" d="M944.69,258.17c-4.62-10.52,1.91-23.6,1.91-23.6s14,4,18.62,14.5-1.9,23.59-1.9,23.59S949.31,268.69,944.69,258.17Z"/><path class="i" d="M910.21,258.29c-1.62-11.39,8.19-22.2,8.19-22.2s12.41,7.64,14,19-8.19,22.2-8.19,22.2S911.82,269.67,910.21,258.29Z"/><path class="i" d="M928.2,258.4c-1.61-11.38,8.19-22.2,8.19-22.2s12.41,7.64,14,19-8.19,22.2-8.19,22.2S929.81,269.79,928.2,258.4Z"/><path class="i" d="M867.78,276.1c-5.81-9.91-.86-23.66-.86-23.66s14.37,2.29,20.18,12.19.87,23.66.87,23.66S873.59,286,867.78,276.1Z"/><path class="i" d="M855.27,302.51c-4.77-10.45,1.55-23.62,1.55-23.62s14.06,3.76,18.84,14.21-1.55,23.62-1.55,23.62S860,313,855.27,302.51Z"/><path class="i" d="M848.2,351.48c-4.78-10.44,1.55-23.62,1.55-23.62s14.06,3.76,18.83,14.21S867,365.7,867,365.7,853,361.93,848.2,351.48Z"/><path class="i" d="M896.69,272.31c-4.64-10.51,1.85-23.61,1.85-23.61s14,3.94,18.66,14.45-1.85,23.61-1.85,23.61S901.34,282.82,896.69,272.31Z"/><path class="i" d="M848.74,372.41c-9.29-6.71-10.27-21.31-10.27-21.31s14.08-3.71,23.37,3,10.26,21.31,10.26,21.31S858,379.13,848.74,372.41Z"/><path class="i" d="M881.23,273.48c-4.65-10.51,1.84-23.6,1.84-23.6s14,3.94,18.66,14.45-1.84,23.6-1.84,23.6S885.87,284,881.23,273.48Z"/><path class="i" d="M974.06,248.82c2.27-16.24,20-27.16,20-27.16s14,15.4,11.74,31.63-20,27.17-20,27.17S971.8,265.06,974.06,248.82Z"/><path class="i" d="M1026.25,269.49c-7.64-16.35,2.13-37.13,2.13-37.13s22.13,5.72,29.77,22.07-2.12,37.13-2.12,37.13S1033.89,285.84,1026.25,269.49Z"/><path class="i" d="M861.06,299c-7.63-11.32-2.77-28-2.77-28s17.23,1.65,24.86,13,2.77,28,2.77,28S868.69,310.32,861.06,299Z"/><path class="i" d="M845.72,323.84c-7.64-11.86-2.25-29-2.25-29s17.76,2.08,25.39,14,2.25,29,2.25,29S853.36,335.7,845.72,323.84Z"/><path class="i" d="M1062.29,269.31c4.64-10.51-1.85-23.6-1.85-23.6s-14,3.94-18.66,14.44,1.85,23.61,1.85,23.61S1057.64,279.82,1062.29,269.31Z"/><path class="i" d="M963.29,245.71,896.52,262,873,281.87l-14.6,64.91L873,404H1113.7s-8.4-40.94-10-43.7-15.08-73.5-15.08-73.5l-16.73-25.13-51.52-4Z"/><path class="d" d="M643.43,220.86c-3.59-14,7.16-28.87,7.16-28.87s16.56,7.82,20.14,21.81-7.16,28.87-7.16,28.87S647,234.86,643.43,220.86Z"/><path class="d" d="M584.5,202.82c-5.8-13.22,2.39-29.66,2.39-29.66s17.61,5,23.41,18.22S607.91,221,607.91,221,590.31,216,584.5,202.82Z"/><path class="d" d="M569.52,218.07c-5.8-13.22,2.4-29.66,2.4-29.66s17.6,5,23.4,18.21-2.39,29.66-2.39,29.66S575.33,231.29,569.52,218.07Z"/><path class="d" d="M526.18,218.21c-2-14.31,10.29-27.9,10.29-27.9s15.6,9.6,17.63,23.91-10.3,27.9-10.3,27.9S528.2,232.52,526.18,218.21Z"/><path class="d" d="M548.79,218.36c-2-14.31,10.3-27.9,10.3-27.9s15.6,9.6,17.62,23.9-10.29,27.91-10.29,27.91S550.82,232.67,548.79,218.36Z"/><path class="d" d="M472.85,240.6c-7.3-12.45-1.08-29.74-1.08-29.74s18.06,2.88,25.37,15.33,1.09,29.74,1.09,29.74S480.16,253,472.85,240.6Z"/><path class="d" d="M457.13,273.8c-6-13.14,1.95-29.7,1.95-29.7s17.67,4.73,23.67,17.86-1.94,29.7-1.94,29.7S463.13,286.93,457.13,273.8Z"/><path class="d" d="M448.24,335.35c-6-13.13,1.95-29.69,1.95-29.69s17.67,4.73,23.67,17.86-1.94,29.69-1.94,29.69S454.24,348.48,448.24,335.35Z"/><path class="d" d="M509.2,235.83c-5.84-13.2,2.32-29.66,2.32-29.66s17.61,5,23.45,18.16S532.65,254,532.65,254,515,249,509.2,235.83Z"/><path class="d" d="M448.92,361.66c-11.67-8.44-12.9-26.79-12.9-26.79s17.69-4.66,29.36,3.77,12.91,26.79,12.91,26.79S460.59,370.1,448.92,361.66Z"/><path class="d" d="M489.75,237.31c-5.83-13.2,2.32-29.66,2.32-29.66s17.62,4.95,23.46,18.16-2.32,29.66-2.32,29.66S495.59,250.52,489.75,237.31Z"/><path class="d" d="M606.44,206.32c2.85-20.41,25.07-34.15,25.07-34.15s17.6,19.36,14.75,39.77-25.07,34.14-25.07,34.14S603.59,226.73,606.44,206.32Z"/><path class="d" d="M702,218.57c-3.35-18,11.51-35.9,11.51-35.9S733.75,194,737.1,212s-11.5,35.9-11.5,35.9S705.32,236.57,702,218.57Z"/><path class="d" d="M672,232.29c-9.6-20.55,2.67-46.67,2.67-46.67s27.82,7.19,37.42,27.74S709.47,260,709.47,260,681.64,252.84,672,232.29Z"/><path class="d" d="M464.41,269.39c-9.59-14.22-3.48-35.21-3.48-35.21s21.65,2.08,31.24,16.3,3.48,35.22,3.48,35.22S474,283.62,464.41,269.39Z"/><path class="d" d="M445.13,300.61c-9.6-14.91-2.84-36.46-2.84-36.46s22.33,2.63,31.92,17.54S477,318.13,477,318.13,454.72,315.51,445.13,300.61Z"/><path class="d" d="M753.67,236.83c7.31-12.45,1.09-29.74,1.09-29.74s-18.07,2.88-25.38,15.33-1.08,29.74-1.08,29.74S746.36,249.28,753.67,236.83Z"/><path class="d" d="M769.39,270c6-13.13-1.94-29.7-1.94-29.7s-17.68,4.73-23.68,17.86,2,29.7,2,29.7S763.39,283.16,769.39,270Z"/><path class="d" d="M778.29,331.58c6-13.13-1.95-29.69-1.95-29.69s-17.68,4.73-23.68,17.86,2,29.7,2,29.7S772.28,344.72,778.29,331.58Z"/><path class="d" d="M717.33,232.06c5.83-13.2-2.32-29.66-2.32-29.66s-17.62,4.95-23.45,18.16,2.32,29.67,2.32,29.67S711.49,245.27,717.33,232.06Z"/><path class="d" d="M777.6,357.89c11.68-8.44,12.9-26.78,12.9-26.78s-17.69-4.67-29.36,3.76-12.9,26.79-12.9,26.79S765.93,366.33,777.6,357.89Z"/><path class="d" d="M736.77,233.54c5.84-13.2-2.32-29.66-2.32-29.66s-17.61,5-23.45,18.16,2.32,29.66,2.32,29.66S730.94,246.75,736.77,233.54Z"/><path class="d" d="M762.12,265.62c9.59-14.22,3.48-35.21,3.48-35.21s-21.65,2.08-31.24,16.31-3.48,35.21-3.48,35.21S752.53,279.85,762.12,265.62Z"/><path class="d" d="M781.4,296.84c9.6-14.91,2.83-36.45,2.83-36.45s-22.32,2.62-31.92,17.53-2.83,36.45-2.83,36.45S771.8,311.74,781.4,296.84Z"/><path class="d" d="M592.9,202.4,509,222.82l-29.58,25-18.35,81.58,18.31,71.87H719.43s52-51.46,49.94-54.93-19-92.39-19-92.39l-21-31.57-64.75-5.09Z"/><path class="h" d="M183.48,193.75c-3.58-14,7.17-28.87,7.17-28.87s16.56,7.81,20.14,21.81-7.17,28.87-7.17,28.87S187.06,207.75,183.48,193.75Z"/><path class="h" d="M124.56,175.71c-5.81-13.22,2.39-29.66,2.39-29.66s17.6,5,23.41,18.22S148,193.93,148,193.93,130.36,188.93,124.56,175.71Z"/><path class="h" d="M109.58,191c-5.8-13.22,2.39-29.66,2.39-29.66s17.6,5,23.41,18.21S133,209.17,133,209.17,115.38,204.18,109.58,191Z"/><path class="h" d="M66.23,191.1c-2-14.31,10.3-27.9,10.3-27.9s15.6,9.6,17.62,23.91S83.86,215,83.86,215,68.26,205.41,66.23,191.1Z"/><path class="h" d="M88.85,191.25c-2-14.31,10.3-27.9,10.3-27.9s15.59,9.6,17.62,23.9-10.29,27.91-10.29,27.91S90.87,205.56,88.85,191.25Z"/><path class="h" d="M12.91,213.49C5.6,201,11.82,183.75,11.82,183.75s18.07,2.88,25.38,15.33,1.08,29.74,1.08,29.74S20.22,225.93,12.91,213.49Z"/><path class="h" d="M-2.81,246.68C-8.81,233.55-.87,217-.87,217s17.68,4.73,23.68,17.86-1.94,29.7-1.94,29.7S3.19,259.82-2.81,246.68Z"/><path class="h" d="M-11.71,308.24c-6-13.13,2-29.69,2-29.69s17.68,4.73,23.68,17.86S12,326.1,12,326.1-5.7,321.37-11.71,308.24Z"/><path class="h" d="M49.25,208.72c-5.83-13.21,2.32-29.66,2.32-29.66S69.19,184,75,197.22s-2.31,29.66-2.31,29.66S55.09,221.93,49.25,208.72Z"/><path class="h" d="M-11,334.55c-11.68-8.44-12.9-26.79-12.9-26.79s17.69-4.66,29.36,3.77,12.9,26.79,12.9,26.79S.65,343-11,334.55Z"/><path class="h" d="M29.81,210.2C24,197,32.13,180.54,32.13,180.54s17.62,5,23.45,18.16-2.32,29.66-2.32,29.66S35.64,223.41,29.81,210.2Z"/><path class="h" d="M146.5,179.21c2.85-20.41,25.07-34.15,25.07-34.15s17.6,19.36,14.75,39.76S161.25,219,161.25,219,143.65,199.61,146.5,179.21Z"/><path class="h" d="M242,191.46c-3.35-18,11.5-35.9,11.5-35.9s20.28,11.29,23.63,29.29-11.5,35.9-11.5,35.9S245.38,209.46,242,191.46Z"/><path class="h" d="M212.1,205.18c-9.61-20.55,2.66-46.67,2.66-46.67s27.83,7.19,37.43,27.74-2.66,46.67-2.66,46.67S221.7,225.73,212.1,205.18Z"/><path class="h" d="M4.46,242.28C-5.13,228.05,1,207.07,1,207.07s21.65,2.08,31.24,16.3,3.49,35.22,3.49,35.22S14.05,256.51,4.46,242.28Z"/><path class="h" d="M-14.82,273.5c-9.6-14.91-2.83-36.46-2.83-36.46s22.32,2.63,31.92,17.53S17.1,291,17.1,291-5.22,288.4-14.82,273.5Z"/><path class="h" d="M293.73,209.72c7.3-12.45,1.08-29.74,1.08-29.74s-18.06,2.88-25.37,15.33-1.09,29.74-1.09,29.74S286.42,222.16,293.73,209.72Z"/><path class="h" d="M309.45,242.92c6-13.14-1.95-29.7-1.95-29.7s-17.67,4.73-23.67,17.86,1.94,29.7,1.94,29.7S303.45,256.05,309.45,242.92Z"/><path class="h" d="M318.34,304.47c6-13.13-1.95-29.69-1.95-29.69s-17.67,4.73-23.67,17.86,1.94,29.69,1.94,29.69S312.34,317.61,318.34,304.47Z"/><path class="h" d="M257.38,205c5.84-13.21-2.31-29.66-2.31-29.66s-17.62,5-23.46,18.16,2.32,29.66,2.32,29.66S251.55,218.16,257.38,205Z"/><path class="h" d="M317.66,330.78c11.67-8.44,12.9-26.78,12.9-26.78s-17.69-4.67-29.36,3.76-12.91,26.79-12.91,26.79S306,339.22,317.66,330.78Z"/><path class="h" d="M276.83,206.43c5.83-13.2-2.32-29.66-2.32-29.66s-17.62,4.95-23.45,18.16,2.31,29.66,2.31,29.66S271,219.64,276.83,206.43Z"/><path class="h" d="M302.17,238.51c9.6-14.22,3.49-35.21,3.49-35.21s-21.66,2.08-31.25,16.31-3.48,35.21-3.48,35.21S292.58,252.74,302.17,238.51Z"/><path class="h" d="M321.46,269.73c9.59-14.91,2.83-36.46,2.83-36.46S302,235.9,292.37,250.8s-2.83,36.45-2.83,36.45S311.86,284.63,321.46,269.73Z"/><path class="h" d="M133,175.29,49,195.71l-29.57,25L1.11,302.33,19.42,374.2H322s-10.56-51.46-12.58-54.93-19-92.39-19-92.39l-21-31.57-64.75-5.09Z"/><path class="i" d="M418.66,253.49c-2.85-11.13,5.7-23,5.7-23s13.18,6.22,16,17.35-5.71,23-5.71,23S421.51,264.63,418.66,253.49Z"/><path class="i" d="M371.78,239.14c-4.62-10.52,1.9-23.6,1.9-23.6s14,4,18.63,14.49-1.91,23.6-1.91,23.6S376.4,249.66,371.78,239.14Z"/><path class="i" d="M359.86,251.27c-4.61-10.52,1.91-23.6,1.91-23.6s14,4,18.62,14.49-1.9,23.6-1.9,23.6S364.48,261.79,359.86,251.27Z"/><path class="i" d="M325.38,251.38c-1.61-11.38,8.19-22.2,8.19-22.2s12.41,7.64,14,19-8.19,22.19-8.19,22.19S327,262.77,325.38,251.38Z"/><path class="i" d="M343.37,251.5c-1.61-11.39,8.19-22.2,8.19-22.2s12.41,7.64,14,19-8.19,22.2-8.19,22.2S345,262.88,343.37,251.5Z"/><path class="i" d="M283,269.19c-5.81-9.9-.86-23.66-.86-23.66s14.37,2.3,20.18,12.2.87,23.66.87,23.66S288.76,279.09,283,269.19Z"/><path class="i" d="M270.44,295.6C265.67,285.16,272,272,272,272s14.06,3.76,18.84,14.21-1.55,23.63-1.55,23.63S275.21,306.05,270.44,295.6Z"/><path class="i" d="M263.37,344.58c-4.78-10.45,1.55-23.62,1.55-23.62s14.06,3.76,18.83,14.21-1.54,23.62-1.54,23.62S268.14,355,263.37,344.58Z"/><path class="i" d="M311.87,265.4c-4.65-10.51,1.84-23.6,1.84-23.6s14,3.94,18.66,14.45-1.85,23.6-1.85,23.6S316.51,275.91,311.87,265.4Z"/><path class="i" d="M263.91,365.51c-9.29-6.71-10.26-21.31-10.26-21.31s14.07-3.71,23.36,3,10.26,21.31,10.26,21.31S273.2,372.22,263.91,365.51Z"/><path class="i" d="M296.4,266.58c-4.65-10.51,1.84-23.6,1.84-23.6s14,3.94,18.66,14.44S315.06,281,315.06,281,301,277.09,296.4,266.58Z"/><path class="i" d="M389.23,241.92c2.27-16.24,19.95-27.17,19.95-27.17s14,15.4,11.74,31.64S401,273.55,401,273.55,387,258.16,389.23,241.92Z"/><path class="i" d="M465.24,251.66c-2.66-14.32,9.15-28.56,9.15-28.56s16.13,9,18.8,23.31S484,275,484,275,467.91,266,465.24,251.66Z"/><path class="i" d="M441.43,262.58c-7.65-16.34,2.12-37.13,2.12-37.13s22.13,5.72,29.77,22.07-2.12,37.13-2.12,37.13S449.06,278.93,441.43,262.58Z"/><path class="i" d="M276.23,292.1c-7.63-11.32-2.77-28-2.77-28s17.23,1.66,24.86,13,2.77,28,2.77,28S283.86,303.42,276.23,292.1Z"/><path class="i" d="M260.89,316.94c-7.64-11.86-2.25-29-2.25-29S276.4,290,284,301.88s2.25,29,2.25,29S268.53,328.8,260.89,316.94Z"/><path class="i" d="M506.37,266.19c5.82-9.9.87-23.66.87-23.66s-14.38,2.3-20.19,12.2-.87,23.66-.87,23.66S500.56,276.1,506.37,266.19Z"/><path class="i" d="M518.88,292.61c4.78-10.45-1.55-23.63-1.55-23.63s-14.06,3.77-18.84,14.21S500,306.82,500,306.82,514.11,303.06,518.88,292.61Z"/><path class="i" d="M526,341.58c4.77-10.45-1.55-23.62-1.55-23.62s-14.07,3.76-18.84,14.21,1.55,23.62,1.55,23.62S521.18,352,526,341.58Z"/><path class="i" d="M477.46,262.4c4.64-10.51-1.85-23.6-1.85-23.6s-14,3.94-18.66,14.45,1.85,23.6,1.85,23.6S472.82,272.91,477.46,262.4Z"/><path class="i" d="M525.41,362.51c9.29-6.71,10.27-21.31,10.27-21.31s-14.08-3.71-23.37,3-10.26,21.31-10.26,21.31S516.13,369.22,525.41,362.51Z"/><path class="i" d="M492.93,263.58c4.64-10.51-1.85-23.6-1.85-23.6s-14,3.94-18.66,14.44S474.27,278,474.27,278,488.28,274.09,492.93,263.58Z"/><path class="i" d="M513.09,289.1c7.63-11.32,2.77-28,2.77-28s-17.22,1.65-24.85,13-2.77,28-2.77,28S505.46,300.42,513.09,289.1Z"/><path class="i" d="M528.43,313.94c7.64-11.86,2.26-29,2.26-29s-17.77,2.09-25.4,13.95-2.25,29-2.25,29S520.8,325.8,528.43,313.94Z"/><path class="i" d="M378.46,238.8l-66.77,16.25L288.16,275l-14.6,64.9,14.57,57.18H528.88s-8.4-40.93-10-43.7-15.08-73.5-15.08-73.5l-16.73-25.12-51.52-4Z"/><path class="d" d="M1300.08,378c-189.19,0-324.37,3.86-556.34-5.64-211.62-8.68-762.6.11-762.6.11v12.28c30.42,2.37,60.43,3.93,91.24,7.08,30.83,1.38,60.26-4.15,89.69-5.53,36.44-4.15,74.28,1.38,110.72,1.38,42,1.38,85.49,1.38,127.53,0,206-11.06,412,11.06,618.06,4.15,57.46-1.38,114.92-2.77,173.78,0,107.92,8.3,213-15.21,322.34-2.77,50.07,7.06,98.1-.89,148.42-10.23v-6.47S1489.27,378,1300.08,378Z"/><path class="d" d="M364.63,372.17c-1.1-1.1,6.91-12.45-17.85-24.53,29.86-12.08,42.25,18.3,42.61,17.21s13.73-63,68.83-63c-23.29,27.19-4.37,59.67-3.28,59.3s21.48-37.82,45.52-28.61c-18.1,13.39-12.38,39.6-12.38,39.6Z"/><path class="d" d="M777.16,377.83c-.86-.86,5.42-9.75-14-19.21,23.39-9.47,33.09,14.34,33.38,13.48s23.39-43.6,53.92-49.33c-7.7,18.64-3.42,46.74-2.57,46.46s16.83-29.64,35.66-22.42c-8.56,10.66-9.7,31-9.7,31Z"/><path class="d" d="M158.28,372.29s3.61-27.59,11.56-31.22c-18.42-12-39.74,15.61-39.74,15.61s-16.61-10.89-13-35.22c-27.81,0-39.73,39.94-39.73,39.94s-14.81-16.34,0-62.45C25.72,296.41,21.74,357,21.74,357S5.85,326.54-23,343.25c23.12,11.62,15.17,29,15.17,29Z"/><path class="d" d="M820.58,376.24s2.82-21.58,9-24.42C815.21,342.45,798.55,364,798.55,364s-13-8.52-10.17-27.54c-21.75,0-31.07,31.23-31.07,31.23s-11.58-12.77,0-48.83c-40.4-2-43.5,45.43-43.5,45.43s-12.43-23.86-35-10.79c18.08,9.08,11.87,22.71,11.87,22.71Z"/><rect class="d" x="-8" y="379.91" width="1053.51" height="400.92"/><rect class="a" x="181.16" y="-3.81" width="340.45" height="540.47" rx="12"/></g></g><ellipse class="i" cx="517.93" cy="575.16" rx="156.34" ry="69.03"/><path class="j" d="M653.28,404.09A53.41,53.41,0,0,0,654,398a52.63,52.63,0,0,0-43.22-55"/><path class="k" d="M636.58,401a3.28,3.28,0,0,1,1.1-4.49l8.05-4.88a3.26,3.26,0,0,1,4.48,1.1h0a3.28,3.28,0,0,1-1.09,4.49l-8,4.88A3.27,3.27,0,0,1,636.58,401Z"/><path class="j" d="M390.78,410.43a52.52,52.52,0,0,1,47.15-57.56"/><path class="k" d="M407.67,408.68a3.29,3.29,0,0,0-.74-4.57l-7.64-5.5a3.28,3.28,0,0,0-4.56.74h0a3.29,3.29,0,0,0,.74,4.57l7.64,5.5A3.28,3.28,0,0,0,407.67,408.68Z"/><rect class="k" x="420.44" y="237.92" width="202.36" height="202.36" rx="101.18" transform="translate(6.1 -9.21) rotate(1.02)"/><circle class="l" cx="478.35" cy="274.73" r="34.87"/><circle class="m" cx="488.35" cy="274.73" r="15.17"/><circle class="l" cx="567.44" cy="274.75" r="34.87"/><circle class="m" cx="577.44" cy="274.75" r="15.17"/><path class="m" d="M556.72,337.14a8.37,8.37,0,0,1-6.22,9.09l-1.39.36a8.37,8.37,0,0,1-10.16-6l-1.54-6.05a37.05,37.05,0,0,0-4.35.84c-1,.24-1.89.53-2.81.85l5.25,20.53a8.37,8.37,0,0,1-6,10.16l-1.39.35a8.37,8.37,0,0,1-10.16-6L514.27,347a37.08,37.08,0,1,0,42.45-9.81Z"/><path class="l" d="M528.09,367.25l1.39-.35a8.37,8.37,0,0,0,6-10.16l-5.25-20.53a36.87,36.87,0,0,0-16,10.74l3.66,14.28A8.37,8.37,0,0,0,528.09,367.25Z"/><path class="l" d="M549.11,346.59l1.39-.36a8.37,8.37,0,0,0,6.22-9.09,37,37,0,0,0-19.31-2.62l1.54,6.05A8.37,8.37,0,0,0,549.11,346.59Z"/><path class="l" d="M413.79,475.16a11.17,11.17,0,0,1-10.28-11.94h0a11.17,11.17,0,0,1,11.94-10.28l18.3,1.36-1.66,22.23Z"/><rect class="l" x="426.68" y="464.64" width="22.29" height="2.29" transform="translate(-59.23 867.75) rotate(-85.73)"/><rect class="n" x="423.66" y="463.67" width="22.29" height="3.78" transform="translate(-61.81 864.52) rotate(-85.73)"/><rect class="o" x="403.11" y="449.22" width="25.57" height="29.91" rx="2.58" transform="translate(-77.93 844.39) rotate(-85.73)"/><path class="p" d="M424.64,468.84c-1.3-.33-8.43-.15-8.55.32s6.07,4,7.36,4.35a2.41,2.41,0,1,0,1.19-4.67Z"/><path class="p" d="M423.14,463.94c-.89,1-6.9,4.83-7.26,4.51s2.77-6.73,3.66-7.72a2.41,2.41,0,1,1,3.6,3.21Z"/><path class="p" d="M416.48,485c4.19-1.33,1.6-10.52-6.65-11"/><path class="o" d="M410.74,462a12.49,12.49,0,0,1-13.39,11.53l1.86-24.93A12.5,12.5,0,0,1,410.74,462Z"/><path class="q" d="M418.09,478.45a21.06,21.06,0,0,1-22.56,19.44l3.13-42A21,21,0,0,1,418.09,478.45Z"/><path class="p" d="M418.65,477.75c.25-3.25-1.95-6.69-7.64-8.61"/><path class="p" d="M418.08,474.44c-.75-.88-5.52-2.87-8.54-.62"/><path class="p" d="M418,471.15c.12-1.62-4.25-4.41-7.24-2.11"/><path class="p" d="M409.83,474a9.13,9.13,0,0,1,8,5.25,7.35,7.35,0,0,1,.53,1.8,4.66,4.66,0,0,1,0,1.39"/><rect class="k" x="431.59" y="462.44" width="22.18" height="7.51" transform="translate(-55.16 872.97) rotate(-85.73)"/><path class="k" d="M459.16,456.25c.74.05,1,5.07.52,11.15h0c-.46,6.08-1.43,11-2.17,11l-11.91-.89,1.65-22.11Z"/><path class="k" d="M472.61,413.5c1.42-3.06,7.1-3.45,12.63-.88h0c5.53,2.57,8.9,7.16,7.48,10.21l-22.87,49.28-20.12-9.34Z"/><ellipse class="k" cx="457.84" cy="465.78" rx="13.89" ry="14.09" transform="translate(-142.24 207.97) rotate(-22.24)"/><path class="l" d="M655.83,462.85a11.18,11.18,0,0,1-.67,15.74h0a11.17,11.17,0,0,1-15.75-.67L627,464.4l16.42-15.07Z"/><rect class="l" x="620.74" y="452.1" width="22.29" height="2.29" transform="translate(-140.11 546.69) rotate(-42.55)"/><rect class="n" x="622.79" y="453.59" width="22.29" height="3.78" transform="translate(-141.08 548.67) rotate(-42.55)"/><rect class="o" x="633.99" y="454.47" width="25.57" height="29.91" rx="2.58" transform="translate(1440.68 377.83) rotate(137.45)"/><path class="p" d="M643.6,460c.71,1.12,6,5.87,6.44,5.61s-1.66-7.08-2.38-8.21a2.41,2.41,0,1,0-4.06,2.6Z"/><path class="p" d="M641.33,464.64c1.33-.12,8.34,1.19,8.39,1.68s-6.63,3-8,3.13a2.41,2.41,0,0,1-.43-4.81Z"/><path class="p" d="M660.58,453.87c-4-1.91-8.38,6.57-2.68,12.56"/><path class="o" d="M649,474.56a12.51,12.51,0,0,1,17.67.75l-18.42,16.91A12.5,12.5,0,0,1,649,474.56Z"/><path class="q" d="M654.94,457.51a21.06,21.06,0,0,1,29.76,1.27l-31,28.48A21.06,21.06,0,0,1,654.94,457.51Z"/><path class="p" d="M654.06,457.63c-2.41,2.21-3.16,6.23-.32,11.51"/><path class="p" d="M652.2,460.44c0,1.16,2.07,5.87,5.81,6.3"/><path class="p" d="M650,462.9c-1.21,1.1.07,6.12,3.83,6.49"/><path class="p" d="M657.9,466.43a9.12,9.12,0,0,1-2.26-9.32,7.33,7.33,0,0,1,.84-1.68,5.16,5.16,0,0,1,.93-1"/><rect class="k" x="617.55" y="445.86" width="22.18" height="7.51" transform="translate(-138.51 543.54) rotate(-42.55)"/><path class="k" d="M609.8,445.6c-.5-.55,2.77-4.37,7.26-8.49h0c4.49-4.12,8.58-7.05,9.08-6.51l8.07,8.8-16.33,15Z"/><path class="k" d="M562.7,435c-3.23-1-4.44-6.53-2.7-12.38h0c1.74-5.84,5.8-9.84,9-8.88l52.06,15.51-6.32,21.25Z"/><ellipse class="k" cx="617.29" cy="439.55" rx="14.09" ry="13.89" transform="translate(-13.83 859.01) rotate(-69.06)"/></svg>