<svg xmlns="http://www.w3.org/2000/svg" viewBox="0 0 1042.95 696.83"><defs><style>.a{fill:#f7f9ec;}.b{fill:#49b56d;}.c{fill:#143241;}.d{fill:none;stroke:#fff;stroke-linecap:round;stroke-miterlimit:10;stroke-width:0.75px;}.e{fill:#334e5d;}.f{fill:#742649;}</style></defs><title>hotspot_leap_legs</title><path class="a" d="M413.79,475.16a11.17,11.17,0,0,1-10.28-11.94h0a11.17,11.17,0,0,1,11.94-10.28l18.3,1.36-1.66,22.23Z"/><rect class="a" x="426.68" y="464.64" width="22.29" height="2.29" transform="translate(-59.23 867.75) rotate(-85.73)"/><rect class="b" x="423.66" y="463.67" width="22.29" height="3.78" transform="translate(-61.81 864.52) rotate(-85.73)"/><rect class="c" x="403.11" y="449.22" width="25.57" height="29.91" rx="2.58" transform="translate(-77.93 844.39) rotate(-85.73)"/><path class="d" d="M424.64,468.84c-1.3-.33-8.43-.15-8.55.32s6.07,4,7.36,4.35a2.41,2.41,0,1,0,1.19-4.67Z"/><path class="d" d="M423.14,463.94c-.89,1-6.9,4.83-7.26,4.51s2.77-6.73,3.66-7.72a2.41,2.41,0,1,1,3.6,3.21Z"/><path class="d" d="M416.48,485c4.19-1.33,1.6-10.52-6.65-11"/><path class="c" d="M410.74,462a12.49,12.49,0,0,1-13.39,11.53l1.86-24.93A12.5,12.5,0,0,1,410.74,462Z"/><path class="e" d="M418.09,478.45a21.06,21.06,0,0,1-22.56,19.44l3.13-42A21,21,0,0,1,418.09,478.45Z"/><path class="d" d="M418.65,477.75c.25-3.25-1.95-6.69-7.64-8.61"/><path class="d" d="M418.08,474.44c-.75-.88-5.52-2.87-8.54-.62"/><path class="d" d="M418,471.15c.12-1.62-4.25-4.41-7.24-2.11"/><path class="d" d="M409.83,474a9.13,9.13,0,0,1,8,5.25,7.35,7.35,0,0,1,.53,1.8,4.66,4.66,0,0,1,0,1.39"/><rect class="f" x="431.59" y="462.44" width="22.18" height="7.51" transform="translate(-55.16 872.97) rotate(-85.73)"/><path class="f" d="M459.16,456.25c.74.05,1,5.07.52,11.15h0c-.46,6.08-1.43,11-2.17,11l-11.91-.89,1.65-22.11Z"/><path class="f" d="M472.61,413.5c1.42-3.06,7.1-3.45,12.63-.88h0c5.53,2.57,8.9,7.16,7.48,10.21l-22.87,49.28-20.12-9.34Z"/><ellipse class="f" cx="457.84" cy="465.78" rx="13.89" ry="14.09" transform="translate(-142.24 207.97) rotate(-22.24)"/></svg>