<svg xmlns="http://www.w3.org/2000/svg" viewBox="0 0 1042.95 696.83"><defs><style>.a{fill:#f7f9ec;}.b{fill:#f5b333;}.c{fill:#143241;}.d{fill:none;stroke:#fff;stroke-linecap:round;stroke-miterlimit:10;stroke-width:0.75px;}.e{fill:#334e5d;}.f{fill:#694b7f;}</style></defs><title>hotspot_leap_legs</title><path class="a" d="M605.57,487.28A11.18,11.18,0,0,1,603,502.83h0a11.18,11.18,0,0,1-15.55-2.59l-10.66-14.93,18.13-12.95Z"/><rect class="a" x="571.83" y="473.69" width="22.29" height="2.29" transform="matrix(0.81, -0.58, 0.58, 0.81, -167.4, 427.35)"/><rect class="b" x="573.59" y="475.41" width="22.29" height="3.78" transform="translate(-168.51 428.84) rotate(-35.54)"/><rect class="c" x="582.99" y="477.76" width="25.57" height="29.91" rx="2.58" transform="translate(1366.97 547.29) rotate(144.46)"/><path class="d" d="M593.77,483c.57,1.2,5.28,6.56,5.71,6.35s-.78-7.23-1.36-8.43a2.41,2.41,0,1,0-4.35,2.08Z"/><path class="d" d="M591,487.3c1.34,0,8.14,2.2,8.12,2.68s-7,2.18-8.28,2.14a2.41,2.41,0,1,1,.16-4.82Z"/><path class="d" d="M611.38,479c-3.71-2.37-9.11,5.51-4.2,12.14"/><path class="c" d="M597.39,498.08a12.49,12.49,0,0,1,17.43,2.9l-20.34,14.53A12.49,12.49,0,0,1,597.39,498.08Z"/><path class="e" d="M605.34,481.87a21.07,21.07,0,0,1,29.38,4.9l-34.27,24.48A21.07,21.07,0,0,1,605.34,481.87Z"/><path class="d" d="M604.45,481.89c-2.66,1.9-3.89,5.79-1.73,11.39"/><path class="d" d="M602.27,484.46c-.19,1.14,1.32,6.07,5,7"/><path class="d" d="M599.8,486.63c-1.33.95-.67,6.08,3,6.91"/><path class="d" d="M607.18,491.09a9.11,9.11,0,0,1-1.09-9.52,7.11,7.11,0,0,1,1-1.57,5.52,5.52,0,0,1,1-.91"/><rect class="f" x="569.1" y="467.08" width="22.18" height="7.51" transform="translate(-165.6 424.99) rotate(-35.54)"/><path class="f" d="M562,464.55c-.43-.6,3.28-4,8.24-7.54h0c5-3.55,9.38-5.95,9.81-5.35l6.94,9.71-18.05,12.89Z"/><path class="f" d="M538.07,456.8c-1.86-.67-1.68-5.91.4-11.65h0c2.08-5.73,5.3-9.87,7.16-9.19l30,10.88-7.56,20.85Z"/><ellipse class="f" cx="570.16" cy="459.46" rx="14.09" ry="13.89" transform="translate(-102.94 747.78) rotate(-62.05)"/></svg>