<svg xmlns="http://www.w3.org/2000/svg" viewBox="0 0 1042.95 696.83"><defs><style>.a{fill:#f7f9ec;}.b{fill:#49b56d;}.c{fill:#143241;}.d{fill:none;stroke:#fff;stroke-linecap:round;stroke-miterlimit:10;stroke-width:0.75px;}.e{fill:#334e5d;}.f{fill:#742649;}</style></defs><title>hotspot_leap_legs</title><path class="a" d="M655.83,462.85a11.18,11.18,0,0,1-.67,15.74h0a11.17,11.17,0,0,1-15.75-.67L627,464.4l16.42-15.07Z"/><rect class="a" x="620.74" y="452.1" width="22.29" height="2.29" transform="translate(-140.11 546.69) rotate(-42.55)"/><rect class="b" x="622.79" y="453.59" width="22.29" height="3.78" transform="translate(-141.08 548.67) rotate(-42.55)"/><rect class="c" x="633.99" y="454.47" width="25.57" height="29.91" rx="2.58" transform="translate(1440.68 377.83) rotate(137.45)"/><path class="d" d="M643.6,460c.71,1.12,6,5.87,6.44,5.61s-1.66-7.08-2.38-8.21a2.41,2.41,0,1,0-4.06,2.6Z"/><path class="d" d="M641.33,464.64c1.33-.12,8.34,1.19,8.39,1.68s-6.63,3-8,3.13a2.41,2.41,0,0,1-.43-4.81Z"/><path class="d" d="M660.58,453.87c-4-1.91-8.38,6.57-2.68,12.56"/><path class="c" d="M649,474.56a12.51,12.51,0,0,1,17.67.75l-18.42,16.91A12.5,12.5,0,0,1,649,474.56Z"/><path class="e" d="M654.94,457.51a21.06,21.06,0,0,1,29.76,1.27l-31,28.48A21.06,21.06,0,0,1,654.94,457.51Z"/><path class="d" d="M654.06,457.63c-2.41,2.21-3.16,6.23-.32,11.51"/><path class="d" d="M652.2,460.44c0,1.16,2.07,5.87,5.81,6.3"/><path class="d" d="M650,462.9c-1.21,1.1.07,6.12,3.83,6.49"/><path class="d" d="M657.9,466.43a9.12,9.12,0,0,1-2.26-9.32,7.33,7.33,0,0,1,.84-1.68,5.16,5.16,0,0,1,.93-1"/><rect class="f" x="617.55" y="445.86" width="22.18" height="7.51" transform="translate(-138.51 543.54) rotate(-42.55)"/><path class="f" d="M609.8,445.6c-.5-.55,2.77-4.37,7.26-8.49h0c4.49-4.12,8.58-7.05,9.08-6.51l8.07,8.8-16.33,15Z"/><path class="f" d="M562.7,435c-3.23-1-4.44-6.53-2.7-12.38h0c1.74-5.84,5.8-9.84,9-8.88l52.06,15.51-6.32,21.25Z"/><ellipse class="f" cx="617.29" cy="439.55" rx="14.09" ry="13.89" transform="translate(-13.83 859.01) rotate(-69.06)"/></svg>