<svg xmlns="http://www.w3.org/2000/svg" viewBox="0 0 1042.95 696.83"><defs><style>.a{fill:#f7f9ec;}.b{fill:#fad781;}.c{fill:#143241;}.d{fill:none;stroke:#fff;stroke-linecap:round;stroke-miterlimit:10;stroke-width:0.75px;}.e{fill:#334e5d;}.f{fill:#e8676b;}.g{fill:#4bb0ac;}</style></defs><title>hotspot_leap_legs</title><path class="a" d="M378.1,469.37a11.18,11.18,0,0,1-10-12.17h0a11.18,11.18,0,0,1,12.17-10L398.51,449l-2.15,22.19Z"/><rect class="a" x="391.19" y="459.38" width="22.29" height="2.29" transform="translate(-94.83 816.58) rotate(-84.47)"/><rect class="b" x="388.17" y="458.34" width="22.29" height="3.78" transform="translate(-97.27 813.31) rotate(-84.47)"/><rect class="c" x="367.66" y="443.47" width="25.57" height="29.91" rx="2.58" transform="translate(-112.53 792.9) rotate(-84.47)"/><path class="d" d="M389.08,463.29c-1.29-.36-8.42-.34-8.55.13s6,4.16,7.26,4.51a2.41,2.41,0,1,0,1.29-4.64Z"/><path class="d" d="M387.69,458.35c-.91,1-7,4.69-7.36,4.36s2.92-6.67,3.83-7.65a2.41,2.41,0,0,1,3.53,3.29Z"/><path class="d" d="M380.56,479.22c4.23-1.23,1.84-10.48-6.39-11.14"/><path class="c" d="M375.34,456.11a12.51,12.51,0,0,1-13.65,11.24l2.41-24.89A12.51,12.51,0,0,1,375.34,456.11Z"/><path class="e" d="M382.32,472.75a21.05,21.05,0,0,1-23,18.93l4.07-41.92A21.06,21.06,0,0,1,382.32,472.75Z"/><path class="d" d="M382.9,472.07c.31-3.25-1.81-6.74-7.45-8.78"/><path class="d" d="M382.4,468.74c-.73-.89-5.45-3-8.53-.8"/><path class="d" d="M382.38,465.45c.16-1.62-4.15-4.5-7.19-2.27"/><path class="d" d="M374.17,468.08a9.12,9.12,0,0,1,7.9,5.44,7.49,7.49,0,0,1,.5,1.8,5.46,5.46,0,0,1,0,1.4"/><rect class="f" x="396.09" y="457.29" width="22.18" height="7.51" transform="translate(-90.98 821.88) rotate(-84.47)"/><path class="g" d="M451.63,454.15c2.45.24,4,5.4,3.39,11.47h0c-.58,6.07-3.07,10.84-5.53,10.6l-39.64-3.84L412,450.31Z"/><path class="g" d="M469,409.24c1.51-3.37,7.29-4.09,12.86-1.6h0c5.57,2.49,8.89,7.28,7.39,10.64L465,472.68l-20.25-9.05Z"/><ellipse class="g" cx="453.73" cy="465.61" rx="13.89" ry="14.09" transform="translate(-190.64 551.92) rotate(-53.37)"/></svg>