<svg xmlns="http://www.w3.org/2000/svg" xmlns:xlink="http://www.w3.org/1999/xlink" viewBox="0 0 1042.95 696.83"><defs><style>.a,.g{fill:none;}.b{fill:#4bb0ac;}.c{fill:#e8676b;}.d{fill:#f7f9ec;}.e{fill:#fad781;}.f{fill:#143241;}.g{stroke:#fff;stroke-linecap:round;stroke-miterlimit:10;stroke-width:0.75px;}.h{fill:#334e5d;}.i{clip-path:url(#a);}.j{clip-path:url(#b);}.k{fill:#c7db5e;}.l{clip-path:url(#c);}</style><clipPath id="a"><rect class="a" y="-765.94" width="1042.95" height="696.83" rx="42.08" transform="translate(1042.95 -835.04) rotate(180)"/></clipPath><clipPath id="b"><rect class="a" y="-765.94" width="1042.95" height="696.83"/></clipPath><clipPath id="c"><rect class="a" x="-1133.3" y="-765.94" width="1042.95" height="696.83" rx="42.08" transform="translate(-1223.65 -835.04) rotate(180)"/></clipPath></defs><title>hotspot_leap_legs</title><path class="b" d="M506.87,418.4c4-1.6,5.55-7.41,3.37-12.91h0c-2.18-5.51-7.27-8.71-11.3-7.11l-65.14,25.8,7.93,20Z"/><path class="b" d="M444.93,443.12c1.6-2.12-1-6.78-5.69-10.34h0c-4.72-3.57-9.9-4.75-11.5-2.62l-25.85,34.28,17.2,13Z"/><rect class="c" x="410.35" y="455.5" width="7.3" height="21.53" transform="translate(-207.54 516.19) rotate(-52.99)"/><ellipse class="b" cx="438.89" cy="433.74" rx="13.42" ry="13.61" transform="translate(-171.66 523.11) rotate(-52.99)"/><path class="d" d="M389,481.54a10.78,10.78,0,0,0,2.11,15.07h0a10.79,10.79,0,0,0,15.08-2.11l10.67-14.16-17.19-13Z"/><rect class="d" x="410.03" y="459.3" width="2.21" height="21.53" transform="translate(-211.71 515.41) rotate(-52.99)"/><rect class="e" x="407.55" y="461.64" width="3.65" height="21.53" transform="translate(-214.28 514.93) rotate(-52.99)"/><rect class="f" x="385.98" y="472.57" width="24.7" height="28.9" rx="2.07" transform="translate(373.41 -141.66) rotate(37.01)"/><rect class="f" x="385.34" y="472.41" width="25.57" height="29.91" rx="2.58" transform="translate(372.35 -141.41) rotate(36.9)"/><path class="g" d="M400.36,477.71c-.6,1.19-5.43,6.44-5.86,6.22s1-7.21,1.56-8.4a2.41,2.41,0,0,1,4.3,2.18Z"/><path class="g" d="M403.06,482.07c-1.33,0-8.18,2-8.17,2.49s6.89,2.34,8.22,2.33a2.41,2.41,0,1,0-.05-4.82Z"/><path class="g" d="M382.86,473.24c3.75-2.28,9,5.72,3.9,12.24"/><path class="f" d="M396.39,492.69a12.5,12.5,0,0,0-17.5,2.49l20,15A12.5,12.5,0,0,0,396.39,492.69Z"/><path class="h" d="M388.82,476.31a21.06,21.06,0,0,0-29.49,4.19L393,505.79A21,21,0,0,0,388.82,476.31Z"/><path class="g" d="M389.71,476.35c2.61,2,3.76,5.88,1.46,11.42"/><path class="g" d="M391.83,479c.17,1.14-1.47,6-5.16,6.84"/><path class="g" d="M394.24,481.19c1.31,1,.53,6.1-3.17,6.84"/><path class="g" d="M386.76,485.48a9.12,9.12,0,0,0,1.32-9.5,6.45,6.45,0,0,0-1-1.58,4.71,4.71,0,0,0-1-.94"/><g class="i"><g class="j"><rect class="k" x="-8" y="-386.02" width="1053.51" height="400.92"/></g></g></svg>