<svg xmlns="http://www.w3.org/2000/svg" viewBox="0 0 1042.95 696.83"><defs><style>.a{fill:#f7f9ec;}.b{fill:#f5b333;}.c{fill:#143241;}.d{fill:none;stroke:#fff;stroke-linecap:round;stroke-miterlimit:10;stroke-width:0.75px;}.e{fill:#334e5d;}.f{fill:#694b7f;}</style></defs><title>hotspot_leap_legs</title><path class="a" d="M418.7,482.24a11.19,11.19,0,0,1-10.29-11.95h0A11.17,11.17,0,0,1,420.35,460l18.3,1.36L437,483.6Z"/><rect class="a" x="431.58" y="471.71" width="22.29" height="2.29" transform="translate(-61.75 879.18) rotate(-85.73)"/><rect class="b" x="428.56" y="470.74" width="22.29" height="3.78" transform="matrix(0.07, -1, 1, 0.07, -64.32, 875.96)"/><rect class="c" x="408.01" y="456.29" width="25.57" height="29.91" rx="2.58" transform="translate(-80.44 855.82) rotate(-85.73)"/><path class="d" d="M429.54,475.91c-1.29-.33-8.43-.15-8.54.32s6.06,4,7.35,4.36a2.41,2.41,0,0,0,1.19-4.68Z"/><path class="d" d="M428,471c-.89,1-6.9,4.84-7.26,4.51s2.77-6.73,3.66-7.72A2.41,2.41,0,1,1,428,471Z"/><path class="d" d="M421.38,492c4.19-1.32,1.6-10.52-6.64-11"/><path class="c" d="M415.65,469a12.51,12.51,0,0,1-13.4,11.53l1.86-24.93A12.51,12.51,0,0,1,415.65,469Z"/><path class="e" d="M423,485.53A21.07,21.07,0,0,1,400.43,505l3.13-42A21.06,21.06,0,0,1,423,485.53Z"/><path class="d" d="M423.56,484.82c.24-3.25-2-6.69-7.64-8.61"/><path class="d" d="M423,481.51c-.75-.88-5.51-2.87-8.54-.62"/><path class="d" d="M422.89,478.23c.12-1.63-4.24-4.41-7.23-2.12"/><path class="d" d="M414.74,481a9.11,9.11,0,0,1,8,5.25,6.67,6.67,0,0,1,.53,1.8,5,5,0,0,1,0,1.39"/><rect class="f" x="436.49" y="469.52" width="22.18" height="7.51" transform="translate(-57.67 884.41) rotate(-85.73)"/><path class="f" d="M464.06,463.32c.74.05,1,5.07.52,11.15h0c-.46,6.09-1.43,11-2.17,11l-11.9-.89,1.65-22.11Z"/><path class="f" d="M466.49,444.31c.73-1.58,5.86-.77,11.39,1.8h0c5.53,2.57,9.46,6,8.72,7.54l-11.85,25.53-20.11-9.34Z"/><ellipse class="f" cx="462.74" cy="472.85" rx="13.89" ry="14.09" transform="translate(-144.56 210.35) rotate(-22.24)"/></svg>