<svg xmlns="http://www.w3.org/2000/svg" xmlns:xlink="http://www.w3.org/1999/xlink" viewBox="0 0 1042.95 696.83"><defs><style>.a,.i,.l,.q{fill:none;}.b{clip-path:url(#a);}.c{clip-path:url(#b);}.d{fill:#c3e1dc;}.e{fill:#4ab36d;}.f{fill:#8ac040;}.g{fill:#c7db5e;}.h{fill:#5978b9;}.i,.l{stroke:#5978b9;}.i,.l,.q{stroke-linecap:round;stroke-miterlimit:10;}.i{stroke-width:26.47px;}.j{fill:#0f2436;}.k{fill:#f7f9ec;}.l{stroke-width:25.14px;}.m{fill:#fff;}.n{fill:#01667f;}.o{fill:#00848e;}.p{fill:#143241;}.q{stroke:#fff;stroke-width:0.75px;}.r{fill:#334e5d;}.s{clip-path:url(#c);}.t{clip-path:url(#d);}</style><clipPath id="a"><rect class="a" y="0.35" width="1042.95" height="696.83" rx="42.08" transform="translate(1042.95 697.52) rotate(180)"/></clipPath><clipPath id="b"><rect class="a" y="0.35" width="1042.95" height="696.83"/></clipPath><clipPath id="c"><rect class="a" x="-1161.23" width="1042.95" height="696.83" rx="42.08" transform="translate(-1279.52 696.83) rotate(180)"/></clipPath><clipPath id="d"><rect class="a" x="-1161.23" width="1042.95" height="696.83"/></clipPath></defs><title>hotspot_leap_legs</title><g class="b"><g class="c"><rect class="d" x="-3" y="-8.36" width="1049" height="477.61"/><path class="e" d="M854.53,255c-2.83-11,5.66-22.8,5.66-22.8s13.07,6.17,15.91,17.22-5.66,22.8-5.66,22.8S857.36,266,854.53,255Z"/><path class="e" d="M816.2,252.87c-1.81-11.27,7.71-22.19,7.71-22.19s12.46,7.35,14.28,18.61-7.71,22.19-7.71,22.19S818,264.14,816.2,252.87Z"/><path class="e" d="M890.34,245c-1.82-11.27,7.7-22.19,7.7-22.19s12.46,7.34,14.28,18.61-7.7,22.18-7.7,22.18S892.15,256.22,890.34,245Z"/><path class="e" d="M920.25,254c-1.82-11.27,7.7-22.19,7.7-22.19s12.46,7.34,14.28,18.61-7.71,22.18-7.71,22.18S922.06,265.24,920.25,254Z"/><path class="e" d="M799.17,252.56c-4.58-10.44,1.89-23.42,1.89-23.42s13.9,3.94,18.49,14.38S817.66,267,817.66,267,803.76,263,799.17,252.56Z"/><path class="e" d="M760.75,251.15c-1.6-11.3,8.13-22,8.13-22S781.2,236.7,782.8,248s-8.13,22-8.13,22S762.35,262.45,760.75,251.15Z"/><path class="e" d="M778.06,256.89c-1.59-11.3,8.13-22,8.13-22s12.32,7.59,13.92,18.88-8.13,22-8.13,22S779.66,268.19,778.06,256.89Z"/><path class="e" d="M725.21,278.79c-5.77-9.82-.85-23.48-.85-23.48s14.26,2.28,20,12.11.86,23.48.86,23.48S731,288.62,725.21,278.79Z"/><path class="e" d="M712.8,305c-4.74-10.37,1.53-23.45,1.53-23.45s14,3.74,18.7,14.11-1.53,23.45-1.53,23.45S717.54,315.38,712.8,305Z"/><path class="e" d="M705.78,353.62c-4.74-10.37,1.53-23.45,1.53-23.45s14,3.74,18.7,14.11-1.53,23.45-1.53,23.45S710.51,364,705.78,353.62Z"/><path class="e" d="M750.37,263.16c-4.61-10.43,1.83-23.43,1.83-23.43s13.91,3.92,18.52,14.34-1.83,23.43-1.83,23.43S755,273.59,750.37,263.16Z"/><path class="e" d="M706.31,374.39c-9.21-6.66-10.18-21.15-10.18-21.15s14-3.68,23.19,3,10.18,21.15,10.18,21.15S715.53,381.06,706.31,374.39Z"/><path class="e" d="M738.56,270.07c-4.61-10.43,1.83-23.43,1.83-23.43s13.91,3.91,18.52,14.34-1.83,23.43-1.83,23.43S743.17,280.5,738.56,270.07Z"/><path class="e" d="M827.44,260c2.25-16.12,19.8-27,19.8-27s13.9,15.28,11.65,31.4-19.8,27-19.8,27S825.19,276.07,827.44,260Z"/><path class="e" d="M906.15,261.4c-2.65-14.22,9.08-28.35,9.08-28.35s16,8.92,18.66,23.13-9.09,28.35-9.09,28.35S908.79,275.61,906.15,261.4Z"/><path class="e" d="M869.17,266.93c-2.18-17.79,13.42-34.36,13.42-34.36s19.12,12.28,21.3,30.07S890.48,297,890.48,297,871.35,284.72,869.17,266.93Z"/><path class="e" d="M718.54,301.54c-7.57-11.24-2.75-27.81-2.75-27.81s17.1,1.64,24.68,12.87,2.75,27.81,2.75,27.81S726.12,312.77,718.54,301.54Z"/><path class="e" d="M703.32,326.18c-7.58-11.77-2.24-28.78-2.24-28.78s17.63,2.07,25.21,13.84S728.52,340,728.52,340,710.9,338,703.32,326.18Z"/><path class="e" d="M947,275.82c5.77-9.83.86-23.48.86-23.48s-14.27,2.27-20,12.1-.86,23.49-.86,23.49S941.2,285.65,947,275.82Z"/><path class="e" d="M959.39,302c4.74-10.38-1.54-23.45-1.54-23.45s-14,3.73-18.7,14.1,1.54,23.45,1.54,23.45S954.65,312.41,959.39,302Z"/><path class="e" d="M966.41,350.65c4.74-10.37-1.54-23.45-1.54-23.45s-14,3.73-18.7,14.1,1.54,23.45,1.54,23.45S961.67,361,966.41,350.65Z"/><path class="e" d="M918.27,272.06c4.61-10.43-1.83-23.43-1.83-23.43s-13.91,3.91-18.52,14.34,1.83,23.43,1.83,23.43S913.66,282.49,918.27,272.06Z"/><path class="e" d="M965.87,371.42c9.22-6.66,10.19-21.15,10.19-21.15s-14-3.69-23.19,3-10.19,21.16-10.19,21.16S956.65,378.08,965.87,371.42Z"/><path class="e" d="M933.63,273.23c4.6-10.43-1.84-23.43-1.84-23.43s-13.91,3.91-18.52,14.34,1.84,23.43,1.84,23.43S929,283.66,933.63,273.23Z"/><path class="e" d="M953.64,298.56c7.58-11.24,2.75-27.81,2.75-27.81s-17.1,1.64-24.67,12.88-2.75,27.8-2.75,27.8S946.07,309.79,953.64,298.56Z"/><path class="e" d="M968.87,323.21c7.58-11.77,2.23-28.79,2.23-28.79s-17.62,2.07-25.2,13.84-2.24,28.79-2.24,28.79S961.29,335,968.87,323.21Z"/><path class="e" d="M820,248.63l-66.27,16.13-23.36,19.77L715.89,349l14.46,56.76h239s-8.34-40.64-9.94-43.38-15-73-15-73l-16.61-24.93-51.13-4Z"/><path class="f" d="M1003.49,260.74c-2.85-11.13,5.7-23,5.7-23s13.17,6.22,16,17.35-5.71,23-5.71,23S1006.34,271.88,1003.49,260.74Z"/><path class="f" d="M956.61,246.39c-4.62-10.52,1.9-23.6,1.9-23.6s14,4,18.63,14.49-1.91,23.6-1.91,23.6S961.23,256.91,956.61,246.39Z"/><path class="f" d="M944.69,258.52c-4.62-10.52,1.91-23.6,1.91-23.6s14,4,18.62,14.49-1.9,23.6-1.9,23.6S949.31,269,944.69,258.52Z"/><path class="f" d="M910.21,258.63c-1.62-11.38,8.19-22.2,8.19-22.2s12.41,7.64,14,19-8.19,22.2-8.19,22.2S911.82,270,910.21,258.63Z"/><path class="f" d="M928.2,258.75c-1.61-11.39,8.19-22.2,8.19-22.2s12.41,7.64,14,19-8.19,22.2-8.19,22.2S929.81,270.13,928.2,258.75Z"/><path class="f" d="M867.78,276.44c-5.81-9.9-.86-23.66-.86-23.66s14.37,2.3,20.18,12.2.87,23.66.87,23.66S873.59,286.34,867.78,276.44Z"/><path class="f" d="M855.27,302.85c-4.77-10.44,1.55-23.62,1.55-23.62s14.06,3.76,18.84,14.21-1.55,23.63-1.55,23.63S860,313.3,855.27,302.85Z"/><path class="f" d="M848.2,351.83c-4.78-10.45,1.55-23.62,1.55-23.62s14.06,3.76,18.83,14.21S867,366,867,366,853,362.28,848.2,351.83Z"/><path class="f" d="M896.69,272.65c-4.64-10.51,1.85-23.6,1.85-23.6s14,3.94,18.66,14.45-1.85,23.6-1.85,23.6S901.34,283.16,896.69,272.65Z"/><path class="f" d="M848.74,372.76c-9.29-6.71-10.27-21.31-10.27-21.31s14.08-3.71,23.37,3,10.26,21.31,10.26,21.31S858,379.47,848.74,372.76Z"/><path class="f" d="M881.23,273.83c-4.65-10.51,1.84-23.6,1.84-23.6s14,3.94,18.66,14.44-1.84,23.61-1.84,23.61S885.87,284.34,881.23,273.83Z"/><path class="f" d="M974.06,249.17c2.27-16.24,20-27.17,20-27.17s14,15.4,11.74,31.64-20,27.16-20,27.16S971.8,265.41,974.06,249.17Z"/><path class="f" d="M1026.25,269.83c-7.64-16.34,2.13-37.13,2.13-37.13s22.13,5.72,29.77,22.07S1056,291.9,1056,291.9,1033.89,286.18,1026.25,269.83Z"/><path class="f" d="M861.06,299.35c-7.63-11.32-2.77-28-2.77-28s17.23,1.65,24.86,13,2.77,28,2.77,28S868.69,310.67,861.06,299.35Z"/><path class="f" d="M845.72,324.19c-7.64-11.86-2.25-29-2.25-29s17.76,2.09,25.39,13.95,2.25,29,2.25,29S853.36,336.05,845.72,324.19Z"/><path class="f" d="M1062.29,269.65c4.64-10.51-1.85-23.6-1.85-23.6s-14,3.94-18.66,14.45,1.85,23.6,1.85,23.6S1057.64,280.16,1062.29,269.65Z"/><path class="f" d="M963.29,246.05,896.52,262.3,873,282.22l-14.6,64.9L873,404.31H1113.7s-8.4-40.94-10-43.7-15.08-73.51-15.08-73.51L1071.88,262l-51.52-4.05Z"/><path class="g" d="M643.43,221.21c-3.59-14,7.16-28.87,7.16-28.87s16.56,7.81,20.14,21.81S663.57,243,663.57,243,647,235.21,643.43,221.21Z"/><path class="g" d="M584.5,203.17c-5.8-13.22,2.39-29.66,2.39-29.66s17.61,5,23.41,18.21-2.39,29.66-2.39,29.66S590.31,216.39,584.5,203.17Z"/><path class="g" d="M569.52,218.41c-5.8-13.22,2.4-29.66,2.4-29.66s17.6,5,23.4,18.22-2.39,29.66-2.39,29.66S575.33,231.64,569.52,218.41Z"/><path class="g" d="M526.18,218.56c-2-14.31,10.29-27.9,10.29-27.9s15.6,9.6,17.63,23.91-10.3,27.9-10.3,27.9S528.2,232.87,526.18,218.56Z"/><path class="g" d="M548.79,218.7c-2-14.3,10.3-27.9,10.3-27.9s15.6,9.6,17.62,23.91-10.29,27.9-10.29,27.9S550.82,233,548.79,218.7Z"/><path class="g" d="M472.85,240.94c-7.3-12.44-1.08-29.74-1.08-29.74s18.06,2.89,25.37,15.34,1.09,29.73,1.09,29.73S480.16,253.39,472.85,240.94Z"/><path class="g" d="M457.13,274.14c-6-13.13,1.95-29.69,1.95-29.69s17.67,4.73,23.67,17.86S480.81,292,480.81,292,463.13,287.28,457.13,274.14Z"/><path class="g" d="M448.24,335.7c-6-13.13,1.95-29.69,1.95-29.69s17.67,4.72,23.67,17.86-1.94,29.69-1.94,29.69S454.24,348.83,448.24,335.7Z"/><path class="g" d="M509.2,236.18c-5.84-13.21,2.32-29.67,2.32-29.67s17.61,5,23.45,18.16-2.32,29.67-2.32,29.67S515,249.39,509.2,236.18Z"/><path class="g" d="M448.92,362c-11.67-8.43-12.9-26.78-12.9-26.78s17.69-4.67,29.36,3.77,12.91,26.78,12.91,26.78S460.59,370.44,448.92,362Z"/><path class="g" d="M489.75,237.66c-5.83-13.21,2.32-29.67,2.32-29.67s17.62,5,23.46,18.16-2.32,29.67-2.32,29.67S495.59,250.87,489.75,237.66Z"/><path class="g" d="M606.44,206.66c2.85-20.41,25.07-34.14,25.07-34.14s17.6,19.35,14.75,39.76-25.07,34.15-25.07,34.15S603.59,227.07,606.44,206.66Z"/><path class="g" d="M702,218.91c-3.35-18,11.51-35.89,11.51-35.89s20.27,11.29,23.62,29.29-11.5,35.89-11.5,35.89S705.32,236.91,702,218.91Z"/><path class="g" d="M672,232.64c-9.6-20.55,2.67-46.67,2.67-46.67s27.82,7.19,37.42,27.74-2.66,46.67-2.66,46.67S681.64,253.18,672,232.64Z"/><path class="g" d="M464.41,269.74c-9.59-14.23-3.48-35.22-3.48-35.22s21.65,2.08,31.24,16.31S495.65,286,495.65,286,474,284,464.41,269.74Z"/><path class="g" d="M445.13,301c-9.6-14.91-2.84-36.45-2.84-36.45s22.33,2.62,31.92,17.53S477,318.48,477,318.48,454.72,315.86,445.13,301Z"/><path class="g" d="M753.67,237.17c7.31-12.44,1.09-29.73,1.09-29.73s-18.07,2.88-25.38,15.32-1.08,29.75-1.08,29.75S746.36,249.62,753.67,237.17Z"/><path class="g" d="M769.39,270.37c6-13.13-1.94-29.69-1.94-29.69s-17.68,4.73-23.68,17.86,2,29.7,2,29.7S763.39,283.51,769.39,270.37Z"/><path class="g" d="M778.29,331.93c6-13.13-1.95-29.69-1.95-29.69S758.66,307,752.66,320.1s2,29.69,2,29.69S772.28,345.06,778.29,331.93Z"/><path class="g" d="M717.33,232.41c5.83-13.21-2.32-29.66-2.32-29.66s-17.62,4.95-23.45,18.15,2.32,29.67,2.32,29.67S711.49,245.62,717.33,232.41Z"/><path class="g" d="M777.6,358.23c11.68-8.43,12.9-26.78,12.9-26.78s-17.69-4.67-29.36,3.77S748.24,362,748.24,362,765.93,366.67,777.6,358.23Z"/><path class="g" d="M736.77,233.89c5.84-13.21-2.32-29.67-2.32-29.67s-17.61,5-23.45,18.16,2.32,29.67,2.32,29.67S730.94,247.1,736.77,233.89Z"/><path class="g" d="M762.12,266c9.59-14.23,3.48-35.21,3.48-35.21s-21.65,2.07-31.24,16.3-3.48,35.21-3.48,35.21S752.53,280.2,762.12,266Z"/><path class="g" d="M781.4,297.18c9.6-14.9,2.83-36.45,2.83-36.45s-22.32,2.62-31.92,17.53-2.83,36.45-2.83,36.45S771.8,312.09,781.4,297.18Z"/><path class="g" d="M592.9,202.75,509,223.17l-29.58,25-18.35,81.58,18.31,71.87H719.43s52-51.45,49.94-54.92-19-92.39-19-92.39l-21-31.58-64.75-5.08Z"/><path class="e" d="M183.48,194.1c-3.58-14,7.17-28.87,7.17-28.87S207.21,173,210.79,187s-7.17,28.88-7.17,28.88S187.06,208.1,183.48,194.1Z"/><path class="e" d="M124.56,176.06C118.75,162.84,127,146.4,127,146.4s17.6,5,23.41,18.21S148,194.27,148,194.27,130.36,189.28,124.56,176.06Z"/><path class="e" d="M109.58,191.3c-5.8-13.22,2.39-29.66,2.39-29.66s17.6,5,23.41,18.22S133,209.52,133,209.52,115.38,204.53,109.58,191.3Z"/><path class="e" d="M66.23,191.45c-2-14.31,10.3-27.9,10.3-27.9s15.6,9.6,17.62,23.9-10.29,27.91-10.29,27.91S68.26,205.75,66.23,191.45Z"/><path class="e" d="M88.85,191.59c-2-14.31,10.3-27.9,10.3-27.9s15.59,9.6,17.62,23.91-10.29,27.9-10.29,27.9S90.87,205.9,88.85,191.59Z"/><path class="e" d="M12.91,213.83c-7.31-12.45-1.09-29.74-1.09-29.74S29.89,187,37.2,199.42s1.08,29.74,1.08,29.74S20.22,226.28,12.91,213.83Z"/><path class="e" d="M-2.81,247c-6-13.13,1.94-29.69,1.94-29.69s17.68,4.73,23.68,17.86-1.94,29.69-1.94,29.69S3.19,260.16-2.81,247Z"/><path class="e" d="M-11.71,308.59c-6-13.13,2-29.69,2-29.69s17.68,4.72,23.68,17.86S12,326.45,12,326.45-5.7,321.72-11.71,308.59Z"/><path class="e" d="M49.25,209.07c-5.83-13.21,2.32-29.67,2.32-29.67S69.19,184.35,75,197.56s-2.31,29.67-2.31,29.67S55.09,222.28,49.25,209.07Z"/><path class="e" d="M-11,334.89c-11.68-8.44-12.9-26.78-12.9-26.78s17.69-4.67,29.36,3.77,12.9,26.78,12.9,26.78S.65,343.33-11,334.89Z"/><path class="e" d="M29.81,210.55c-5.84-13.21,2.32-29.67,2.32-29.67s17.62,5,23.45,18.16-2.32,29.67-2.32,29.67S35.64,223.76,29.81,210.55Z"/><path class="e" d="M146.5,179.55c2.85-20.41,25.07-34.14,25.07-34.14s17.6,19.35,14.75,39.76-25.07,34.14-25.07,34.14S143.65,200,146.5,179.55Z"/><path class="e" d="M242,191.8c-3.35-18,11.5-35.89,11.5-35.89s20.28,11.29,23.63,29.29-11.5,35.89-11.5,35.89S245.38,209.8,242,191.8Z"/><path class="e" d="M212.1,205.53c-9.61-20.55,2.66-46.67,2.66-46.67s27.83,7.19,37.43,27.74-2.66,46.66-2.66,46.66S221.7,226.07,212.1,205.53Z"/><path class="e" d="M4.46,242.63C-5.13,228.4,1,207.41,1,207.41s21.65,2.08,31.24,16.31,3.49,35.21,3.49,35.21S14.05,256.85,4.46,242.63Z"/><path class="e" d="M-14.82,273.84c-9.6-14.91-2.83-36.45-2.83-36.45S4.67,240,14.27,254.92s2.83,36.45,2.83,36.45S-5.22,288.75-14.82,273.84Z"/><path class="e" d="M293.73,210.06c7.3-12.44,1.08-29.74,1.08-29.74s-18.06,2.89-25.37,15.33-1.09,29.74-1.09,29.74S286.42,222.51,293.73,210.06Z"/><path class="e" d="M309.45,243.26c6-13.13-1.95-29.69-1.95-29.69s-17.67,4.73-23.67,17.86,1.94,29.7,1.94,29.7S303.45,256.4,309.45,243.26Z"/><path class="e" d="M318.34,304.82c6-13.13-1.95-29.69-1.95-29.69s-17.67,4.72-23.67,17.86,1.94,29.69,1.94,29.69S312.34,318,318.34,304.82Z"/><path class="e" d="M257.38,205.3c5.84-13.21-2.31-29.67-2.31-29.67s-17.62,5-23.46,18.16,2.32,29.67,2.32,29.67S251.55,218.51,257.38,205.3Z"/><path class="e" d="M317.66,331.12c11.67-8.43,12.9-26.78,12.9-26.78s-17.69-4.67-29.36,3.77-12.91,26.78-12.91,26.78S306,339.56,317.66,331.12Z"/><path class="e" d="M276.83,206.78c5.83-13.21-2.32-29.67-2.32-29.67s-17.62,5-23.45,18.16,2.31,29.67,2.31,29.67S271,220,276.83,206.78Z"/><path class="e" d="M302.17,238.86c9.6-14.23,3.49-35.22,3.49-35.22S284,205.72,274.41,220s-3.48,35.21-3.48,35.21S292.58,253.08,302.17,238.86Z"/><path class="e" d="M321.46,270.07c9.59-14.9,2.83-36.45,2.83-36.45s-22.33,2.62-31.92,17.53-2.83,36.45-2.83,36.45S311.86,285,321.46,270.07Z"/><path class="e" d="M133,175.63,49,196.06l-29.57,25L1.11,302.67l18.31,71.87H322s-10.56-51.45-12.58-54.92-19-92.39-19-92.39l-21-31.58-64.75-5.08Z"/><path class="f" d="M418.66,253.84c-2.85-11.14,5.7-23,5.7-23s13.18,6.21,16,17.35-5.71,23-5.71,23S421.51,265,418.66,253.84Z"/><path class="f" d="M371.78,239.48c-4.62-10.52,1.9-23.59,1.9-23.59s14,4,18.63,14.49S390.4,254,390.4,254,376.4,250,371.78,239.48Z"/><path class="f" d="M359.86,251.61c-4.61-10.52,1.91-23.59,1.91-23.59s14,4,18.62,14.49-1.9,23.6-1.9,23.6S364.48,262.13,359.86,251.61Z"/><path class="f" d="M325.38,251.73c-1.61-11.39,8.19-22.2,8.19-22.2s12.41,7.64,14,19-8.19,22.2-8.19,22.2S327,263.11,325.38,251.73Z"/><path class="f" d="M343.37,251.84c-1.61-11.38,8.19-22.19,8.19-22.19s12.41,7.64,14,19-8.19,22.2-8.19,22.2S345,263.23,343.37,251.84Z"/><path class="f" d="M283,269.54c-5.81-9.91-.86-23.66-.86-23.66s14.37,2.29,20.18,12.19.87,23.66.87,23.66S288.76,279.44,283,269.54Z"/><path class="f" d="M270.44,296c-4.77-10.45,1.55-23.62,1.55-23.62s14.06,3.76,18.84,14.21-1.55,23.62-1.55,23.62S275.21,306.4,270.44,296Z"/><path class="f" d="M263.37,344.93c-4.78-10.45,1.55-23.63,1.55-23.63s14.06,3.76,18.83,14.21-1.54,23.63-1.54,23.63S268.14,355.37,263.37,344.93Z"/><path class="f" d="M311.87,265.75c-4.65-10.51,1.84-23.6,1.84-23.6s14,3.94,18.66,14.44-1.85,23.61-1.85,23.61S316.51,276.26,311.87,265.75Z"/><path class="f" d="M263.91,365.85c-9.29-6.71-10.26-21.31-10.26-21.31s14.07-3.71,23.36,3,10.26,21.3,10.26,21.3S273.2,372.57,263.91,365.85Z"/><path class="f" d="M296.4,266.92c-4.65-10.5,1.84-23.6,1.84-23.6s14,3.94,18.66,14.45-1.84,23.6-1.84,23.6S301,277.43,296.4,266.92Z"/><path class="f" d="M389.23,242.26c2.27-16.23,19.95-27.16,19.95-27.16s14,15.4,11.74,31.63S401,273.9,401,273.9,387,258.5,389.23,242.26Z"/><path class="f" d="M465.24,252c-2.66-14.32,9.15-28.56,9.15-28.56s16.13,9,18.8,23.31S484,275.31,484,275.31,467.91,266.33,465.24,252Z"/><path class="f" d="M441.43,262.93c-7.65-16.35,2.12-37.13,2.12-37.13s22.13,5.72,29.77,22.07S471.2,285,471.2,285,449.06,279.28,441.43,262.93Z"/><path class="f" d="M276.23,292.45c-7.63-11.32-2.77-28-2.77-28s17.23,1.65,24.86,13,2.77,28,2.77,28S283.86,303.77,276.23,292.45Z"/><path class="f" d="M260.89,317.28c-7.64-11.86-2.25-29-2.25-29s17.76,2.09,25.39,14,2.25,29,2.25,29S268.53,329.14,260.89,317.28Z"/><path class="f" d="M506.37,266.54c5.82-9.9.87-23.66.87-23.66s-14.38,2.29-20.19,12.2-.87,23.66-.87,23.66S500.56,276.44,506.37,266.54Z"/><path class="f" d="M518.88,293c4.78-10.45-1.55-23.62-1.55-23.62s-14.06,3.76-18.84,14.21S500,307.16,500,307.16,514.11,303.4,518.88,293Z"/><path class="f" d="M526,341.93c4.77-10.45-1.55-23.63-1.55-23.63s-14.07,3.77-18.84,14.21,1.55,23.63,1.55,23.63S521.18,352.38,526,341.93Z"/><path class="f" d="M477.46,262.75c4.64-10.51-1.85-23.6-1.85-23.6s-14,3.94-18.66,14.44,1.85,23.61,1.85,23.61S472.82,273.26,477.46,262.75Z"/><path class="f" d="M525.41,362.85c9.29-6.71,10.27-21.3,10.27-21.3s-14.08-3.72-23.37,3-10.26,21.31-10.26,21.31S516.13,369.57,525.41,362.85Z"/><path class="f" d="M492.93,263.93c4.64-10.51-1.85-23.61-1.85-23.61s-14,3.94-18.66,14.45,1.85,23.61,1.85,23.61S488.28,274.43,492.93,263.93Z"/><path class="f" d="M513.09,289.45c7.63-11.32,2.77-28,2.77-28s-17.22,1.66-24.85,13-2.77,28-2.77,28S505.46,300.77,513.09,289.45Z"/><path class="f" d="M528.43,314.28c7.64-11.86,2.26-29,2.26-29s-17.77,2.09-25.4,14-2.25,29-2.25,29S520.8,326.14,528.43,314.28Z"/><path class="f" d="M378.46,239.15,311.69,255.4l-23.53,19.91-14.6,64.91,14.57,57.18H528.88s-8.4-40.94-10-43.7-15.08-73.5-15.08-73.5l-16.73-25.12L435.53,251Z"/><path class="g" d="M1300.08,378.32c-189.19,0-324.37,3.87-556.34-5.64-211.62-8.67-762.6.11-762.6.11v12.28c30.42,2.38,60.43,3.94,91.24,7.09,30.83,1.38,60.26-4.15,89.69-5.54,36.44-4.15,74.28,1.39,110.72,1.39,42,1.38,85.49,1.38,127.53,0,206-11.07,412,11.06,618.06,4.15,57.46-1.39,114.92-2.77,173.78,0,107.92,8.29,213-15.22,322.34-2.77,50.07,7.06,98.1-.89,148.42-10.23v-6.48S1489.27,378.32,1300.08,378.32Z"/><path class="g" d="M364.63,372.51c-1.1-1.1,6.91-12.44-17.85-24.52,29.86-12.08,42.25,18.3,42.61,17.2s13.73-63,68.83-63c-23.29,27.19-4.37,59.67-3.28,59.3s21.48-37.83,45.52-28.61c-18.1,13.39-12.38,39.59-12.38,39.59Z"/><path class="g" d="M777.16,378.18c-.86-.86,5.42-9.75-14-19.22,23.39-9.46,33.09,14.34,33.38,13.48s23.39-43.59,53.92-49.33c-7.7,18.65-3.42,46.75-2.57,46.46s16.83-29.63,35.66-22.41c-8.56,10.66-9.7,31-9.7,31Z"/><path class="g" d="M158.28,372.64s3.61-27.59,11.56-31.23C151.42,329.43,130.1,357,130.1,357s-16.61-10.9-13-35.22c-27.81,0-39.73,39.94-39.73,39.94s-14.81-16.34,0-62.45c-51.65-2.55-55.63,58.09-55.63,58.09S5.85,326.89-23,343.59C.07,355.21-7.88,372.64-7.88,372.64Z"/><path class="g" d="M820.58,376.59s2.82-21.58,9-24.42c-14.41-9.37-31.07,12.21-31.07,12.21s-13-8.52-10.17-27.54c-21.75,0-31.07,31.23-31.07,31.23s-11.58-12.78,0-48.84c-40.4-2-43.5,45.43-43.5,45.43s-12.43-23.85-35-10.79c18.08,9.09,11.87,22.72,11.87,22.72Z"/><rect class="g" x="-8" y="380.26" width="1053.51" height="400.92"/><rect class="a" x="181.16" y="-3.46" width="340.45" height="540.47" rx="12"/></g></g><ellipse class="f" cx="517.93" cy="575.5" rx="156.34" ry="69.03"/><path class="h" d="M531,462.3h0c-36.62,0-76.59-10.76-76.59-56.59,0-35.17,20.71-65.25,20-83.71s-10.29-42-10-76.23,30-66.59,66.59-66.59h0c36.62,0,66.46,34.81,66.58,66.59s-11.12,62.69-10,76.23,20,46.88,20,83.71C607.59,452.54,567.63,462.3,531,462.3Z"/><path class="i" d="M501.2,195.31a46.37,46.37,0,0,0-63-18.34"/><rect class="h" x="555.34" y="143.76" width="23.27" height="68.26" rx="3.6"/><rect class="j" x="383.38" y="190.35" width="5.07" height="18.88" rx="0.78" transform="translate(399.87 634.14) rotate(-119.21)"/><rect class="j" x="398.18" y="201.62" width="5.07" height="18.88" rx="0.78" transform="translate(72.54 -101.06) rotate(15.79)"/><rect class="j" x="382.81" y="169.98" width="5.07" height="18.88" rx="0.78" transform="translate(107.84 501.41) rotate(-74.21)"/><circle class="k" cx="413.76" cy="184.23" r="24.47"/><path class="h" d="M435.12,172.28a24.49,24.49,0,0,0-23.9-12.4,24.47,24.47,0,0,1,.07,48.69,24.47,24.47,0,0,0,23.83-36.29Z"/><path class="h" d="M397.39,196.17a24.49,24.49,0,0,1,18.83-36.29,24.47,24.47,0,1,0,.07,48.69A24.44,24.44,0,0,1,397.39,196.17Z"/><circle class="j" cx="420.76" cy="184.23" r="10.65"/><rect class="j" x="562.3" y="94.8" width="5.07" height="18.88" rx="0.78" transform="matrix(1, -0.1, 0.1, 1, -7.37, 54.34)"/><rect class="j" x="546.03" y="103.82" width="5.07" height="18.88" rx="0.78" transform="translate(985.06 -237.77) rotate(129.53)"/><rect class="j" x="581.18" y="102.48" width="5.07" height="18.88" rx="0.78" transform="translate(204.71 -345.91) rotate(39.53)"/><circle class="k" cx="567.88" cy="136" r="24.47"/><path class="h" d="M592.16,133a24.47,24.47,0,0,1-48.57-.05,25.2,25.2,0,0,0-.08,5.36,24.48,24.48,0,0,0,48.73-4.67C592.22,133.45,592.19,133.23,592.16,133Z"/><path class="h" d="M543.53,138.47a24.47,24.47,0,0,1,48.69.05,23.9,23.9,0,0,0,0-4.86,24.48,24.48,0,1,0-48.73,4.67A.68.68,0,0,1,543.53,138.47Z"/><circle class="j" cx="577.88" cy="136" r="10.65"/><path class="h" d="M417.2,336c2.52-.56,4.25-2.54,3.83-4.4l-2.16-9.76c-.42-1.86-2.82-2.92-5.34-2.36h0c-2.52.56-4.25,2.54-3.83,4.4l2.16,9.75C412.27,335.51,414.66,336.57,417.2,336Z"/><path class="l" d="M397.38,324a78.14,78.14,0,0,1,109.4-16.18"/><path class="h" d="M646,336c-2.52-.56-4.24-2.54-3.83-4.4l2.17-9.76c.41-1.86,2.81-2.92,5.33-2.36h0c2.53.56,4.25,2.54,3.84,4.4l-2.17,9.75C650.9,335.51,648.5,336.57,646,336Z"/><path class="l" d="M665.78,324a78.07,78.07,0,0,0-109.4-16.18"/><path class="j" d="M554.54,262.53a6.85,6.85,0,0,1-6.84,6.83h0a6.85,6.85,0,0,1-6.83-6.83v-5.41h-2v5.41a6.84,6.84,0,0,1-13.68,0v-5.41h-2.24v5.41a6.84,6.84,0,0,1-13.68,0v-5.41h-8.85a30.63,30.63,0,0,0,61.26,0h-7.1Z"/><path class="m" d="M509.23,262.53a6.84,6.84,0,0,0,13.68,0v-5.41H509.23Z"/><path class="m" d="M525.15,262.53a6.84,6.84,0,0,0,13.68,0v-5.41H525.15Z"/><path class="m" d="M540.87,262.53a6.85,6.85,0,0,0,6.83,6.83h0a6.85,6.85,0,0,0,6.84-6.83v-5.41H540.87Z"/><path class="n" d="M601.54,366.54c-.65-2.3-1.33-4.54-2-6.73H463.9c-.77,2.2-1.54,4.44-2.28,6.73Z"/><path class="o" d="M599.53,359.81c-1.25-3.95-2.52-7.71-3.77-11.26H468c-1.3,3.59-2.69,7.35-4.07,11.26Z"/><path class="n" d="M595.76,348.54c-.82-2.34-1.62-4.59-2.39-6.73h-123c-.74,2.17-1.53,4.42-2.37,6.73Z"/><path class="n" d="M589.53,330.54a54.8,54.8,0,0,1-1.7-6.73H474.43a39.19,39.19,0,0,1-.89,6.73Z"/><path class="o" d="M593.37,341.81c-1.49-4.18-2.82-8-3.84-11.26h-116a101.67,101.67,0,0,1-3.2,11.26Z"/><path class="h" d="M615.36,453.19c-1-1,1.84-5.27,6.24-9.52h0c4.39-4.24,8.76-6.9,9.72-5.91l15.49,16-16,15.44Z"/><path class="h" d="M580.21,447.85c-2.28-.41-3.26-5.66-2.2-11.67h0c1.07-6,3.81-10.6,6.08-10.2l36.74,6.53-3.89,21.87Z"/><path class="k" d="M670.17,477.89a11.18,11.18,0,0,1-.27,15.76h0a11.18,11.18,0,0,1-15.76-.27l-12.75-13.19,16-15.49Z"/><rect class="k" x="631.66" y="464.47" width="22.29" height="2.29" transform="translate(-142.99 577.55) rotate(-44.03)"/><rect class="k" x="630.07" y="462.82" width="22.29" height="2.29" transform="translate(-142.29 575.98) rotate(-44.03)"/><rect class="k" x="637.47" y="470.48" width="22.29" height="2.29" transform="translate(-145.53 583.28) rotate(-44.03)"/><rect class="k" x="635.87" y="468.83" width="22.29" height="2.29" transform="translate(-144.83 581.71) rotate(-44.03)"/><rect class="k" x="628.48" y="461.18" width="22.29" height="2.29" transform="translate(-141.59 574.42) rotate(-44.03)"/><rect class="j" x="633.77" y="465.91" width="22.29" height="3.78" transform="translate(-143.91 579.63) rotate(-44.03)"/><rect class="p" x="648.5" y="469.75" width="25.57" height="29.91" rx="2.58" transform="translate(1473.63 373.64) rotate(135.97)"/><path class="q" d="M657.87,475.4c.74,1.11,6.19,5.72,6.59,5.45s-1.85-7-2.59-8.15a2.41,2.41,0,0,0-4,2.7Z"/><path class="q" d="M655.73,480.06c1.32-.15,8.36,1,8.42,1.46s-6.55,3.18-7.87,3.33a2.41,2.41,0,1,1-.55-4.79Z"/><path class="q" d="M674.68,468.79c-4-1.8-8.2,6.79-2.35,12.63"/><path class="p" d="M663.67,489.77a12.5,12.5,0,0,1,17.67.31l-18,17.37A12.5,12.5,0,0,1,663.67,489.77Z"/><path class="r" d="M669.15,472.58a21,21,0,0,1,29.77.5l-30.28,29.27A21.06,21.06,0,0,1,669.15,472.58Z"/><path class="q" d="M668.27,472.73c-2.35,2.27-3,6.3,0,11.51"/><path class="q" d="M666.48,475.58c0,1.16,2.22,5.82,6,6.15"/><path class="q" d="M664.37,478.09c-1.17,1.14.24,6.12,4,6.39"/><path class="q" d="M672.33,481.42a9.11,9.11,0,0,1-2.49-9.26,7.19,7.19,0,0,1,.79-1.7,5.24,5.24,0,0,1,.9-1.06"/><ellipse class="h" cx="623.05" cy="445.4" rx="13.89" ry="14.09" transform="translate(-124.76 280) rotate(-23.09)"/><path class="h" d="M450.23,462.45c1.38,0,2.41,5,2.29,11.15h0c-.13,6.11-1.36,11.08-2.74,11l-22.28-.45L428,462Z"/><path class="h" d="M463.78,426.63c1.46-2.51,7-2.05,12.25,1h0c5.28,3.08,8.4,7.65,6.93,10.16l-23.67,40.59-19.18-11.19Z"/><path class="k" d="M393.94,483.55A11.18,11.18,0,0,1,383,472.18h0a11.18,11.18,0,0,1,11.37-10.91l18.35.37-.46,22.29Z"/><rect class="k" x="410.86" y="471.83" width="22.29" height="2.29" transform="translate(-59.48 885.25) rotate(-88.83)"/><rect class="k" x="413.15" y="471.88" width="22.29" height="2.29" transform="translate(-57.28 887.59) rotate(-88.83)"/><rect class="k" x="402.51" y="471.66" width="22.29" height="2.29" transform="translate(-67.49 876.74) rotate(-88.83)"/><rect class="k" x="404.8" y="471.71" width="22.29" height="2.29" transform="translate(-65.29 879.07) rotate(-88.83)"/><rect class="k" x="415.44" y="471.93" width="22.29" height="2.29" transform="translate(-55.09 889.92) rotate(-88.83)"/><rect class="j" x="407.83" y="471.03" width="22.29" height="3.78" transform="translate(-62.39 882.16) rotate(-88.83)"/><rect class="p" x="382.66" y="457.51" width="25.57" height="29.91" rx="2.58" transform="translate(-84.98 858.19) rotate(-88.83)"/><path class="q" d="M404.42,476.65c-1.3-.26-8.42.31-8.51.78s6.27,3.7,7.58,3.95a2.41,2.41,0,1,0,.93-4.73Z"/><path class="q" d="M402.66,471.84c-.83,1-6.63,5.2-7,4.9s2.4-6.87,3.23-7.91a2.41,2.41,0,0,1,3.77,3Z"/><path class="q" d="M397.15,493.19c4.11-1.55,1-10.6-7.23-10.62"/><path class="p" d="M390.18,470.54a12.5,12.5,0,0,1-12.75,12.24l.51-25A12.5,12.5,0,0,1,390.18,470.54Z"/><path class="r" d="M398.41,486.61a21.06,21.06,0,0,1-21.48,20.62l.86-42.11A21.06,21.06,0,0,1,398.41,486.61Z"/><path class="q" d="M398.93,485.88c.07-3.27-2.32-6.58-8.09-8.19"/><path class="q" d="M398.18,482.59c-.8-.83-5.66-2.56-8.56-.15"/><path class="q" d="M397.91,479.32c0-1.63-4.48-4.17-7.34-1.72"/><path class="q" d="M389.92,482.57a9.1,9.1,0,0,1,8.29,4.82,6.94,6.94,0,0,1,.64,1.76,5.13,5.13,0,0,1,.1,1.39"/><ellipse class="h" cx="450.27" cy="473.4" rx="13.89" ry="14.09" transform="translate(-157.77 712.43) rotate(-67.89)"/><g class="s"><g class="t"><path class="g" d="M138.84,378c-189.19,0-324.36,3.86-556.34-5.64-211.61-8.68-762.59.11-762.59.11v12.28c30.42,2.37,60.42,3.93,91.23,7.08,30.83,1.38,60.27-4.15,89.7-5.53,36.44-4.15,74.28,1.38,110.71,1.38,42.05,1.38,85.5,1.38,127.54,0,206-11.06,412,11.06,618.05,4.15,57.47-1.38,114.93-2.77,173.79,0,107.91,8.3,213-15.21,322.34-2.77,50.06,7.06,98.1-.89,148.42-10.23v-6.47S328,378,138.84,378Z"/><path class="g" d="M488.39,377.26s3.21-24.54,10.28-27.78c-16.39-10.65-35.34,13.89-35.34,13.89s-14.78-9.69-11.57-31.33c-24.74,0-35.35,35.53-35.35,35.53s-13.17-14.53,0-55.55c-45.94-2.26-49.47,51.68-49.47,51.68s-14.14-27.14-39.85-12.28c20.57,10.34,13.5,25.84,13.5,25.84Z"/></g></g></svg>