<svg xmlns="http://www.w3.org/2000/svg" viewBox="0 0 1042.95 696.83"><defs><style>.a{fill:#f7f9ec;}.b{fill:#f5b333;}.c{fill:#143241;}.d{fill:none;stroke:#fff;stroke-linecap:round;stroke-miterlimit:10;stroke-width:0.75px;}.e{fill:#334e5d;}.f{fill:#694b7f;}</style></defs><title>hotspot_leap_legs</title><path class="a" d="M606.45,482.24a11.19,11.19,0,0,0,10.29-11.95h0A11.17,11.17,0,0,0,604.8,460l-18.3,1.36,1.66,22.23Z"/><rect class="a" x="581.28" y="461.71" width="2.29" height="22.29" transform="translate(-33.56 44.63) rotate(-4.27)"/><rect class="b" x="583.56" y="461.48" width="3.78" height="22.29" transform="translate(-33.53 44.86) rotate(-4.27)"/><rect class="c" x="591.57" y="456.29" width="25.57" height="29.91" rx="2.58" transform="translate(179.37 1108.97) rotate(-94.27)"/><path class="d" d="M595.61,475.91c1.29-.33,8.43-.15,8.54.32s-6.06,4-7.35,4.36a2.41,2.41,0,0,1-1.19-4.68Z"/><path class="d" d="M597.11,471c.89,1,6.9,4.84,7.26,4.51s-2.77-6.73-3.66-7.72a2.41,2.41,0,1,0-3.6,3.21Z"/><path class="d" d="M603.77,492c-4.19-1.32-1.6-10.52,6.64-11"/><path class="c" d="M609.51,469a12.49,12.49,0,0,0,13.39,11.53L621,455.64A12.5,12.5,0,0,0,609.51,469Z"/><path class="e" d="M602.15,485.53A21.07,21.07,0,0,0,624.72,505l-3.13-42A21.06,21.06,0,0,0,602.15,485.53Z"/><path class="d" d="M601.6,484.82c-.25-3.25,1.95-6.69,7.64-8.61"/><path class="d" d="M602.17,481.51c.75-.88,5.51-2.87,8.54-.62"/><path class="d" d="M602.26,478.23c-.12-1.63,4.24-4.41,7.23-2.12"/><path class="d" d="M610.41,481a9.11,9.11,0,0,0-8,5.25,6.67,6.67,0,0,0-.53,1.8,5,5,0,0,0,0,1.39"/><rect class="f" x="573.81" y="462.18" width="7.51" height="22.18" transform="translate(-33.6 44.27) rotate(-4.27)"/><path class="f" d="M561.09,463.32c-.74.05-1,5.07-.52,11.15h0c.46,6.09,1.43,11,2.17,11l11.9-.89L573,462.43Z"/><path class="f" d="M558.66,444.31c-.73-1.58-5.86-.77-11.39,1.8h0c-5.53,2.57-9.46,6-8.72,7.54l11.85,25.53,20.11-9.34Z"/><ellipse class="f" cx="562.41" cy="472.85" rx="14.09" ry="13.89" transform="translate(-88.15 814.42) rotate(-67.76)"/></svg>