<svg xmlns="http://www.w3.org/2000/svg" xmlns:xlink="http://www.w3.org/1999/xlink" viewBox="0 0 1042.95 696.83"><defs><style>.a,.f{fill:none;}.b{fill:#5978b9;}.c{fill:#f7f9ec;}.d{fill:#0f2436;}.e{fill:#143241;}.f{stroke:#fff;stroke-linecap:round;stroke-miterlimit:10;stroke-width:0.75px;}.g{fill:#334e5d;}.h{clip-path:url(#a);}.i{clip-path:url(#b);}.j{fill:#c7db5e;}.k{clip-path:url(#c);}</style><clipPath id="a"><rect class="a" y="-765.59" width="1042.95" height="696.83" rx="42.08" transform="translate(1042.95 -834.35) rotate(180)"/></clipPath><clipPath id="b"><rect class="a" y="-765.59" width="1042.95" height="696.83"/></clipPath><clipPath id="c"><rect class="a" x="-1161.23" y="-765.94" width="1042.95" height="696.83" rx="42.08" transform="translate(-1279.52 -835.04) rotate(180)"/></clipPath></defs><title>hotspot_leap_legs</title><path class="b" d="M440.5,452.85c1-1-1.85-5.28-6.24-9.52h0c-4.39-4.25-8.77-6.91-9.73-5.92l-15.49,16,16,15.43Z"/><path class="b" d="M475.65,447.5c2.27-.4,3.26-5.65,2.19-11.67h0c-1.07-6-3.81-10.6-6.08-10.19L435,432.17,438.91,454Z"/><path class="c" d="M385.68,477.55a11.18,11.18,0,0,0,.27,15.76h0a11.19,11.19,0,0,0,15.76-.27l12.75-13.2-16-15.49Z"/><rect class="c" x="411.9" y="454.12" width="2.29" height="22.29" transform="translate(-208.55 438.92) rotate(-45.97)"/><rect class="c" x="413.49" y="452.48" width="2.29" height="22.29" transform="translate(-206.89 439.56) rotate(-45.97)"/><rect class="c" x="406.1" y="460.13" width="2.29" height="22.29" transform="translate(-214.64 436.57) rotate(-45.97)"/><rect class="c" x="407.69" y="458.49" width="2.29" height="22.29" transform="translate(-212.98 437.22) rotate(-45.97)"/><rect class="c" x="415.09" y="450.83" width="2.29" height="22.29" transform="translate(-205.22 440.2) rotate(-45.97)"/><rect class="d" x="409.05" y="456.31" width="3.78" height="22.29" transform="translate(-210.77 438.07) rotate(-45.97)"/><rect class="e" x="381.78" y="469.4" width="25.57" height="29.91" rx="2.58" transform="translate(447.47 -138.12) rotate(44.03)"/><path class="f" d="M398,475.06c-.74,1.1-6.19,5.71-6.59,5.44s1.85-7,2.6-8.14a2.41,2.41,0,1,1,4,2.7Z"/><path class="f" d="M400.13,479.71c-1.33-.15-8.37,1-8.43,1.46s6.55,3.18,7.87,3.33a2.41,2.41,0,1,0,.56-4.79Z"/><path class="f" d="M381.17,468.45c4-1.8,8.2,6.79,2.35,12.63"/><path class="e" d="M392.18,489.43a12.5,12.5,0,0,0-17.67.3l18,17.37A12.49,12.49,0,0,0,392.18,489.43Z"/><path class="g" d="M386.7,472.23a21,21,0,0,0-29.77.51L387.21,502A21.06,21.06,0,0,0,386.7,472.23Z"/><path class="f" d="M387.59,472.38c2.34,2.27,3,6.3,0,11.51"/><path class="f" d="M389.37,475.24c0,1.15-2.21,5.81-6,6.14"/><path class="f" d="M391.48,477.75c1.18,1.13-.23,6.12-4,6.39"/><path class="f" d="M383.52,481.08a9.1,9.1,0,0,0,2.49-9.27,7.11,7.11,0,0,0-.79-1.69,5.24,5.24,0,0,0-.9-1.06"/><ellipse class="b" cx="432.81" cy="445.05" rx="14.09" ry="13.89" transform="translate(-146.32 668.67) rotate(-66.91)"/><g class="h"><g class="i"><rect class="j" x="-8" y="-385.68" width="1053.51" height="400.92"/></g></g></svg>