<svg xmlns="http://www.w3.org/2000/svg" viewBox="0 0 1042.95 696.83"><defs><style>.a{fill:#4bb0ac;}.b{fill:#e8676b;}.c{fill:#f7f9ec;}.d{fill:#fad781;}.e{fill:#143241;}.f{fill:none;stroke:#fff;stroke-linecap:round;stroke-miterlimit:10;stroke-width:0.75px;}.g{fill:#334e5d;}</style></defs><title>hotspot_leap_legs</title><path class="a" d="M529.89,418.4c-4-1.6-5.55-7.41-3.37-12.91h0c2.18-5.51,7.26-8.71,11.3-7.11L603,424.18l-7.93,20Z"/><path class="a" d="M591.82,443.12c-1.6-2.12,1-6.78,5.69-10.34h0c4.73-3.57,9.91-4.75,11.51-2.62l25.84,34.28-17.19,13Z"/><rect class="b" x="611.99" y="462.62" width="21.53" height="7.3" transform="translate(-155.21 468.81) rotate(-37.01)"/><ellipse class="a" cx="597.87" cy="433.74" rx="13.61" ry="13.42" transform="translate(-140.64 447.28) rotate(-37.01)"/><path class="c" d="M647.75,481.54a10.79,10.79,0,0,1-2.12,15.07h0a10.79,10.79,0,0,1-15.08-2.11l-10.67-14.16,17.2-13Z"/><rect class="c" x="614.85" y="468.96" width="21.53" height="2.21" transform="translate(-156.92 471.3) rotate(-37.01)"/><rect class="d" x="616.62" y="470.58" width="21.53" height="3.65" transform="translate(-157.97 472.83) rotate(-37.01)"/><rect class="e" x="626.08" y="472.57" width="24.7" height="28.9" rx="2.07" transform="translate(1441.39 491.61) rotate(142.99)"/><rect class="e" x="625.85" y="472.41" width="25.57" height="29.91" rx="2.58" transform="translate(1441.96 493.68) rotate(143.1)"/><path class="f" d="M636.39,477.71c.61,1.19,5.44,6.44,5.87,6.22s-1-7.21-1.57-8.4a2.41,2.41,0,1,0-4.3,2.18Z"/><path class="f" d="M633.69,482.07c1.33,0,8.18,2,8.18,2.49s-6.9,2.34-8.23,2.33a2.41,2.41,0,1,1,.05-4.82Z"/><path class="f" d="M653.9,473.24c-3.76-2.28-9,5.72-3.9,12.24"/><path class="e" d="M640.36,492.69a12.51,12.51,0,0,1,17.51,2.49l-20,15A12.5,12.5,0,0,1,640.36,492.69Z"/><path class="g" d="M647.94,476.31a21,21,0,0,1,29.48,4.19l-33.68,25.29A21.06,21.06,0,0,1,647.94,476.31Z"/><path class="f" d="M647,476.35c-2.61,2-3.75,5.88-1.45,11.42"/><path class="f" d="M644.92,479c-.16,1.14,1.47,6,5.16,6.84"/><path class="f" d="M642.51,481.19c-1.31,1-.52,6.1,3.17,6.84"/><path class="f" d="M650,485.48a9.13,9.13,0,0,1-1.33-9.5,7.1,7.1,0,0,1,1-1.58,4.75,4.75,0,0,1,1-.94"/></svg>