<svg xmlns="http://www.w3.org/2000/svg" viewBox="0 0 1042.95 696.83"><defs><style>.a{fill:#f7f9ec;}.b{fill:#fad781;}.c{fill:#143241;}.d{fill:none;stroke:#fff;stroke-linecap:round;stroke-miterlimit:10;stroke-width:0.75px;}.e{fill:#334e5d;}.f{fill:#e8676b;}.g{fill:#4bb0ac;}</style></defs><title>hotspot_leap_legs</title><path class="a" d="M658.66,469.37a11.18,11.18,0,0,0,10-12.17h0a11.19,11.19,0,0,0-12.17-10L638.25,449l2.14,22.19Z"/><rect class="a" x="633.28" y="449.38" width="2.29" height="22.29" transform="translate(-41.44 63.31) rotate(-5.53)"/><rect class="b" x="635.55" y="449.08" width="3.78" height="22.29" transform="translate(-41.4 63.6) rotate(-5.53)"/><rect class="c" x="643.53" y="443.47" width="25.57" height="29.91" rx="2.58" transform="translate(263.3 1155.88) rotate(-95.53)"/><path class="d" d="M647.68,463.29c1.28-.36,8.42-.34,8.55.13s-6,4.16-7.26,4.51a2.41,2.41,0,1,1-1.29-4.64Z"/><path class="d" d="M649.07,458.35c.91,1,7,4.69,7.36,4.36s-2.92-6.67-3.83-7.65a2.41,2.41,0,0,0-3.53,3.29Z"/><path class="d" d="M656.19,479.22c-4.22-1.23-1.84-10.48,6.4-11.14"/><path class="c" d="M661.42,456.11a12.5,12.5,0,0,0,13.64,11.24l-2.41-24.89A12.5,12.5,0,0,0,661.42,456.11Z"/><path class="e" d="M654.43,472.75a21.05,21.05,0,0,0,23,18.93l-4.06-41.92A21.06,21.06,0,0,0,654.43,472.75Z"/><path class="d" d="M653.86,472.07c-.32-3.25,1.8-6.74,7.44-8.78"/><path class="d" d="M654.35,468.74c.74-.89,5.46-3,8.53-.8"/><path class="d" d="M654.37,465.45c-.15-1.62,4.15-4.5,7.19-2.27"/><path class="d" d="M662.59,468.08a9.14,9.14,0,0,0-7.91,5.44,7,7,0,0,0-.49,1.8,5.46,5.46,0,0,0,0,1.4"/><rect class="f" x="625.82" y="449.96" width="7.51" height="22.18" transform="translate(-41.52 62.84) rotate(-5.53)"/><path class="g" d="M585.12,454.15c-2.45.24-4,5.4-3.39,11.47h0c.59,6.07,3.08,10.84,5.53,10.6l39.64-3.84-2.13-22.07Z"/><path class="g" d="M567.75,409.24c-1.5-3.37-7.29-4.09-12.86-1.6h0c-5.56,2.49-8.89,7.28-7.39,10.64l24.29,54.4L592,463.63Z"/><ellipse class="g" cx="583.03" cy="465.61" rx="14.09" ry="13.89" transform="translate(-162.66 439.82) rotate(-36.63)"/></svg>