<svg xmlns="http://www.w3.org/2000/svg" viewBox="0 0 1042.95 696.83"><defs><style>.a{fill:#5978b9;}.b{fill:#f7f9ec;}.c{fill:#0f2436;}.d{fill:#143241;}.e{fill:none;stroke:#fff;stroke-linecap:round;stroke-miterlimit:10;stroke-width:0.75px;}.f{fill:#334e5d;}</style></defs><title>hotspot_leap_legs</title><path class="a" d="M450.23,462.45c1.38,0,2.41,5,2.29,11.15h0c-.13,6.11-1.36,11.08-2.74,11l-22.28-.45L428,462Z"/><path class="a" d="M463.78,426.63c1.46-2.51,7-2.05,12.25,1h0c5.28,3.08,8.4,7.65,6.93,10.16l-23.67,40.59-19.18-11.19Z"/><path class="b" d="M393.94,483.55A11.18,11.18,0,0,1,383,472.18h0a11.18,11.18,0,0,1,11.37-10.91l18.35.37-.46,22.29Z"/><rect class="b" x="410.86" y="471.83" width="22.29" height="2.29" transform="translate(-59.48 885.25) rotate(-88.83)"/><rect class="b" x="413.15" y="471.88" width="22.29" height="2.29" transform="translate(-57.28 887.59) rotate(-88.83)"/><rect class="b" x="402.51" y="471.66" width="22.29" height="2.29" transform="translate(-67.49 876.74) rotate(-88.83)"/><rect class="b" x="404.8" y="471.71" width="22.29" height="2.29" transform="translate(-65.29 879.07) rotate(-88.83)"/><rect class="b" x="415.44" y="471.93" width="22.29" height="2.29" transform="translate(-55.09 889.92) rotate(-88.83)"/><rect class="c" x="407.83" y="471.03" width="22.29" height="3.78" transform="translate(-62.39 882.16) rotate(-88.83)"/><rect class="d" x="382.66" y="457.51" width="25.57" height="29.91" rx="2.58" transform="translate(-84.98 858.19) rotate(-88.83)"/><path class="e" d="M404.42,476.65c-1.3-.26-8.42.31-8.51.78s6.27,3.7,7.58,3.95a2.41,2.41,0,1,0,.93-4.73Z"/><path class="e" d="M402.66,471.84c-.83,1-6.63,5.2-7,4.9s2.4-6.87,3.23-7.91a2.41,2.41,0,0,1,3.77,3Z"/><path class="e" d="M397.15,493.19c4.11-1.55,1-10.6-7.23-10.62"/><path class="d" d="M390.18,470.54a12.5,12.5,0,0,1-12.75,12.24l.51-25A12.5,12.5,0,0,1,390.18,470.54Z"/><path class="f" d="M398.41,486.61a21.06,21.06,0,0,1-21.48,20.62l.86-42.11A21.06,21.06,0,0,1,398.41,486.61Z"/><path class="e" d="M398.93,485.88c.07-3.27-2.32-6.58-8.09-8.19"/><path class="e" d="M398.18,482.59c-.8-.83-5.66-2.56-8.56-.15"/><path class="e" d="M397.91,479.32c0-1.63-4.48-4.17-7.34-1.72"/><path class="e" d="M389.92,482.57a9.1,9.1,0,0,1,8.29,4.82,6.94,6.94,0,0,1,.64,1.76,5.13,5.13,0,0,1,.1,1.39"/><ellipse class="a" cx="450.27" cy="473.4" rx="13.89" ry="14.09" transform="translate(-157.77 712.43) rotate(-67.89)"/></svg>