<svg xmlns="http://www.w3.org/2000/svg" viewBox="0 0 1042.95 696.83"><defs><style>.a{fill:#5978b9;}.b{fill:#f7f9ec;}.c{fill:#0f2436;}.d{fill:#143241;}.e{fill:none;stroke:#fff;stroke-linecap:round;stroke-miterlimit:10;stroke-width:0.75px;}.f{fill:#334e5d;}</style></defs><title>hotspot_leap_legs</title><path class="a" d="M605.62,462.1c-1.38,0-2.41,5-2.28,11.15h0c.12,6.11,1.35,11.08,2.73,11.05l22.28-.45-.45-22.2Z"/><path class="a" d="M592.07,426.29c-1.46-2.51-7-2.05-12.25,1h0c-5.28,3.08-8.39,7.65-6.93,10.17l23.67,40.58,19.19-11.18Z"/><path class="b" d="M661.91,483.21a11.19,11.19,0,0,0,10.92-11.37h0a11.19,11.19,0,0,0-11.37-10.92l-18.34.38.45,22.28Z"/><rect class="b" x="632.7" y="461.49" width="2.29" height="22.29" transform="translate(-9.5 13.02) rotate(-1.17)"/><rect class="b" x="630.41" y="461.53" width="2.29" height="22.29" transform="translate(-9.51 12.97) rotate(-1.17)"/><rect class="b" x="641.05" y="461.32" width="2.29" height="22.29" transform="translate(-9.5 13.19) rotate(-1.17)"/><rect class="b" x="638.76" y="461.36" width="2.29" height="22.29" transform="translate(-9.5 13.14) rotate(-1.17)"/><rect class="b" x="628.12" y="461.58" width="2.29" height="22.29" transform="translate(-9.51 12.93) rotate(-1.17)"/><rect class="c" x="634.99" y="461.43" width="3.78" height="22.29" transform="translate(-9.5 13.08) rotate(-1.17)"/><rect class="d" x="647.63" y="457.16" width="25.57" height="29.91" rx="2.58" transform="translate(201.86 1142.01) rotate(-91.17)"/><path class="e" d="M651.43,476.31c1.31-.26,8.42.3,8.51.77s-6.27,3.7-7.58,4a2.41,2.41,0,0,1-.93-4.73Z"/><path class="e" d="M653.19,471.49c.83,1,6.63,5.2,7,4.9s-2.41-6.87-3.24-7.91a2.41,2.41,0,1,0-3.77,3Z"/><path class="e" d="M658.7,492.84c-4.11-1.55-1-10.59,7.23-10.62"/><path class="d" d="M665.67,470.19a12.5,12.5,0,0,0,12.76,12.25l-.51-25A12.5,12.5,0,0,0,665.67,470.19Z"/><path class="f" d="M657.44,486.26a21.05,21.05,0,0,0,21.48,20.62l-.85-42.1A21.05,21.05,0,0,0,657.44,486.26Z"/><path class="e" d="M656.92,485.53c-.06-3.26,2.32-6.58,8.1-8.19"/><path class="e" d="M657.67,482.25c.8-.83,5.67-2.57,8.57-.15"/><path class="e" d="M657.94,479c0-1.64,4.48-4.18,7.34-1.72"/><path class="e" d="M665.93,482.22a9.13,9.13,0,0,0-8.29,4.82,7.18,7.18,0,0,0-.63,1.76,5.15,5.15,0,0,0-.11,1.39"/><ellipse class="a" cx="605.58" cy="473.05" rx="14.09" ry="13.89" transform="translate(-133.5 262.66) rotate(-22.11)"/></svg>