<svg xmlns="http://www.w3.org/2000/svg" viewBox="0 0 1042.95 696.83"><defs><style>.a{fill:#5978b9;}.b{fill:#f7f9ec;}.c{fill:#0f2436;}.d{fill:#143241;}.e{fill:none;stroke:#fff;stroke-linecap:round;stroke-miterlimit:10;stroke-width:0.75px;}.f{fill:#334e5d;}</style></defs><title>hotspot_leap_legs</title><path class="a" d="M615.36,453.19c-1-1,1.84-5.27,6.24-9.52h0c4.39-4.24,8.76-6.9,9.72-5.91l15.49,16-16,15.44Z"/><path class="a" d="M580.21,447.85c-2.28-.41-3.26-5.66-2.2-11.67h0c1.07-6,3.81-10.6,6.08-10.2l36.74,6.53-3.89,21.87Z"/><path class="b" d="M670.17,477.89a11.18,11.18,0,0,1-.27,15.76h0a11.18,11.18,0,0,1-15.76-.27l-12.75-13.19,16-15.49Z"/><rect class="b" x="631.66" y="464.47" width="22.29" height="2.29" transform="translate(-142.99 577.55) rotate(-44.03)"/><rect class="b" x="630.07" y="462.82" width="22.29" height="2.29" transform="translate(-142.29 575.98) rotate(-44.03)"/><rect class="b" x="637.47" y="470.48" width="22.29" height="2.29" transform="translate(-145.53 583.28) rotate(-44.03)"/><rect class="b" x="635.87" y="468.83" width="22.29" height="2.29" transform="translate(-144.83 581.71) rotate(-44.03)"/><rect class="b" x="628.48" y="461.18" width="22.29" height="2.29" transform="translate(-141.59 574.42) rotate(-44.03)"/><rect class="c" x="633.77" y="465.91" width="22.29" height="3.78" transform="translate(-143.91 579.63) rotate(-44.03)"/><rect class="d" x="648.5" y="469.75" width="25.57" height="29.91" rx="2.58" transform="translate(1473.63 373.64) rotate(135.97)"/><path class="e" d="M657.87,475.4c.74,1.11,6.19,5.72,6.59,5.45s-1.85-7-2.59-8.15a2.41,2.41,0,0,0-4,2.7Z"/><path class="e" d="M655.73,480.06c1.32-.15,8.36,1,8.42,1.46s-6.55,3.18-7.87,3.33a2.41,2.41,0,1,1-.55-4.79Z"/><path class="e" d="M674.68,468.79c-4-1.8-8.2,6.79-2.35,12.63"/><path class="d" d="M663.67,489.77a12.5,12.5,0,0,1,17.67.31l-18,17.37A12.5,12.5,0,0,1,663.67,489.77Z"/><path class="f" d="M669.15,472.58a21,21,0,0,1,29.77.5l-30.28,29.27A21.06,21.06,0,0,1,669.15,472.58Z"/><path class="e" d="M668.27,472.73c-2.35,2.27-3,6.3,0,11.51"/><path class="e" d="M666.48,475.58c0,1.16,2.22,5.82,6,6.15"/><path class="e" d="M664.37,478.09c-1.17,1.14.24,6.12,4,6.39"/><path class="e" d="M672.33,481.42a9.11,9.11,0,0,1-2.49-9.26,7.19,7.19,0,0,1,.79-1.7,5.24,5.24,0,0,1,.9-1.06"/><ellipse class="a" cx="623.05" cy="445.4" rx="13.89" ry="14.09" transform="translate(-124.76 280) rotate(-23.09)"/></svg>