<svg xmlns="http://www.w3.org/2000/svg" xmlns:xlink="http://www.w3.org/1999/xlink" viewBox="0 0 1042.95 696.83"><defs><style>.a,.e{fill:none;}.b{fill:#f7f9ec;}.c{fill:#49b56d;}.d{fill:#143241;}.e{stroke:#fff;stroke-linecap:round;stroke-miterlimit:10;stroke-width:0.75px;}.f{fill:#334e5d;}.g{fill:#742649;}.h{clip-path:url(#a);}.i{clip-path:url(#b);}.j{clip-path:url(#c);}.k{fill:#c7db5e;}</style><clipPath id="a"><rect class="a" x="-1173.2" y="-765.94" width="1042.95" height="696.83" rx="42.08" transform="translate(-1303.46 -835.04) rotate(180)"/></clipPath><clipPath id="b"><rect class="a" y="-765.94" width="1042.95" height="696.83" rx="42.08" transform="translate(1042.95 -835.04) rotate(180)"/></clipPath><clipPath id="c"><rect class="a" y="-765.94" width="1042.95" height="696.83"/></clipPath></defs><title>hotspot_leap_legs</title><path class="b" d="M394.4,462.85a11.16,11.16,0,0,0,.67,15.74h0a11.17,11.17,0,0,0,15.75-.67l12.4-13.52-16.41-15.07Z"/><rect class="b" x="417.2" y="442.1" width="2.29" height="22.29" transform="translate(-198.45 454.89) rotate(-47.45)"/><rect class="c" x="414.4" y="444.33" width="3.78" height="22.29" transform="translate(-200.76 454.11) rotate(-47.45)"/><rect class="d" x="390.67" y="454.47" width="25.57" height="29.91" rx="2.58" transform="translate(423.71 -149.22) rotate(42.55)"/><path class="e" d="M406.63,460c-.72,1.12-6,5.87-6.45,5.61s1.67-7.08,2.39-8.21a2.41,2.41,0,1,1,4.06,2.6Z"/><path class="e" d="M408.89,464.64c-1.33-.12-8.34,1.19-8.38,1.68s6.63,3,7.95,3.13a2.41,2.41,0,0,0,.43-4.81Z"/><path class="e" d="M389.65,453.87c4-1.91,8.37,6.57,2.68,12.56"/><path class="d" d="M401.2,474.56a12.5,12.5,0,0,0-17.66.75L402,492.22A12.49,12.49,0,0,0,401.2,474.56Z"/><path class="f" d="M395.28,457.51a21,21,0,0,0-29.75,1.27l31,28.48A21,21,0,0,0,395.28,457.51Z"/><path class="e" d="M396.17,457.63c2.4,2.21,3.15,6.23.32,11.51"/><path class="e" d="M398,460.44c.05,1.16-2.06,5.87-5.81,6.3"/><path class="e" d="M400.2,462.9c1.2,1.1-.08,6.12-3.83,6.49"/><path class="e" d="M392.33,466.43a9.11,9.11,0,0,0,2.25-9.32,6.6,6.6,0,0,0-.84-1.68,4.87,4.87,0,0,0-.93-1"/><rect class="g" x="417.84" y="438.53" width="7.51" height="22.18" transform="translate(-194.73 456.11) rotate(-47.45)"/><path class="g" d="M440.42,445.6c.5-.55-2.76-4.37-7.26-8.49h0c-4.49-4.12-8.57-7.05-9.07-6.51L416,439.4l16.34,15Z"/><path class="g" d="M487.53,435c3.22-1,4.44-6.53,2.69-12.38h0c-1.74-5.84-5.8-9.84-9-8.88l-52.07,15.51,6.33,21.25Z"/><ellipse class="g" cx="432.94" cy="439.55" rx="13.89" ry="14.09" transform="translate(-128.49 183.73) rotate(-20.94)"/><g class="i"><g class="j"><rect class="k" x="-8" y="-386.02" width="1053.51" height="400.92"/></g></g></svg>