<svg id="Layer_1" data-name="Layer 1" xmlns="http://www.w3.org/2000/svg" xmlns:xlink="http://www.w3.org/1999/xlink" viewBox="0 0 1042.95 696.83"><defs><style>.cls-1{fill:#00a7a4;}.cls-12,.cls-2,.cls-9{fill:none;stroke-linecap:round;stroke-miterlimit:10;}.cls-2{stroke:#00a7a4;stroke-width:22.86px;}.cls-3{fill:#4bb0ac;}.cls-4{fill:#f7f9ec;}.cls-5{fill:#0f2436;}.cls-6{fill:#e8676b;}.cls-7{fill:#fad781;}.cls-8{fill:#143241;}.cls-12,.cls-9{stroke:#fff;}.cls-9{stroke-width:0.75px;}.cls-10{fill:#334e5d;}.cls-11{fill:url(#linear-gradient);}.cls-12{stroke-width:0.73px;}.cls-13{fill:url(#linear-gradient-2);}</style><linearGradient id="linear-gradient" x1="570.3" y1="-94.76" x2="537.59" y2="-176.48" gradientTransform="matrix(0.91, 0.4, -0.4, 0.91, 390.24, 319.2)" gradientUnits="userSpaceOnUse"><stop offset="0" stop-color="#00a7a4"/><stop offset="0.58" stop-color="#4bb0ac"/></linearGradient><linearGradient id="linear-gradient-2" x1="836.33" y1="658.2" x2="873.8" y2="658.2" gradientUnits="userSpaceOnUse"><stop offset="0.03" stop-color="#334e5d"/><stop offset="0.9" stop-color="#173544"/><stop offset="0.99" stop-color="#143241"/></linearGradient></defs><path class="cls-1" d="M727.3,443.6A3.5,3.5,0,0,1,732,445l4.85,8.8a3.51,3.51,0,0,1-1.38,4.74h0a3.5,3.5,0,0,1-4.73-1.38l-4.85-8.79A3.49,3.49,0,0,1,727.3,443.6Z"/><path class="cls-2" d="M719.65,463.31c-.07,0,48,10.51,80,7.28C805.84,470,789,417.44,789,417.44"/><circle class="cls-3" cx="863.83" cy="420.96" r="103.2"/><circle class="cls-3" cx="846.59" cy="323.71" r="34.91"/><circle class="cls-3" cx="890.19" cy="323.71" r="17.46"/><circle class="cls-3" cx="880.19" cy="522.71" r="11.22"/><circle class="cls-3" cx="802.09" cy="346.03" r="22.32"/><circle class="cls-3" cx="926.55" cy="358.62" r="36.36"/><circle class="cls-3" cx="784.3" cy="457.32" r="36.36"/><circle class="cls-3" cx="760.63" cy="429.33" r="18.18"/><circle class="cls-3" cx="784.3" cy="457.32" r="36.36"/><circle class="cls-3" cx="778.81" cy="368.34" r="21.01"/><circle class="cls-3" cx="933.99" cy="476.67" r="33.04"/><circle class="cls-3" cx="771.82" cy="399.53" r="18.18"/><circle class="cls-3" cx="949.94" cy="443.63" r="23.39"/><circle class="cls-3" cx="957.68" cy="383.88" r="15.65"/><circle class="cls-3" cx="962.91" cy="411.15" r="17.59"/><circle class="cls-3" cx="802.09" cy="493.68" r="24.73"/><circle class="cls-3" cx="917.05" cy="505.38" r="11.7"/><circle class="cls-3" cx="903.5" cy="512.76" r="7.38"/><circle class="cls-3" cx="816.27" cy="515" r="11.7"/><circle class="cls-3" cx="860.27" cy="524" r="11.7"/><circle class="cls-3" cx="829.01" cy="518.41" r="4.26"/><circle class="cls-4" cx="833.69" cy="389.36" r="26.67"/><circle class="cls-5" cx="833.69" cy="389.36" r="11.6"/><circle class="cls-4" cx="898.31" cy="389.36" r="18.74"/><circle class="cls-5" cx="898.31" cy="389.36" r="8.15"/><path class="cls-5" d="M887,447.51a8,8,0,0,1-15.87,0H855.58v5.89a8,8,0,0,1-16.06,0v-5.89H812.7a51.12,51.12,0,0,0,24.41,43.6c2.3-12,13.39-21.08,26.72-21.08s24.42,9.09,26.72,21.08A51.13,51.13,0,0,0,915,447.51Z"/><path class="cls-6" d="M863.83,470c-13.33,0-24.42,9.09-26.72,21.08a51.17,51.17,0,0,0,53.44,0C888.25,479.12,877.17,470,863.83,470Z"/><path class="cls-4" d="M847.55,461.43a8,8,0,0,0,8-8v-5.89H839.52v5.89A8,8,0,0,0,847.55,461.43Z"/><path class="cls-4" d="M879.09,454.35a8.06,8.06,0,0,0,7.94-6.84H871.16A8.06,8.06,0,0,0,879.09,454.35Z"/><path class="cls-4" d="M971.78,588.23a11.17,11.17,0,0,0,13.65-7.88h0a11.18,11.18,0,0,0-7.88-13.65L959.83,562l-5.77,21.53Z"/><rect class="cls-4" x="941.05" y="570.3" width="22.29" height="2.29" transform="translate(153.87 1343.4) rotate(-75.01)"/><rect class="cls-7" x="943.98" y="570.34" width="22.29" height="3.78" transform="translate(155.28 1346.81) rotate(-75.01)"/><rect class="cls-8" x="960.64" y="562.21" width="25.57" height="29.91" rx="2.58" transform="translate(164.09 1368.14) rotate(-75.01)"/><path class="cls-9" d="M963.64,578.68c1.32.12,8,2.64,8,3.12s-7.06,1.81-8.38,1.69a2.41,2.41,0,1,1,.42-4.81Z"/><path class="cls-9" d="M966.67,574.55c.51,1.23,4.92,6.84,5.36,6.66s-.39-7.27-.9-8.5a2.41,2.41,0,1,0-4.46,1.84Z"/><path class="cls-9" d="M966,596.59c-3.52-2.63,2-10.46,9.9-8.18"/><path class="cls-8" d="M979,576.78a12.5,12.5,0,0,0,8.84,15.31l6.47-24.15A12.49,12.49,0,0,0,979,576.78Z"/><path class="cls-10" d="M966.64,589.92a21.06,21.06,0,0,0,14.89,25.79L992.43,575A21.06,21.06,0,0,0,966.64,589.92Z"/><path class="cls-9" d="M966.34,589.07c.85-3.15,4.06-5.67,10.06-5.61"/><path class="cls-9" d="M968,586.13c1-.58,6.15-.89,8.26,2.24"/><path class="cls-9" d="M969.15,583.06c.42-1.57,5.46-2.76,7.52.4"/><path class="cls-9" d="M975.92,588.41a9.14,9.14,0,0,0-9.31,2.31,7.31,7.31,0,0,0-1.1,1.52,5.53,5.53,0,0,0-.49,1.31"/><rect class="cls-6" x="936.39" y="566.49" width="22.18" height="7.51" transform="translate(151.54 1337.94) rotate(-75.01)"/><path class="cls-3" d="M908.26,548.19c-2.38-.63-5.62,3.66-7.2,9.56h0c-1.58,5.89-.92,11.23,1.46,11.87L941,579.92l5.74-21.42Z"/><path class="cls-3" d="M911.22,503.83c-.34-3.68-5.59-6.22-11.66-5.65h0c-6.07.56-10.76,4-10.42,7.7l5.51,59.31,22.08-2.05Z"/><ellipse class="cls-3" cx="905.03" cy="557.8" rx="14.09" ry="13.89" transform="translate(-138.34 761.74) rotate(-42.71)"/><path class="cls-3" d="M858.59,514.3c.64-3.72-3.6-7.59-9.43-8.61h0c-5.84-1-11.14,1.2-11.79,4.92l-10.44,60,21.21,3.69Z"/><path class="cls-3" d="M848.89,571c-1-2.47-6.28-2.72-11.79-.55h0c-5.5,2.17-9.21,6-8.24,8.45l15.75,39.94,20-7.9Z"/><rect class="cls-6" x="841.72" y="605.86" width="21.53" height="7.3" transform="translate(-164.13 355.1) rotate(-21.51)"/><ellipse class="cls-3" cx="837.74" cy="571.3" rx="13.61" ry="13.42" transform="translate(-151.15 347.03) rotate(-21.51)"/><path class="cls-4" d="M852.46,638.79a10.79,10.79,0,0,0,14,6.07h0a10.79,10.79,0,0,0,6.07-14L866,614.41l-20,7.89Z"/><rect class="cls-4" x="843.46" y="612.83" width="21.53" height="2.21" transform="translate(-165.63 356.05) rotate(-21.51)"/><rect class="cls-7" x="844.54" y="614.83" width="21.53" height="3.65" transform="translate(-166.56 356.63) rotate(-21.51)"/><rect class="cls-8" x="849.65" y="619.26" width="24.7" height="28.9" rx="2.07" transform="translate(-172.34 360.27) rotate(-21.51)"/><path class="cls-8" d="M878.12,641c1.92,5.1-1.2,13.46-1.2,13.46l-9.8-1.45,5.17-13.19Z"/><path class="cls-1" d="M910.49,465.57a3.5,3.5,0,0,1,4.94-.1l7.24,7a3.5,3.5,0,0,1,.09,4.93h0a3.5,3.5,0,0,1-4.93.1l-7.24-7A3.49,3.49,0,0,1,910.49,465.57Z"/><path class="cls-2" d="M909.05,486.66c-.07,0,49-4.22,78.55-16.81,5.72-2.43-26-47.58-26-47.58"/><path class="cls-11" d="M904.13,497a10.69,10.69,0,0,1-5-4.6l9.89-5.74,10.69-4.05a11.42,11.42,0,0,0-11.43-7.35c7.92-.59,41.18-4.51,65.56-12.49-4.62-8.55-13.53-22.45-21.58-33.94A11.43,11.43,0,0,1,971,415.7c.3.42,7.35,10.48,14.29,21.51,14,22.23,15.63,29,13.91,35a12.47,12.47,0,0,1-7.13,8.12c-13.11,5.58-30.93,10.25-53,13.9-8.5,1.4-15.9,2.36-20.61,2.91-2.62.3-4.72.52-6.17.67A16.06,16.06,0,0,1,904.13,497Z"/><path class="cls-8" d="M877.12,638c1.92,5.1-1.2,13.46-1.2,13.46l-9.8-1.45,5.17-13.19Z"/><path class="cls-8" d="M862.79,672.57c11-16,21.51-22.39,17.94-29-5.94-11-6.5-12.86-6.5-12.86l-23.91,7s3.18,7.79-4.35,11.39S862.23,673.39,862.79,672.57Z"/><path class="cls-12" d="M842.71,654.32c-.1-4.25,9.12-4.76,12.13,2.63"/><path class="cls-13" d="M846.15,645.86c-6.36,3.71-12.78,16.38-8.36,26.71h25c1-2,11-15.08,11-15.08C869.37,647.16,855.85,640.19,846.15,645.86Z"/><path class="cls-12" d="M846.62,645.13c2.9-1.24,6.73-.31,10.26,4.28"/><path class="cls-12" d="M849.83,644.61c1,.42,4.35,4.14,3.23,7.62"/><path class="cls-12" d="M852.84,652a8.8,8.8,0,0,0-7.32-5.68,6.77,6.77,0,0,0-1.81.07,5.18,5.18,0,0,0-1.28.41"/><path class="cls-12" d="M852.85,643.67c1.45-.63,5.37,2.49,4.2,6"/><path class="cls-12" d="M852.89,636.87c.7,1.07,2.77,7.65,2.38,7.9s-5.58-4.27-6.28-5.35a2.33,2.33,0,1,1,3.9-2.55Z"/><path class="cls-12" d="M857.84,636.7c-.63,1.12-2.26,7.82-1.86,8s5.29-4.64,5.92-5.76a2.33,2.33,0,1,0-4.06-2.29Z"/></svg>