<svg id="Layer_1" data-name="Layer 1" xmlns="http://www.w3.org/2000/svg" xmlns:xlink="http://www.w3.org/1999/xlink" viewBox="0 0 1042.95 696.83"><defs><style>.cls-1,.cls-11,.cls-13,.cls-8{fill:none;stroke-linecap:round;stroke-miterlimit:10;}.cls-1{stroke:#67263c;}.cls-1,.cls-11{stroke-width:19.74px;}.cls-2{fill:url(#linear-gradient);}.cls-3{fill:#622639;}.cls-4{fill:#742649;}.cls-5{fill:#f7f9ec;}.cls-6{fill:#49b56d;}.cls-7{fill:#143241;}.cls-13,.cls-8{stroke:#fff;}.cls-8{stroke-width:0.75px;}.cls-9{fill:#334e5d;}.cls-10{fill:#0f2436;}.cls-11{stroke:#622639;}.cls-12{fill:url(#linear-gradient-2);}.cls-13{stroke-width:0.73px;}.cls-14{fill:url(#linear-gradient-3);}</style><linearGradient id="linear-gradient" x1="-4458.1" y1="1426.33" x2="-4486.24" y2="1377.81" gradientTransform="translate(4210.68 3049.23) rotate(50.88)" gradientUnits="userSpaceOnUse"><stop offset="0" stop-color="#622639"/><stop offset="0.44" stop-color="#742649"/></linearGradient><linearGradient id="linear-gradient-2" x1="-71.82" y1="318.34" x2="-99.96" y2="269.81" gradientTransform="matrix(0.87, 0.5, -0.5, 0.87, 665.54, 264.03)" xlink:href="#linear-gradient"/><linearGradient id="linear-gradient-3" x1="344.92" y1="657.19" x2="382.39" y2="657.19" gradientUnits="userSpaceOnUse"><stop offset="0.03" stop-color="#334e5d"/><stop offset="0.9" stop-color="#173544"/><stop offset="0.99" stop-color="#143241"/></linearGradient></defs><path class="cls-1" d="M256.37,512.89c-.08,0,15,7.25,47.06,9.47,6.2.43,5.55-51,5.55-51"/><path class="cls-2" d="M248.53,518.93a9.24,9.24,0,0,1-2-5.48l9.86-.56,9.78,1.28a9.81,9.81,0,0,0-5.37-10.1c.12.06,11.76,5.44,36.6,7.88,1.27-8.55,1.91-25.88,1.73-40.43a9.87,9.87,0,0,1,19.74-.25c0,.48.14,11.83-.37,24-1,23.59-3.31,30.1-7.28,33.86a11.09,11.09,0,0,1-8.45,3.08,198.64,198.64,0,0,1-37.41-5.85c-3.54-1-6.77-2-9.58-3C253.5,522.47,250.49,521.35,248.53,518.93Z"/><path class="cls-3" d="M262.38,496.14a3.5,3.5,0,0,1,4.44,2.15l3.29,9.49a3.5,3.5,0,0,1-2.15,4.44h0a3.5,3.5,0,0,1-4.44-2.15l-3.29-9.49A3.48,3.48,0,0,1,262.38,496.14Z"/><path class="cls-4" d="M375.16,531.27c.65-3.72-3.6-7.59-9.43-8.6h0c-5.84-1-11.14,1.19-11.79,4.91l-10.44,60,21.22,3.69Z"/><path class="cls-4" d="M365.87,591.32c-.46-1.15-5.34-.32-10.85,1.86h0c-5.51,2.17-9.64,4.89-9.19,6l7.35,18.63,20-7.89Z"/><rect class="cls-4" x="350.29" y="604.84" width="21.53" height="7.3" transform="translate(-197.99 174.81) rotate(-21.51)"/><ellipse class="cls-4" cx="354.31" cy="593.27" rx="13.61" ry="13.42" transform="translate(-192.89 171.27) rotate(-21.51)"/><path class="cls-5" d="M361,637.77a10.79,10.79,0,0,0,14,6.07h0a10.8,10.8,0,0,0,6.07-14l-6.5-16.49-20,7.9Z"/><rect class="cls-5" x="352.03" y="611.8" width="21.53" height="2.21" transform="translate(-199.5 175.75) rotate(-21.51)"/><rect class="cls-6" x="353.11" y="613.81" width="21.53" height="3.65" transform="translate(-200.42 176.34) rotate(-21.51)"/><path class="cls-5" d="M455.33,585a11.19,11.19,0,0,0,5.49-14.78h0A11.18,11.18,0,0,0,446,564.75l-16.68,7.65,9.3,20.26Z"/><rect class="cls-5" x="428.39" y="573.43" width="2.29" height="22.29" transform="translate(-204.61 232.32) rotate(-24.64)"/><rect class="cls-6" x="430.41" y="572.17" width="3.78" height="22.29" transform="translate(-203.83 233.35) rotate(-24.64)"/><rect class="cls-7" x="436.75" y="560.48" width="25.57" height="29.91" rx="2.58" transform="translate(113.93 1223.95) rotate(-114.64)"/><path class="cls-8" d="M443,582.85c1.09-.75,7.84-3.07,8.12-2.67s-4.28,5.89-5.38,6.64a2.41,2.41,0,1,1-2.74-4Z"/><path class="cls-8" d="M442.67,577.74c1.17.62,8.15,2.13,8.37,1.7s-4.94-5.34-6.12-6a2.41,2.41,0,0,0-2.25,4.27Z"/><path class="cls-8" d="M456.23,595.12c-4.39.22-5.17-9.3,2.4-12.61"/><path class="cls-7" d="M453.6,571.57a12.49,12.49,0,0,0,16.57,6.15L459.75,555A12.49,12.49,0,0,0,453.6,571.57Z"/><path class="cls-9" d="M452.45,589.59A21.06,21.06,0,0,0,480.37,600l-17.56-38.28A21.06,21.06,0,0,0,452.45,589.59Z"/><path class="cls-8" d="M451.68,589.13c-1.36-3-.5-7,4.16-10.74"/><path class="cls-8" d="M451.06,585.82c.4-1.08,4.17-4.61,7.8-3.55"/><path class="cls-8" d="M450,582.71c-.68-1.48,2.45-5.61,6.05-4.5"/><path class="cls-8" d="M458.63,582.51a9.1,9.1,0,0,0-5.69,7.72,7.16,7.16,0,0,0,.12,1.87,4.83,4.83,0,0,0,.46,1.31"/><rect class="cls-4" x="421.38" y="575.57" width="7.51" height="22.18" transform="translate(-205.88 230.67) rotate(-24.64)"/><path class="cls-4" d="M406.22,583.07c-.67.31.86,5.09,3.4,10.64h0c2.54,5.54,5.17,9.82,5.84,9.51l10.86-5-9.25-20.16Z"/><path class="cls-4" d="M416.35,539.11c0-3.36-5-6.12-11.07-6.14h0c-6.1,0-11.09,2.72-11.1,6.09L394,593.39l22.17.05Z"/><ellipse class="cls-4" cx="407.6" cy="592.73" rx="14.09" ry="13.89" transform="translate(-293.94 433.63) rotate(-42.71)"/><rect class="cls-4" x="285.34" y="392.13" width="179.87" height="179.87" rx="89.93"/><circle class="cls-5" cx="335.8" cy="425.54" r="31"/><circle class="cls-10" cx="335.8" cy="425.54" r="13.48"/><circle class="cls-5" cx="414.98" cy="424.15" r="31"/><circle class="cls-10" cx="414.98" cy="424.15" r="13.48"/><path class="cls-10" d="M406.43,479.77a7.45,7.45,0,0,1-5.38,8.18l-1.23.34a7.45,7.45,0,0,1-9.12-5.2l-1.47-5.34a30.67,30.67,0,0,0-3.85.81c-.85.23-1.67.5-2.49.79l5,18.17a7.43,7.43,0,0,1-5.19,9.12l-1.23.34a7.44,7.44,0,0,1-9.12-5.19l-3.48-12.63a33,33,0,1,0,37.57-9.39Z"/><path class="cls-5" d="M381.46,507l1.23-.34a7.43,7.43,0,0,0,5.19-9.12l-5-18.17a32.77,32.77,0,0,0-14,9.81l3.48,12.63A7.44,7.44,0,0,0,381.46,507Z"/><path class="cls-5" d="M399.82,488.29l1.23-.34a7.45,7.45,0,0,0,5.38-8.18,32.79,32.79,0,0,0-17.2-2l1.47,5.34A7.45,7.45,0,0,0,399.82,488.29Z"/><path class="cls-11" d="M420.93,538.51c-.07,0,16.58,1.35,47.3-8.17,5.94-1.84-13.23-49.53-13.23-49.53"/><path class="cls-12" d="M415.8,547a9.29,9.29,0,0,1-3.86-4.39l9-4.08,9.58-2.34a9.81,9.81,0,0,0-8.65-7.48c.14,0,12.93.82,37-5.87-1.9-8.43-7.56-24.83-13-38.33a9.87,9.87,0,0,1,18.32-7.36c.18.45,4.4,11,8.32,22.5,7.62,22.36,7.79,29.27,5.44,34.21a11.09,11.09,0,0,1-6.77,5.93,198.72,198.72,0,0,1-37,8.05c-3.65.39-7,.61-10,.64C421.71,548.48,418.51,548.52,415.8,547Z"/><path class="cls-3" d="M420.48,520.72a3.51,3.51,0,0,1,4.92.4l6.5,7.66a3.51,3.51,0,0,1-.4,4.92h0a3.5,3.5,0,0,1-4.92-.41l-6.5-7.66A3.5,3.5,0,0,1,420.48,520.72Z"/><path class="cls-5" d="M361.05,637.79a10.78,10.78,0,0,0,14,6.06h0a10.79,10.79,0,0,0,6.07-14l-6.5-16.49-20,7.9Z"/><rect class="cls-7" x="358.24" y="618.25" width="24.7" height="28.9" rx="2.07" transform="matrix(0.93, -0.37, 0.37, 0.93, -206.21, 179.99)"/><path class="cls-7" d="M386.71,640c1.93,5.1-1.19,13.46-1.19,13.46L375.71,652l5.17-13.19Z"/><path class="cls-7" d="M385.71,637c1.93,5.1-1.19,13.46-1.19,13.46L374.71,649l5.17-13.19Z"/><path class="cls-7" d="M371.39,671.56c11-16,21.5-22.39,17.93-29-5.93-11-6.49-12.86-6.49-12.86l-23.92,7s3.18,7.78-4.35,11.39S370.82,672.39,371.39,671.56Z"/><path class="cls-13" d="M351.31,653.31c-.11-4.25,9.11-4.76,12.12,2.63"/><path class="cls-14" d="M354.74,644.85c-6.35,3.71-12.78,16.38-8.35,26.71h25c1-2,11-15.08,11-15.08C378,646.15,364.45,639.18,354.74,644.85Z"/><path class="cls-13" d="M355.21,644.12c2.9-1.24,6.73-.31,10.26,4.28"/><path class="cls-13" d="M358.42,643.6c1,.42,4.35,4.15,3.24,7.62"/><path class="cls-13" d="M361.43,651a8.8,8.8,0,0,0-7.31-5.68,6.74,6.74,0,0,0-1.81.07,4.93,4.93,0,0,0-1.28.41"/><path class="cls-13" d="M361.45,642.66c1.45-.62,5.36,2.5,4.2,6"/><path class="cls-13" d="M361.48,635.86c.71,1.08,2.78,7.65,2.39,7.91s-5.59-4.28-6.29-5.36a2.33,2.33,0,1,1,3.9-2.55Z"/><path class="cls-13" d="M366.43,635.69c-.63,1.12-2.26,7.82-1.85,8s5.28-4.64,5.91-5.76a2.33,2.33,0,1,0-4.06-2.29Z"/></svg>