<svg id="Layer_1" data-name="Layer 1" xmlns="http://www.w3.org/2000/svg" xmlns:xlink="http://www.w3.org/1999/xlink" viewBox="0 0 1042.95 696.83"><defs><style>.cls-1,.cls-14,.cls-9{fill:none;stroke-linecap:round;stroke-miterlimit:10;}.cls-1{stroke:#b33a54;stroke-width:23.08px;}.cls-2{fill:url(#linear-gradient);}.cls-3{fill:#b33a54;}.cls-4{fill:#e5496b;}.cls-5{fill:#f7f9ec;}.cls-6{fill:#fad781;}.cls-7{fill:#143241;}.cls-8{fill:url(#linear-gradient-2);}.cls-14,.cls-9{stroke:#fff;}.cls-9{stroke-width:0.73px;}.cls-10{fill:#0f2436;}.cls-11{fill:#e6444d;}.cls-12{fill:#7ecce7;}.cls-13{fill:#e8676b;}.cls-14{stroke-width:0.75px;}.cls-15{fill:#334e5d;}.cls-16{fill:url(#linear-gradient-3);}</style><linearGradient id="linear-gradient" x1="-1174.07" y1="-293.29" x2="-1174.07" y2="-389.3" gradientTransform="translate(939.52 1168.48) rotate(31.09)" gradientUnits="userSpaceOnUse"><stop offset="0.3" stop-color="#b23a53"/><stop offset="0.73" stop-color="#e5496b"/></linearGradient><linearGradient id="linear-gradient-2" x1="148.63" y1="456.98" x2="186.1" y2="456.98" gradientUnits="userSpaceOnUse"><stop offset="0.03" stop-color="#334e5d"/><stop offset="0.9" stop-color="#173544"/><stop offset="0.99" stop-color="#143241"/></linearGradient><linearGradient id="linear-gradient-3" x1="241.4" y1="324.45" x2="241.4" y2="228.44" gradientTransform="matrix(1, 0, 0, 1, 0, 0)" xlink:href="#linear-gradient"/></defs><path class="cls-1" d="M67.59,286.71c-.1,0,17.41,8.69,54.9,11.75,7.24.59,7.23-59.52,7.23-59.52"/><path class="cls-2" d="M58.33,293.66a10.79,10.79,0,0,1-2.27-6.44l11.53-.51L79,288.34a11.48,11.48,0,0,0-6.13-11.88c.14.07,13.67,6.53,42.68,9.74,1.61-10,2.62-30.24,2.62-47.26a11.54,11.54,0,1,1,23.08,0c0,.56,0,13.84-.77,28.05-1.48,27.58-4.31,35.16-9,39.49a13,13,0,0,1-9.93,3.49,232.93,232.93,0,0,1-43.66-7.39c-4.13-1.17-7.89-2.4-11.17-3.68C64.09,297.88,60.6,296.52,58.33,293.66Z"/><path class="cls-3" d="M74.86,267.21A4.09,4.09,0,0,1,80,269.79l3.72,11.14a4.1,4.1,0,0,1-2.59,5.16h0A4.08,4.08,0,0,1,76,283.51l-3.72-11.14A4.08,4.08,0,0,1,74.86,267.21Z"/><path class="cls-4" d="M170.89,313.07c.65-3.72-3.59-7.59-9.43-8.6h0c-5.83-1-11.14,1.19-11.78,4.91l-10.45,60,21.22,3.69Z"/><path class="cls-4" d="M161.2,369.81c-1-2.47-6.28-2.71-11.79-.54h0c-5.51,2.17-9.22,6-8.24,8.44l15.74,39.94,20-7.89Z"/><rect class="cls-4" x="154.02" y="404.64" width="21.53" height="7.3" transform="translate(-138.25 88.88) rotate(-21.51)"/><ellipse class="cls-4" cx="150.05" cy="370.08" rx="13.61" ry="13.42" transform="translate(-125.26 80.81) rotate(-21.51)"/><path class="cls-5" d="M164.76,437.57a10.8,10.8,0,0,0,14,6.07h0a10.8,10.8,0,0,0,6.07-14l-6.51-16.49-20,7.9Z"/><rect class="cls-5" x="155.77" y="411.6" width="21.53" height="2.21" transform="translate(-139.75 89.83) rotate(-21.51)"/><rect class="cls-6" x="156.84" y="413.61" width="21.53" height="3.65" transform="translate(-140.68 90.41) rotate(-21.51)"/><rect class="cls-7" x="161.95" y="418.04" width="24.7" height="28.9" rx="2.07" transform="translate(-146.46 94.06) rotate(-21.51)"/><path class="cls-7" d="M190.43,439.77c1.92,5.09-1.2,13.45-1.2,13.45l-9.8-1.45,5.16-13.19Z"/><path class="cls-7" d="M189.43,436.77c1.92,5.09-1.2,13.45-1.2,13.45l-9.8-1.45,5.16-13.19Z"/><path class="cls-7" d="M175.1,471.35c11-16,21.51-22.4,17.94-29-5.94-11-6.5-12.86-6.5-12.86l-23.92,7s3.18,7.78-4.35,11.39S174.53,472.17,175.1,471.35Z"/><path class="cls-8" d="M158.46,444.63c-6.36,3.72-12.79,16.39-8.36,26.72h25c1-2,11-15.09,11-15.09C181.68,445.94,168.16,439,158.46,444.63Z"/><path class="cls-9" d="M158.92,443.9c2.9-1.24,6.73-.31,10.27,4.29"/><path class="cls-9" d="M162.13,443.39c1,.41,4.35,4.14,3.24,7.61"/><path class="cls-9" d="M165.15,450.78a8.83,8.83,0,0,0-7.32-5.69,6.72,6.72,0,0,0-1.81.08,4.92,4.92,0,0,0-1.28.4"/><path class="cls-9" d="M165.16,442.44c1.45-.62,5.36,2.5,4.2,5.95"/><path class="cls-9" d="M165.19,435.64c.71,1.08,2.78,7.65,2.39,7.91s-5.58-4.28-6.29-5.36a2.33,2.33,0,0,1,3.9-2.55Z"/><path class="cls-9" d="M170.14,435.48c-.63,1.12-2.26,7.82-1.85,8s5.28-4.65,5.92-5.77a2.33,2.33,0,0,0-4.07-2.28Z"/><path class="cls-4" d="M212.59,222.24l-13.23-4a2.65,2.65,0,0,1-1.77-3.29l14.67-48.09a2.67,2.67,0,0,1,3.31-1.76l13.23,4a2.64,2.64,0,0,1,1.77,3.29L215.9,220.48A2.66,2.66,0,0,1,212.59,222.24Z"/><path class="cls-10" d="M236.17,111.94l-5.36-1.34a1.06,1.06,0,0,1-.77-1.28l6.41-25.42a1.07,1.07,0,0,1,1.29-.77l5.35,1.34a1.06,1.06,0,0,1,.77,1.28l-6.41,25.42A1.06,1.06,0,0,1,236.17,111.94Z"/><path class="cls-10" d="M214.24,115.67l4.73-2.82a1.05,1.05,0,0,0,.37-1.45L205.8,88.92a1.06,1.06,0,0,0-1.45-.36l-4.74,2.82a1,1,0,0,0-.36,1.44l13.54,22.49A1.06,1.06,0,0,0,214.24,115.67Z"/><path class="cls-10" d="M249.11,127.49l-2.84-4.71a1.06,1.06,0,0,1,.36-1.45l22.6-13.47a1.08,1.08,0,0,1,1.46.36l2.83,4.71a1.06,1.06,0,0,1-.36,1.45l-22.6,13.47A1.07,1.07,0,0,1,249.11,127.49Z"/><ellipse class="cls-4" cx="225.26" cy="143.93" rx="36.89" ry="36.7"/><path class="cls-10" d="M146,111.3l-5.31.9a1,1,0,0,1-1.19-.84l-4.31-25.23a1,1,0,0,1,.85-1.19l5.31-.9a1,1,0,0,1,1.19.84l4.31,25.24A1,1,0,0,1,146,111.3Z"/><path class="cls-4" d="M168.29,224.08l-13.63,2.3a2.66,2.66,0,0,1-3.06-2.16l-8.7-51a2.65,2.65,0,0,1,2.17-3.05l13.62-2.3a2.66,2.66,0,0,1,3.06,2.16l8.71,51A2.65,2.65,0,0,1,168.29,224.08Z"/><path class="cls-10" d="M127.92,123.21l3.11-4.37a1,1,0,0,0-.24-1.44l-21-14.81a1,1,0,0,0-1.45.25l-3.11,4.37a1,1,0,0,0,.24,1.43l21,14.81A1,1,0,0,0,127.92,123.21Z"/><path class="cls-10" d="M163.75,120.15l-4.39-3.1a1,1,0,0,1-.25-1.44L174,94.74a1,1,0,0,1,1.44-.24l4.4,3.1a1,1,0,0,1,.24,1.43l-14.89,20.88A1,1,0,0,1,163.75,120.15Z"/><ellipse class="cls-4" cx="148.92" cy="144.17" rx="36.02" ry="35.84"/><path class="cls-4" d="M115.52,255.75A70.61,70.61,0,1,0,246.43,219H125.83A70.32,70.32,0,0,0,115.52,255.75Z"/><path class="cls-4" d="M186.13,185.14a70.34,70.34,0,0,0-46.49,17.49h93A70.32,70.32,0,0,0,186.13,185.14Z"/><path class="cls-5" d="M232.62,202.63h-93c-1.09,1-2.15,2-3.18,3H235.8C234.77,204.59,233.71,203.59,232.62,202.63Z"/><path class="cls-5" d="M134.28,207.85q-1.89,2.06-3.63,4.24h111q-1.74-2.19-3.63-4.24Z"/><path class="cls-5" d="M125.83,219h120.6c-.54-.88-1.1-1.74-1.67-2.59H127.5C126.93,217.26,126.37,218.12,125.83,219Z"/><path class="cls-11" d="M235.8,205.61H136.46c-.74.73-1.47,1.48-2.18,2.24H238C237.27,207.09,236.54,206.34,235.8,205.61Z"/><path class="cls-12" d="M127.5,216.41H244.76q-1.5-2.22-3.15-4.32h-111Q129,214.19,127.5,216.41Z"/><path class="cls-10" d="M200.28,264.53a4.89,4.89,0,0,1-9.68,0h-9.5v3.59a4.9,4.9,0,0,1-9.8,0v-3.59H154.94a31.16,31.16,0,0,0,14.89,26.59c1.41-7.31,8.17-12.85,16.3-12.85s14.89,5.54,16.3,12.85a31.16,31.16,0,0,0,14.89-26.59Z"/><path class="cls-13" d="M186.13,278.27c-8.13,0-14.89,5.54-16.3,12.85a31.18,31.18,0,0,0,32.6,0C201,283.81,194.26,278.27,186.13,278.27Z"/><path class="cls-5" d="M176.2,273a4.91,4.91,0,0,0,4.9-4.9v-3.59h-9.8v3.59A4.91,4.91,0,0,0,176.2,273Z"/><path class="cls-5" d="M195.44,268.7a4.92,4.92,0,0,0,4.84-4.17H190.6A4.91,4.91,0,0,0,195.44,268.7Z"/><path class="cls-4" d="M206.35,359.51c-2.51-.66-5.83,3.65-7.39,9.58h0c-1.55,5.93-.77,11.32,1.74,12l40.5,10.61,5.65-21.56Z"/><path class="cls-4" d="M222.29,320.25c.43-3-4.19-6.09-10.26-7h0c-6.07-.87-11.38.84-11.8,3.81l-6.84,47.83,22.06,3.16Z"/><rect class="cls-4" x="236.53" y="378.08" width="22.29" height="7.55" transform="translate(-184.49 524.66) rotate(-75.32)"/><ellipse class="cls-4" cx="202.75" cy="368.17" rx="14.09" ry="13.89"/><path class="cls-5" d="M252.88,126.37a38.61,38.61,0,0,0-61.57,2.74,36.62,36.62,0,0,0,51.14,43.15,36.93,36.93,0,0,0,19.26-22.07A38.4,38.4,0,0,0,252.88,126.37Z"/><path class="cls-5" d="M160,114.87a37.7,37.7,0,0,0-45.67,27.51,38.1,38.1,0,0,0-1.09,10.38,35.89,35.89,0,0,0,67.52-24.32A37.5,37.5,0,0,0,160,114.87Z"/><ellipse class="cls-10" cx="223.79" cy="143.93" rx="16.05" ry="15.96"/><ellipse class="cls-10" cx="147.49" cy="144.17" rx="15.67" ry="15.59"/><path class="cls-5" d="M272.12,399.78a11.18,11.18,0,0,0,13.6-7.95h0a11.17,11.17,0,0,0-8-13.6L260,373.57l-5.65,21.56Z"/><rect class="cls-5" x="241.29" y="381.96" width="22.29" height="2.29" transform="translate(-182.14 530.2) rotate(-75.32)"/><rect class="cls-6" x="244.22" y="381.98" width="22.29" height="3.78" transform="translate(-180.69 533.61) rotate(-75.32)"/><rect class="cls-7" x="260.92" y="373.75" width="25.57" height="29.91" rx="2.58" transform="translate(-171.68 554.95) rotate(-75.32)"/><path class="cls-14" d="M263.92,390.28c1.33.11,8,2.59,8,3.07s-7,1.85-8.37,1.74a2.41,2.41,0,0,1,.4-4.81Z"/><path class="cls-14" d="M266.93,386.13c.51,1.23,4.95,6.81,5.4,6.63s-.44-7.27-.95-8.5a2.41,2.41,0,1,0-4.45,1.87Z"/><path class="cls-14" d="M266.4,408.17c-3.54-2.61,1.9-10.47,9.85-8.24"/><path class="cls-7" d="M279.29,388.29a12.5,12.5,0,0,0,8.92,15.26l6.34-24.18A12.5,12.5,0,0,0,279.29,388.29Z"/><path class="cls-15" d="M267,401.5a21.06,21.06,0,0,0,15,25.7l10.67-40.74A21.07,21.07,0,0,0,267,401.5Z"/><path class="cls-14" d="M266.68,400.65c.83-3.16,4-5.7,10-5.66"/><path class="cls-14" d="M268.3,397.7c1-.58,6.15-.92,8.28,2.19"/><path class="cls-14" d="M269.45,394.63c.42-1.58,5.45-2.8,7.53.35"/><path class="cls-14" d="M276.25,399.93A9.12,9.12,0,0,0,267,402.3a6.9,6.9,0,0,0-1.09,1.52,5.09,5.09,0,0,0-.48,1.31"/><path class="cls-1" d="M213.44,313c-.07.07,19.4-1.54,53.08-18.28C273,291.45,242,240,242,240"/><path class="cls-16" d="M209.11,323.71a10.82,10.82,0,0,1-5.28-4.34l9.61-6.4,10.63-4.5a11.49,11.49,0,0,0-11.39-7c.16,0,15.08-1.47,41.58-13.7-3.78-9.37-13.38-27.25-22.17-41.81A11.55,11.55,0,1,1,251.86,234c.28.48,7.14,11.85,13.82,24.41,13,24.39,14.47,32.34,12.68,38.48a13,13,0,0,1-6.7,8.11,232.28,232.28,0,0,1-41.2,16.22c-4.14,1.14-8,2-11.46,2.62C216.21,324.34,212.52,325,209.11,323.71Z"/><path class="cls-3" d="M209.6,292.52a4.08,4.08,0,0,1,5.75-.46l8.94,7.63a4.09,4.09,0,0,1,.45,5.75h0a4.08,4.08,0,0,1-5.75.45l-8.94-7.62A4.07,4.07,0,0,1,209.6,292.52Z"/></svg>