<svg id="Layer_1" data-name="Layer 1" xmlns="http://www.w3.org/2000/svg" xmlns:xlink="http://www.w3.org/1999/xlink" viewBox="0 0 1042.95 696.83"><defs><style>.cls-1{fill:#f4b330;}.cls-12,.cls-2,.cls-8{fill:none;stroke-linecap:round;stroke-miterlimit:10;}.cls-2{stroke:#f4b330;stroke-width:19.21px;}.cls-3{fill:#f27521;}.cls-4{fill:#f7f9ec;}.cls-5{fill:#5978b9;}.cls-6{fill:#143241;}.cls-7{fill:url(#linear-gradient);}.cls-12,.cls-8{stroke:#fff;}.cls-8{stroke-width:0.73px;}.cls-9{fill:#f5b332;}.cls-10{fill:#0f2436;}.cls-11{fill:#e8676b;}.cls-12{stroke-width:0.75px;}.cls-13{fill:#334e5d;}</style><linearGradient id="linear-gradient" x1="549.08" y1="456.98" x2="586.54" y2="456.98" gradientUnits="userSpaceOnUse"><stop offset="0.03" stop-color="#334e5d"/><stop offset="0.9" stop-color="#173544"/><stop offset="0.99" stop-color="#143241"/></linearGradient></defs><path class="cls-1" d="M497.74,300.47a2.94,2.94,0,0,1,4,1.15l4.07,7.39a2.93,2.93,0,0,1-1.15,4h0a2.94,2.94,0,0,1-4-1.15l-4.07-7.39A2.93,2.93,0,0,1,497.74,300.47Z"/><path class="cls-2" d="M491.32,317c-.07,0,40.33,8.83,67.21,6.11,5.2-.52-8.95-44.65-8.95-44.65"/><path class="cls-3" d="M577.32,325.72c.65-3.72-3.6-7.59-9.43-8.6h0c-5.84-1-11.14,1.19-11.79,4.91l-10.44,60,21.22,3.69Z"/><path class="cls-3" d="M566.39,381.86c-.68-1.72-5.75-1.36-11.26.81h0c-5.5,2.17-9.46,5.36-8.77,7.09l11,27.89,20-7.89Z"/><rect class="cls-3" x="554.47" y="404.64" width="21.53" height="7.3" transform="translate(-110.35 235.74) rotate(-21.51)"/><ellipse class="cls-3" cx="555.13" cy="385.76" rx="13.61" ry="13.42" transform="translate(-102.79 230.46) rotate(-21.51)"/><path class="cls-4" d="M565.2,437.57a10.8,10.8,0,0,0,14,6.07h0a10.8,10.8,0,0,0,6.07-14l-6.5-16.49-20,7.9Z"/><rect class="cls-4" x="556.21" y="411.6" width="21.53" height="2.21" transform="translate(-111.85 236.68) rotate(-21.51)"/><rect class="cls-5" x="557.28" y="413.61" width="21.53" height="3.65" transform="translate(-112.78 237.27) rotate(-21.51)"/><rect class="cls-6" x="562.39" y="418.04" width="24.7" height="28.9" rx="2.07" transform="translate(-118.56 240.91) rotate(-21.51)"/><path class="cls-6" d="M590.87,439.77c1.92,5.09-1.2,13.45-1.2,13.45l-9.8-1.45L585,438.58Z"/><path class="cls-6" d="M589.87,436.77c1.92,5.09-1.2,13.45-1.2,13.45l-9.8-1.45L584,435.58Z"/><path class="cls-6" d="M575.54,471.35c11-16,21.51-22.4,17.94-29-5.94-11-6.5-12.86-6.5-12.86l-23.92,7s3.18,7.78-4.35,11.39S575,472.17,575.54,471.35Z"/><path class="cls-7" d="M558.9,444.63c-6.36,3.72-12.79,16.39-8.36,26.72h25c1-2,11-15.09,11-15.09C582.12,445.94,568.6,439,558.9,444.63Z"/><path class="cls-8" d="M559.36,443.9c2.9-1.24,6.73-.31,10.27,4.29"/><path class="cls-8" d="M562.57,443.39c1,.41,4.35,4.14,3.24,7.61"/><path class="cls-8" d="M565.59,450.78a8.83,8.83,0,0,0-7.32-5.69,6.72,6.72,0,0,0-1.81.08,4.92,4.92,0,0,0-1.28.4"/><path class="cls-8" d="M565.6,442.44c1.45-.62,5.36,2.5,4.2,5.95"/><path class="cls-8" d="M565.63,435.64c.71,1.08,2.78,7.65,2.39,7.91s-5.58-4.28-6.29-5.36a2.33,2.33,0,0,1,3.9-2.55Z"/><path class="cls-8" d="M570.58,435.48c-.63,1.12-2.25,7.82-1.85,8s5.29-4.65,5.92-5.77a2.33,2.33,0,0,0-4.07-2.28Z"/><circle class="cls-9" cx="525.5" cy="189.63" r="10.61"/><circle class="cls-3" cx="525.5" cy="189.63" r="5.45"/><circle class="cls-9" cx="642.51" cy="189.63" r="10.61"/><circle class="cls-3" cx="642.51" cy="189.63" r="5.45"/><rect class="cls-3" x="548.36" y="255.02" width="71.28" height="104.92" rx="18.57"/><path class="cls-3" d="M610.15,375.4c-2.3-.4-5,4.18-6.1,10.2h0c-1,6,0,11.25,2.26,11.66l37.08,6.51,3.84-21.86Z"/><path class="cls-3" d="M615.19,344.4c.16-2.32-4.69-4.58-10.77-5h0c-6.09-.43-11.21,1.12-11.37,3.44l-2.67,37.56L612.52,382Z"/><rect class="cls-3" x="637.92" y="389.73" width="22.19" height="7.52" transform="translate(149.17 964.65) rotate(-80.04)"/><path class="cls-9" d="M642.51,139.79a58.09,58.09,0,0,0-10-32.65l10.86-25.86L618.54,92.44l3.51-29.63L601.66,80.08,597.1,67,586.37,36.31,573.28,66.09,571.11,71,566.3,57.36l-13,29.82-1.55,3.57-1.94-1.29-27.08-18,7.52,31.66,2.19,9.22a57.85,57.85,0,0,0-6.91,27.48v70.09h117Z"/><path class="cls-10" d="M630.37,269.26a58.15,58.15,0,0,0,12.14-35.55V209.88h-117v23.83a58.08,58.08,0,0,0,11.34,34.49,69.48,69.48,0,0,1,93.53,1.06Z"/><path class="cls-11" d="M630.37,269.26a69.48,69.48,0,0,0-93.53-1.06c.81,1.11,1.67,2.18,2.56,3.22h89.21C629.21,270.71,629.81,270,630.37,269.26Z"/><path class="cls-9" d="M584,292.21h0a58.4,58.4,0,0,0,44.61-20.79H539.4A58.4,58.4,0,0,0,584,292.21Z"/><ellipse class="cls-3" cx="554.28" cy="153.68" rx="25.4" ry="25.27" transform="translate(53.68 436.95) rotate(-45)"/><path class="cls-4" d="M576.05,140.61a25.39,25.39,0,0,1-43.53,26.15C525.36,154.77,568.89,128.62,576.05,140.61Z"/><path class="cls-4" d="M559.18,131.69A26.56,26.56,0,0,0,530.54,163a25.21,25.21,0,0,0,45.9-3.89A25.39,25.39,0,0,0,575.07,139,26.41,26.41,0,0,0,559.18,131.69Z"/><ellipse class="cls-3" cx="614.85" cy="153.68" rx="25.4" ry="25.27"/><path class="cls-4" d="M639.49,159.83a25.39,25.39,0,0,1-49.27-12.29C593.63,134,642.9,146.29,639.49,159.83Z"/><path class="cls-4" d="M633.87,141.59a26.58,26.58,0,0,0-42.39,1.88A25.3,25.3,0,0,0,640,158,26.43,26.43,0,0,0,633.87,141.59Z"/><circle class="cls-10" cx="554.28" cy="153.68" r="11.02"/><circle class="cls-10" cx="614.85" cy="153.68" r="11.02"/><path class="cls-4" d="M538.73,221.49a6.72,6.72,0,0,0,6.69-6.7v-4.91H532v4.91A6.72,6.72,0,0,0,538.73,221.49Z"/><path class="cls-4" d="M564.4,221.49a6.72,6.72,0,0,0,6.69-6.7v-4.91H557.7v4.91A6.73,6.73,0,0,0,564.4,221.49Z"/><path class="cls-4" d="M597.85,221.49a6.72,6.72,0,0,0,6.69-6.7v-4.91H591.15v4.91A6.73,6.73,0,0,0,597.85,221.49Z"/><circle class="cls-10" cx="577.5" cy="181.96" r="3.55"/><circle class="cls-10" cx="590.51" cy="181.96" r="3.55"/><ellipse class="cls-3" cx="603.85" cy="383.06" rx="14.09" ry="13.89" transform="translate(-95.22 232.48) rotate(-20.23)"/><path class="cls-4" d="M670.06,408.51A11.18,11.18,0,0,0,683,399.46h0a11.17,11.17,0,0,0-9.05-12.9l-18.07-3.18L652,405.33Z"/><rect class="cls-4" x="637.93" y="392.36" width="22.29" height="2.29" transform="translate(149.21 964.72) rotate(-80.04)"/><rect class="cls-5" x="640.92" y="392.14" width="22.29" height="3.78" transform="translate(151.16 968.09) rotate(-80.04)"/><rect class="cls-6" x="657.94" y="382.38" width="25.57" height="29.91" rx="2.58" transform="translate(163.35 989.21) rotate(-80.04)"/><path class="cls-12" d="M661.11,399.71c1.33,0,8.2,1.93,8.2,2.41s-6.87,2.42-8.2,2.42a2.42,2.42,0,0,1,0-4.83Z"/><path class="cls-12" d="M663.77,395.33c.61,1.18,5.5,6.38,5.92,6.16s-1-7.21-1.64-8.39a2.41,2.41,0,0,0-4.28,2.23Z"/><path class="cls-12" d="M665.05,417.34c-3.73-2.31,1-10.59,9.15-9"/><path class="cls-6" d="M676.26,396.47a12.5,12.5,0,0,0,10.15,14.47l4.33-24.62A12.5,12.5,0,0,0,676.26,396.47Z"/><path class="cls-13" d="M665.09,410.64A21,21,0,0,0,682.18,435l7.29-41.48A21.06,21.06,0,0,0,665.09,410.64Z"/><path class="cls-12" d="M664.72,409.82c.56-3.21,3.54-6,9.52-6.47"/><path class="cls-12" d="M666.09,406.75c.94-.66,6-1.42,8.43,1.5"/><path class="cls-12" d="M667,403.59c.28-1.61,5.2-3.23,7.53-.27"/><path class="cls-12" d="M674.2,408.32a9.14,9.14,0,0,0-9.07,3.12,7.13,7.13,0,0,0-1,1.61,5,5,0,0,0-.37,1.34"/><path class="cls-9" d="M581.4,318.93a2.93,2.93,0,0,1,4.14-.09l6.09,5.85a3,3,0,0,1,.08,4.15h0a3,3,0,0,1-4.15.08l-6.08-5.85A2.92,2.92,0,0,1,581.4,318.93Z"/><path class="cls-2" d="M580.18,336.65s41.14-3.55,66-14.12c4.81-2-21.81-40-21.81-40"/><path class="cls-9" d="M576.05,345.34a9,9,0,0,1-4.17-3.87l8.3-4.82,9-3.4a9.59,9.59,0,0,0-9.6-6.18c6.66-.5,34.6-3.78,55.09-10.49-3.89-7.19-11.37-18.87-18.14-28.52a9.61,9.61,0,0,1,15.73-11c.25.36,6.17,8.8,12,18.07,11.75,18.68,13.13,24.38,11.69,29.44a10.53,10.53,0,0,1-6,6.83c-11,4.68-26,8.61-44.5,11.67-7.14,1.18-13.36,2-17.31,2.44-2.2.26-4,.45-5.18.57A13.57,13.57,0,0,1,576.05,345.34Z"/></svg>